ScienceGothic-BlkCndS.ufo
<glyph name="exclam" format="2">
  <advance width="718"/>
  <unicode hex="0021"/>
  <outline>
    <contour>
      <point x="-21" y="135" type="line" smooth="yes"/>
      <point x="-36.8466" y="44.448"/>
      <point x="4.448" y="-6"/>
      <point x="95" y="-6" type="qcurve" smooth="yes"/>
      <point x="383" y="-6" type="line" smooth="yes"/>
      <point x="473" y="-6"/>
      <point x="533.25" y="45"/>
      <point x="549" y="135" type="qcurve" smooth="yes"/>
      <point x="564" y="224" type="line" smooth="yes"/>
      <point x="579.847" y="313.797"/>
      <point x="537.552" y="364"/>
      <point x="447" y="364" type="qcurve" smooth="yes"/>
      <point x="160" y="364" type="line" smooth="yes"/>
      <point x="70" y="364"/>
      <point x="9.75" y="313.75"/>
      <point x="-6" y="226" type="qcurve" smooth="yes"/>
    </contour>
    <contour>
      <point x="83" y="462" type="line"/>
      <point x="559" y="462" type="line"/>
      <point x="769" y="1400" type="line"/>
      <point x="199" y="1400" type="line"/>
    </contour>
  </outline>
</glyph>
<glyph name="quotedbl" format="2">
  <advance width="1323"/>
  <unicode hex="0022"/>
  <outline>
    <contour>
      <point x="170" y="1234" type="line"/>
      <point x="240" y="835" type="line"/>
      <point x="530" y="835" type="line"/>
      <point x="740" y="1234" type="line"/>
      <point x="766" y="1383" type="line" smooth="yes"/>
      <point x="781" y="1470"/>
      <point x="761" y="1500"/>
      <point x="688" y="1500" type="qcurve" smooth="yes"/>
      <point x="316" y="1500" type="line" smooth="yes"/>
      <point x="243" y="1500"/>
      <point x="211" y="1470"/>
      <point x="196" y="1383" type="qcurve" smooth="yes"/>
    </contour>
    <contour>
      <point x="778" y="1234" type="line"/>
      <point x="848" y="835" type="line"/>
      <point x="1138" y="835" type="line"/>
      <point x="1348" y="1234" type="line"/>
      <point x="1374" y="1383" type="line" smooth="yes"/>
      <point x="1389" y="1470"/>
      <point x="1369" y="1500"/>
      <point x="1296" y="1500" type="qcurve" smooth="yes"/>
      <point x="924" y="1500" type="line" smooth="yes"/>
      <point x="851" y="1500"/>
      <point x="819" y="1470"/>
      <point x="804" y="1383" type="qcurve" smooth="yes"/>
    </contour>
  </outline>
</glyph>
<glyph name="numbersign" format="2">
  <advance width="873"/>
  <unicode hex="0023"/>
  <outline>
    <contour>
      <point x="-30" y="224" type="line"/>
      <point x="675" y="224" type="line"/>
      <point x="778" y="636" type="line"/>
      <point x="73" y="636" type="line"/>
    </contour>
    <contour>
      <point x="103" y="765" type="line"/>
      <point x="808" y="765" type="line"/>
      <point x="910" y="1177" type="line"/>
      <point x="205" y="1177" type="line"/>
    </contour>
    <contour>
      <point x="12" y="0" type="line"/>
      <point x="220" y="0" type="line"/>
      <point x="564" y="1400" type="line"/>
      <point x="356" y="1400" type="line"/>
    </contour>
    <contour>
      <point x="314" y="0" type="line"/>
      <point x="522" y="0" type="line"/>
      <point x="866" y="1400" type="line"/>
      <point x="658" y="1400" type="line"/>
    </contour>
  </outline>
</glyph>
<glyph name="dollar" format="2">
  <advance width="1277"/>
  <unicode hex="0024"/>
  <outline>
    <contour>
      <point x="457" y="-168" type="line"/>
      <point x="519" y="-168" type="line"/>
      <point x="549" y="6" type="line"/>
      <point x="706" y="6" type="line" smooth="yes"/>
      <point x="802" y="6"/>
      <point x="959.719" y="33.625"/>
      <point x="1079.53" y="109.375"/>
      <point x="1159.62" y="243.5"/>
      <point x="1178" y="350" type="qcurve" smooth="yes"/>
      <point x="1217" y="572" type="line" smooth="yes"/>
      <point x="1235" y="675.5"/>
      <point x="1197.19" y="803.875"/>
      <point x="1100.81" y="875.125"/>
      <point x="953.5" y="900"/>
      <point x="862" y="900" type="qcurve" smooth="yes"/>
      <point x="705" y="900" type="line"/>
      <point x="727" y="1028" type="line"/>
      <point x="750" y="1028" type="line"/>
      <point x="750" y="1028"/>
      <point x="750" y="1028"/>
      <point x="750" y="1028" type="qcurve"/>
      <point x="738" y="958" type="line"/>
      <point x="1273" y="1006" type="line"/>
      <point x="1283" y="1066" type="line" smooth="yes"/>
      <point x="1301" y="1168.75"/>
      <point x="1263.81" y="1296.94"/>
      <point x="1168.19" y="1368.56"/>
      <point x="1021.5" y="1394"/>
      <point x="930" y="1394" type="qcurve" smooth="yes"/>
      <point x="791" y="1394" type="line"/>
      <point x="822" y="1568" type="line"/>
      <point x="760" y="1568" type="line"/>
      <point x="729" y="1394" type="line"/>
      <point x="594" y="1394" type="line" smooth="yes"/>
      <point x="502.5" y="1394"/>
      <point x="345.281" y="1367.88"/>
      <point x="222.469" y="1295.12"/>
      <point x="138.375" y="1165.5"/>
      <point x="120" y="1062" type="qcurve" smooth="yes"/>
      <point x="85" y="858" type="line" smooth="yes"/>
      <point x="66.625" y="752.25"/>
      <point x="99.3438" y="618.312"/>
      <point x="191.406" y="542.188"/>
      <point x="337.75" y="514"/>
      <point x="433" y="514" type="qcurve" smooth="yes"/>
      <point x="576" y="514" type="line"/>
      <point x="551" y="372" type="line"/>
      <point x="526" y="372" type="line"/>
      <point x="526" y="372"/>
      <point x="526" y="372"/>
      <point x="526" y="372" type="qcurve"/>
      <point x="542" y="462" type="line"/>
      <point x="-13" y="410" type="line"/>
      <point x="-24" y="348" type="line" smooth="yes"/>
      <point x="-42.375" y="242.25"/>
      <point x="-9.03125" y="108.938"/>
      <point x="83.7812" y="33.5625"/>
      <point x="230.75" y="6"/>
      <point x="326" y="6" type="qcurve" smooth="yes"/>
      <point x="487" y="6" type="line"/>
    </contour>
    <contour>
      <point x="643" y="900" type="line"/>
      <point x="618" y="900" type="line"/>
      <point x="618" y="900"/>
      <point x="618" y="900"/>
      <point x="618" y="900" type="qcurve"/>
      <point x="640" y="1028" type="line"/>
      <point x="640" y="1028"/>
      <point x="640" y="1028"/>
      <point x="640" y="1028" type="qcurve"/>
      <point x="665" y="1028" type="line"/>
    </contour>
    <contour>
      <point x="613" y="372" type="line"/>
      <point x="638" y="514" type="line"/>
      <point x="661" y="514" type="line"/>
      <point x="661" y="514"/>
      <point x="661" y="514"/>
      <point x="661" y="514" type="qcurve"/>
      <point x="636" y="372" type="line"/>
      <point x="636" y="372"/>
      <point x="636" y="372"/>
      <point x="636" y="372" type="qcurve"/>
    </contour>
  </outline>
</glyph>
<glyph name="percent" format="2">
  <advance width="2163"/>
  <unicode hex="0025"/>
  <outline>
    <contour>
      <point x="334" y="614" type="qcurve" smooth="yes"/>
      <point x="549" y="614" type="line" smooth="yes"/>
      <point x="659.926" y="614"/>
      <point x="792.38" y="687.81"/>
      <point x="812" y="801" type="qcurve" smooth="yes"/>
      <point x="889" y="1238" type="line" smooth="yes"/>
      <point x="907.865" y="1347.42"/>
      <point x="794.644" y="1418"/>
      <point x="689" y="1418" type="qcurve" smooth="yes"/>
      <point x="474" y="1418" type="line" smooth="yes"/>
      <point x="368.356" y="1418"/>
      <point x="231.865" y="1347.42"/>
      <point x="213" y="1238" type="qcurve" smooth="yes"/>
      <point x="136" y="801" type="line" smooth="yes"/>
      <point x="116.38" y="688.565"/>
      <point x="223.074" y="614"/>
    </contour>
    <contour>
      <point x="442" y="866" type="line"/>
      <point x="442" y="866"/>
      <point x="442" y="866"/>
      <point x="442" y="866" type="qcurve"/>
      <point x="494" y="1166" type="line"/>
      <point x="494" y="1166"/>
      <point x="494" y="1166"/>
      <point x="494" y="1166" type="qcurve"/>
      <point x="582" y="1166" type="line"/>
      <point x="582" y="1166"/>
      <point x="582" y="1166"/>
      <point x="582" y="1166" type="qcurve"/>
      <point x="530" y="866" type="line"/>
      <point x="530" y="866"/>
      <point x="530" y="866"/>
      <point x="530" y="866" type="qcurve"/>
    </contour>
    <contour>
      <point x="386" y="0" type="line"/>
      <point x="689" y="0" type="line"/>
      <point x="1781" y="1400" type="line"/>
      <point x="1478" y="1400" type="line"/>
    </contour>
    <contour>
      <point x="1481" y="-10" type="qcurve" smooth="yes"/>
      <point x="1696" y="-10" type="line" smooth="yes"/>
      <point x="1806.93" y="-10"/>
      <point x="1939.38" y="63.81"/>
      <point x="1959" y="177" type="qcurve" smooth="yes"/>
      <point x="2036" y="614" type="line" smooth="yes"/>
      <point x="2054.86" y="723.417"/>
      <point x="1941.64" y="794"/>
      <point x="1836" y="794" type="qcurve" smooth="yes"/>
      <point x="1621" y="794" type="line" smooth="yes"/>
      <point x="1515.36" y="794"/>
      <point x="1378.87" y="723.417"/>
      <point x="1360" y="614" type="qcurve" smooth="yes"/>
      <point x="1283" y="177" type="line" smooth="yes"/>
      <point x="1263.38" y="64.5646"/>
      <point x="1370.07" y="-10"/>
    </contour>
    <contour>
      <point x="1589" y="242" type="line"/>
      <point x="1589" y="242"/>
      <point x="1589" y="242"/>
      <point x="1589" y="242" type="qcurve"/>
      <point x="1641" y="542" type="line"/>
      <point x="1641" y="542"/>
      <point x="1641" y="542"/>
      <point x="1641" y="542" type="qcurve"/>
      <point x="1729" y="542" type="line"/>
      <point x="1729" y="542"/>
      <point x="1729" y="542"/>
      <point x="1729" y="542" type="qcurve"/>
      <point x="1677" y="242" type="line"/>
      <point x="1677" y="242"/>
      <point x="1677" y="242"/>
      <point x="1677" y="242" type="qcurve"/>
    </contour>
  </outline>
</glyph>
<glyph name="ampersand" format="2">
  <advance width="1593"/>
  <unicode hex="0026"/>
  <outline>
    <contour>
      <point x="200" y="-10" type="qcurve" smooth="yes"/>
      <point x="594" y="-10" type="line" smooth="yes"/>
      <point x="620.25" y="-10"/>
      <point x="675.562" y="1.3125"/>
      <point x="734.438" y="24.1875"/>
      <point x="797.25" y="58.75"/>
      <point x="831" y="82" type="qcurve"/>
      <point x="832" y="83" type="line"/>
      <point x="890" y="0" type="line"/>
      <point x="1473" y="0" type="line"/>
      <point x="1210" y="381" type="line"/>
      <point x="1562" y="659" type="line"/>
      <point x="1323" y="949" type="line"/>
      <point x="1004" y="697" type="line"/>
      <point x="786" y="1012" type="line"/>
      <point x="786" y="1012"/>
      <point x="786" y="1012"/>
      <point x="786" y="1012" type="qcurve"/>
      <point x="792" y="1048" type="line"/>
      <point x="792" y="1048"/>
      <point x="792" y="1048"/>
      <point x="792" y="1048" type="qcurve"/>
      <point x="901" y="1048" type="line"/>
      <point x="901" y="1048"/>
      <point x="901" y="1048"/>
      <point x="901" y="1048" type="qcurve"/>
      <point x="889" y="978" type="line"/>
      <point x="1334" y="1036" type="line"/>
      <point x="1348" y="1119" type="line" smooth="yes"/>
      <point x="1372.15" y="1257.09"/>
      <point x="1218.98" y="1414"/>
      <point x="1059" y="1414" type="qcurve" smooth="yes"/>
      <point x="681" y="1414" type="line" smooth="yes"/>
      <point x="530.08" y="1414"/>
      <point x="338.902" y="1255.39"/>
      <point x="314" y="1109" type="qcurve" smooth="yes"/>
      <point x="307" y="1071" type="line" smooth="yes"/>
      <point x="301" y="1037.25"/>
      <point x="290.938" y="978.25"/>
      <point x="286.062" y="924.25"/>
      <point x="288" y="873.5"/>
      <point x="294" y="848" type="qcurve"/>
      <point x="179" y="764" type="line" smooth="yes"/>
      <point x="86.9388" y="696.086"/>
      <point x="2.58279" y="580.969"/>
      <point x="-11" y="504" type="qcurve" smooth="yes"/>
      <point x="-56" y="246" type="line" smooth="yes"/>
      <point x="-64.25" y="198"/>
      <point x="-28.5" y="106"/>
      <point x="43.5" y="34"/>
      <point x="143.75" y="-10"/>
    </contour>
    <contour>
      <point x="436" y="400" type="line"/>
      <point x="436" y="400"/>
      <point x="436" y="400"/>
      <point x="436" y="400" type="qcurve"/>
      <point x="449" y="478" type="line"/>
      <point x="449" y="478"/>
      <point x="449" y="478"/>
      <point x="449" y="478" type="qcurve"/>
      <point x="521" y="538" type="line"/>
      <point x="618" y="400" type="line"/>
      <point x="618" y="400" type="line"/>
      <point x="618" y="400"/>
      <point x="618" y="400"/>
      <point x="618" y="400" type="qcurve"/>
    </contour>
  </outline>
</glyph>
<glyph name="quotesingle" format="2">
  <advance width="716"/>
  <unicode hex="0027"/>
  <outline>
    <contour>
      <point x="162" y="1184" type="line"/>
      <point x="232" y="785" type="line"/>
      <point x="522" y="785" type="line"/>
      <point x="732" y="1184" type="line"/>
      <point x="758" y="1333" type="line" smooth="yes"/>
      <point x="773" y="1420"/>
      <point x="753" y="1450"/>
      <point x="680" y="1450" type="qcurve" smooth="yes"/>
      <point x="308" y="1450" type="line" smooth="yes"/>
      <point x="235" y="1450"/>
      <point x="203" y="1420"/>
      <point x="188" y="1333" type="qcurve" smooth="yes"/>
    </contour>
  </outline>
</glyph>
<glyph name="parenleft" format="2">
  <advance width="661"/>
  <unicode hex="0028"/>
  <outline>
    <contour>
      <point x="491" y="-256" type="line"/>
      <point x="464" y="-176"/>
      <point x="435" y="26"/>
      <point x="429" y="253"/>
      <point x="448" y="498"/>
      <point x="470" y="622" type="qcurve" smooth="yes"/>
      <point x="492" y="746"/>
      <point x="559" y="991"/>
      <point x="643" y="1218"/>
      <point x="743" y="1420"/>
      <point x="797" y="1500" type="qcurve"/>
      <point x="521" y="1500" type="line"/>
      <point x="434" y="1426"/>
      <point x="278" y="1228"/>
      <point x="152" y="998"/>
      <point x="60" y="748"/>
      <point x="38" y="622" type="qcurve" smooth="yes"/>
      <point x="-6" y="369"/>
      <point x="92" y="-107"/>
      <point x="215" y="-256" type="qcurve"/>
    </contour>
  </outline>
</glyph>
<glyph name="parenright" format="2">
  <advance width="661"/>
  <unicode hex="0029"/>
  <outline>
    <contour>
      <point x="324" y="1500" type="line"/>
      <point x="351" y="1420"/>
      <point x="380" y="1218"/>
      <point x="386" y="991"/>
      <point x="367" y="746"/>
      <point x="345" y="622" type="qcurve" smooth="yes"/>
      <point x="323" y="498"/>
      <point x="256" y="253"/>
      <point x="172" y="26"/>
      <point x="72" y="-176"/>
      <point x="18" y="-256" type="qcurve"/>
      <point x="294" y="-256" type="line"/>
      <point x="381" y="-182"/>
      <point x="537" y="17"/>
      <point x="663" y="246"/>
      <point x="755" y="496"/>
      <point x="777" y="622" type="qcurve" smooth="yes"/>
      <point x="821" y="875"/>
      <point x="723" y="1351"/>
      <point x="600" y="1500" type="qcurve"/>
    </contour>
  </outline>
</glyph>
<glyph name="asterisk" format="2">
  <advance width="756"/>
  <unicode hex="002A"/>
  <outline>
    <contour>
      <point x="328" y="903" type="line"/>
      <point x="352" y="1044" type="line"/>
      <point x="216" y="962" type="line"/>
      <point x="146" y="1098" type="line"/>
      <point x="303" y="1193" type="line"/>
      <point x="187" y="1279" type="line"/>
      <point x="296" y="1411" type="line"/>
      <point x="402" y="1333" type="line"/>
      <point x="427" y="1472" type="line"/>
      <point x="603" y="1472" type="line"/>
      <point x="578" y="1328" type="line"/>
      <point x="719" y="1411" type="line"/>
      <point x="789" y="1274" type="line"/>
      <point x="631" y="1181" type="line"/>
      <point x="743" y="1096" type="line"/>
      <point x="634" y="964" type="line"/>
      <point x="529" y="1045" type="line"/>
      <point x="504" y="903" type="line"/>
    </contour>
  </outline>
</glyph>
<glyph name="plus" format="2">
  <advance width="999"/>
  <unicode hex="002B"/>
  <outline>
    <contour>
      <point x="976" y="732" type="line"/>
      <point x="665" y="732" type="line"/>
      <point x="732" y="1117" type="line"/>
      <point x="420" y="1117" type="line"/>
      <point x="353" y="732" type="line"/>
      <point x="42" y="732" type="line"/>
      <point x="-9" y="442" type="line"/>
      <point x="302" y="442" type="line"/>
      <point x="234" y="51" type="line"/>
      <point x="546" y="51" type="line"/>
      <point x="614" y="442" type="line"/>
      <point x="925" y="442" type="line"/>
    </contour>
  </outline>
</glyph>
<glyph name="comma" format="2">
  <advance width="672"/>
  <unicode hex="002C"/>
  <outline>
    <contour>
      <point x="114" y="-346" type="line"/>
      <point x="-90" y="-302" type="line"/>
      <point x="121" y="0" type="line"/>
      <point x="92" y="0" type="line" smooth="yes"/>
      <point x="47" y="0"/>
      <point x="-7" y="10"/>
      <point x="-32" y="41"/>
      <point x="-33" y="96"/>
      <point x="-25" y="141" type="qcurve" smooth="yes"/>
      <point x="17" y="385" type="line" smooth="yes"/>
      <point x="25" y="429"/>
      <point x="45" y="484"/>
      <point x="80" y="514"/>
      <point x="137" y="524"/>
      <point x="182" y="524" type="qcurve" smooth="yes"/>
      <point x="430" y="524" type="line" smooth="yes"/>
      <point x="475" y="524"/>
      <point x="529" y="514"/>
      <point x="554" y="484"/>
      <point x="555" y="429"/>
      <point x="547" y="385" type="qcurve" smooth="yes"/>
      <point x="505" y="141" type="line" smooth="yes"/>
      <point x="501" y="117"/>
      <point x="490" y="80"/>
      <point x="475" y="48"/>
      <point x="452" y="17"/>
      <point x="436" y="0" type="qcurve" smooth="yes"/>
    </contour>
  </outline>
</glyph>
<glyph name="period" format="2">
  <advance width="677"/>
  <unicode hex="002E"/>
  <outline>
    <contour>
      <point x="-22" y="135" type="line" smooth="yes"/>
      <point x="-38" y="44"/>
      <point x="3" y="-6"/>
      <point x="94" y="-6" type="qcurve" smooth="yes"/>
      <point x="342" y="-6" type="line" smooth="yes"/>
      <point x="432" y="-6"/>
      <point x="492" y="45"/>
      <point x="508" y="135" type="qcurve" smooth="yes"/>
      <point x="551" y="384" type="line" smooth="yes"/>
      <point x="567" y="474"/>
      <point x="524" y="524"/>
      <point x="433" y="524" type="qcurve" smooth="yes"/>
      <point x="186" y="524" type="line" smooth="yes"/>
      <point x="96" y="524"/>
      <point x="37" y="474"/>
      <point x="21" y="386" type="qcurve" smooth="yes"/>
    </contour>
  </outline>
</glyph>
<glyph name="zero" format="2">
  <advance width="1407"/>
  <unicode hex="0030"/>
  <outline>
    <contour>
      <point x="372" y="-18" type="qcurve" smooth="yes"/>
      <point x="790" y="-18" type="line" smooth="yes"/>
      <point x="989" y="-18"/>
      <point x="1228" y="120"/>
      <point x="1264" y="328" type="qcurve" smooth="yes"/>
      <point x="1396" y="1084" type="line" smooth="yes"/>
      <point x="1431" y="1285"/>
      <point x="1229" y="1418"/>
      <point x="1040" y="1418" type="qcurve" smooth="yes"/>
      <point x="622" y="1418" type="line" smooth="yes"/>
      <point x="433" y="1418"/>
      <point x="187" y="1285"/>
      <point x="152" y="1084" type="qcurve" smooth="yes"/>
      <point x="20" y="328" type="line" smooth="yes"/>
      <point x="-16" y="121"/>
      <point x="173" y="-18"/>
    </contour>
    <contour>
      <point x="619" y="484" type="line"/>
      <point x="619" y="484"/>
      <point x="619" y="484"/>
      <point x="619" y="484" type="qcurve"/>
      <point x="695" y="916" type="line"/>
      <point x="695" y="916"/>
      <point x="695" y="916"/>
      <point x="695" y="916" type="qcurve"/>
      <point x="795" y="916" type="line"/>
      <point x="795" y="916"/>
      <point x="795" y="916"/>
      <point x="795" y="916" type="qcurve"/>
      <point x="719" y="484" type="line"/>
      <point x="719" y="484"/>
      <point x="719" y="484"/>
      <point x="719" y="484" type="qcurve"/>
    </contour>
  </outline>
</glyph>
<glyph name="one" format="2">
  <advance width="887"/>
  <unicode hex="0031"/>
  <outline>
    <contour>
      <point x="107" y="0" type="line"/>
      <point x="679" y="0" type="line"/>
      <point x="928" y="1428" type="line"/>
      <point x="152" y="1314" type="line"/>
      <point x="82" y="912" type="line"/>
      <point x="269" y="926" type="line"/>
    </contour>
  </outline>
  <guideline angle="90" color="0.4,0.4,0.4,1" name="halfwidth" x="443.5" y="0"/>
</glyph>
<glyph name="two" format="2">
  <advance width="1370"/>
  <unicode hex="0032"/>
  <outline>
    <contour>
      <point x="-39" y="0" type="line"/>
      <point x="776" y="0" type="line" smooth="yes"/>
      <point x="967" y="0"/>
      <point x="1209" y="131"/>
      <point x="1246" y="342" type="qcurve" smooth="yes"/>
      <point x="1259" y="416" type="line"/>
      <point x="741" y="472" type="line"/>
      <point x="726" y="386" type="line"/>
      <point x="726" y="386"/>
      <point x="726" y="386"/>
      <point x="726" y="386" type="qcurve"/>
      <point x="550" y="386" type="line"/>
      <point x="551" y="388" type="line"/>
      <point x="553" y="403"/>
      <point x="579" y="450"/>
      <point x="611" y="461" type="qcurve" smooth="yes"/>
      <point x="841" y="537" type="line" smooth="yes"/>
      <point x="972" y="580"/>
      <point x="1144" y="660"/>
      <point x="1251" y="755"/>
      <point x="1308" y="877"/>
      <point x="1323" y="961" type="qcurve" smooth="yes"/>
      <point x="1345" y="1082" type="line" smooth="yes"/>
      <point x="1364" y="1186"/>
      <point x="1325" y="1315"/>
      <point x="1227" y="1388"/>
      <point x="1079" y="1414"/>
      <point x="987" y="1414" type="qcurve" smooth="yes"/>
      <point x="627" y="1414" type="line" smooth="yes"/>
      <point x="536" y="1414"/>
      <point x="380" y="1389"/>
      <point x="259" y="1317"/>
      <point x="178" y="1189"/>
      <point x="160" y="1086" type="qcurve" smooth="yes"/>
      <point x="144" y="998" type="line"/>
      <point x="661" y="942" type="line"/>
      <point x="676" y="1028" type="line"/>
      <point x="676" y="1028"/>
      <point x="676" y="1028"/>
      <point x="676" y="1028" type="qcurve"/>
      <point x="808" y="1028" type="line"/>
      <point x="808" y="1028"/>
      <point x="808" y="1028"/>
      <point x="808" y="1028" type="qcurve"/>
      <point x="795" y="951" type="line"/>
      <point x="794" y="944"/>
      <point x="780" y="932"/>
      <point x="769" y="928" type="qcurve" smooth="yes"/>
      <point x="383" y="794" type="line" smooth="yes"/>
      <point x="246" y="746"/>
      <point x="56" y="539"/>
      <point x="26" y="369" type="qcurve" smooth="yes"/>
    </contour>
  </outline>
</glyph>
<glyph name="three" format="2">
  <advance width="1382"/>
  <unicode hex="0033"/>
  <outline>
    <contour>
      <point x="31" y="393" type="line"/>
      <point x="15" y="302" type="line" smooth="yes"/>
      <point x="-18" y="115"/>
      <point x="182" y="-18"/>
      <point x="347" y="-18" type="qcurve" smooth="yes"/>
      <point x="771" y="-18" type="line" smooth="yes"/>
      <point x="863" y="-18"/>
      <point x="1017" y="2"/>
      <point x="1136" y="70"/>
      <point x="1217" y="201"/>
      <point x="1236" y="312" type="qcurve" smooth="yes"/>
      <point x="1253" y="408" type="line" smooth="yes"/>
      <point x="1282" y="569"/>
      <point x="1178" y="709"/>
      <point x="1062" y="720" type="qcurve"/>
      <point x="1183" y="741"/>
      <point x="1311" y="856"/>
      <point x="1339" y="1014" type="qcurve" smooth="yes"/>
      <point x="1354" y="1100" type="line" smooth="yes"/>
      <point x="1371" y="1193"/>
      <point x="1332" y="1316"/>
      <point x="1241" y="1388"/>
      <point x="1104" y="1418"/>
      <point x="1021" y="1418" type="qcurve" smooth="yes"/>
      <point x="597" y="1418" type="line" smooth="yes"/>
      <point x="510" y="1418"/>
      <point x="364" y="1400"/>
      <point x="251" y="1337"/>
      <point x="174" y="1215"/>
      <point x="156" y="1110" type="qcurve" smooth="yes"/>
      <point x="142" y="1032" type="line"/>
      <point x="658" y="939" type="line"/>
      <point x="672" y="1018" type="line"/>
      <point x="672" y="1018"/>
      <point x="672" y="1018"/>
      <point x="672" y="1018" type="qcurve"/>
      <point x="722" y="1018" type="line" smooth="yes"/>
      <point x="758" y="1018"/>
      <point x="804" y="994"/>
      <point x="797" y="956" type="qcurve" smooth="yes"/>
      <point x="793" y="934" type="line" smooth="yes"/>
      <point x="787" y="897"/>
      <point x="752" y="874"/>
      <point x="723" y="874" type="qcurve" smooth="yes"/>
      <point x="653" y="874" type="line"/>
      <point x="595" y="542" type="line"/>
      <point x="665" y="542" type="line" smooth="yes"/>
      <point x="698" y="542"/>
      <point x="739" y="517"/>
      <point x="732" y="480" type="qcurve" smooth="yes"/>
      <point x="727" y="451" type="line" smooth="yes"/>
      <point x="718" y="402"/>
      <point x="661" y="383"/>
      <point x="619" y="383" type="qcurve" smooth="yes"/>
      <point x="561" y="383" type="line"/>
      <point x="561" y="383"/>
      <point x="561" y="383"/>
      <point x="561" y="383" type="qcurve"/>
      <point x="579" y="487" type="line"/>
    </contour>
  </outline>
</glyph>
<glyph name="four" format="2">
  <advance width="1367"/>
  <unicode hex="0034"/>
  <outline>
    <contour>
      <point x="-58" y="200" type="line"/>
      <point x="569" y="200" type="line"/>
      <point x="534" y="0" type="line"/>
      <point x="1096" y="0" type="line"/>
      <point x="1131" y="200" type="line"/>
      <point x="1230" y="200" type="line"/>
      <point x="1300" y="602" type="line"/>
      <point x="1201" y="602" type="line"/>
      <point x="1340" y="1400" type="line"/>
      <point x="628" y="1400" type="line"/>
      <point x="6" y="568" type="line"/>
    </contour>
    <contour>
      <point x="506" y="582" type="line"/>
      <point x="678" y="821" type="line"/>
      <point x="636" y="582" type="line"/>
    </contour>
  </outline>
</glyph>
<glyph name="five" format="2">
  <advance width="1129"/>
  <unicode hex="0035"/>
  <outline>
    <contour>
      <point x="319" y="-12" type="qcurve" smooth="yes"/>
      <point x="429" y="-12"/>
      <point x="671" y="9"/>
      <point x="885" y="99"/>
      <point x="1044" y="279"/>
      <point x="1072" y="438" type="qcurve" smooth="yes"/>
      <point x="1098" y="584"/>
      <point x="1036" y="760"/>
      <point x="899" y="855"/>
      <point x="706" y="886"/>
      <point x="600" y="886" type="qcurve" smooth="yes"/>
      <point x="571" y="886"/>
      <point x="528" y="886"/>
      <point x="494" y="885"/>
      <point x="463" y="883"/>
      <point x="446" y="882" type="qcurve"/>
      <point x="469" y="974" type="line"/>
      <point x="974" y="974" type="line"/>
      <point x="1132" y="1400" type="line"/>
      <point x="224" y="1400" type="line"/>
      <point x="-16" y="482" type="line"/>
      <point x="5" y="489"/>
      <point x="70" y="504"/>
      <point x="155" y="517"/>
      <point x="261" y="526"/>
      <point x="322" y="526" type="qcurve" smooth="yes"/>
      <point x="373" y="526"/>
      <point x="443" y="516"/>
      <point x="485" y="495"/>
      <point x="501" y="463"/>
      <point x="497" y="440" type="qcurve" smooth="yes"/>
      <point x="492" y="412"/>
      <point x="457" y="377"/>
      <point x="403" y="357"/>
      <point x="334" y="350"/>
      <point x="295" y="350" type="qcurve" smooth="yes"/>
      <point x="252" y="350"/>
      <point x="157" y="357"/>
      <point x="67" y="367"/>
      <point x="-11" y="380"/>
      <point x="-37" y="386" type="qcurve"/>
      <point x="-8" y="44" type="line"/>
      <point x="36" y="31"/>
      <point x="128" y="11"/>
      <point x="214" y="-4"/>
      <point x="291" y="-12"/>
    </contour>
  </outline>
</glyph>
<glyph name="seven" format="2">
  <advance width="1297"/>
  <unicode hex="0037"/>
  <outline>
    <contour>
      <point x="79" y="973" type="line"/>
      <point x="564" y="877" type="line"/>
      <point x="586" y="1000" type="line"/>
      <point x="761" y="1000" type="line"/>
      <point x="146" y="0" type="line"/>
      <point x="732" y="0" type="line"/>
      <point x="1333" y="1030" type="line"/>
      <point x="1397" y="1400" type="line"/>
      <point x="153" y="1400" type="line"/>
    </contour>
  </outline>
  <guideline angle="90" color="0.4,0.4,0.4,1" name="halfwidth" x="648.5" y="0"/>
</glyph>
<glyph name="eight" format="2">
  <advance width="1438"/>
  <unicode hex="0038"/>
  <outline>
    <contour>
      <point x="569" y="425" type="qcurve" smooth="yes"/>
      <point x="575" y="457" type="line" smooth="yes"/>
      <point x="578" y="472"/>
      <point x="593" y="496"/>
      <point x="618" y="512"/>
      <point x="653" y="521"/>
      <point x="675" y="521" type="qcurve" smooth="yes"/>
      <point x="707" y="521" type="line" smooth="yes"/>
      <point x="729" y="521"/>
      <point x="761" y="512"/>
      <point x="781" y="496"/>
      <point x="788" y="472"/>
      <point x="785" y="457" type="qcurve" smooth="yes"/>
      <point x="779" y="425" type="line" smooth="yes"/>
      <point x="774" y="395"/>
      <point x="724" y="361"/>
      <point x="679" y="361" type="qcurve" smooth="yes"/>
      <point x="647" y="361" type="line" smooth="yes"/>
      <point x="602" y="361"/>
      <point x="564" y="395"/>
    </contour>
    <contour>
      <point x="862" y="975" type="qcurve" smooth="yes"/>
      <point x="859" y="957" type="line" smooth="yes"/>
      <point x="854" y="928"/>
      <point x="806" y="894"/>
      <point x="769" y="894" type="qcurve" smooth="yes"/>
      <point x="743" y="894" type="line" smooth="yes"/>
      <point x="706" y="894"/>
      <point x="670" y="928"/>
      <point x="675" y="957" type="qcurve" smooth="yes"/>
      <point x="678" y="975" type="line" smooth="yes"/>
      <point x="683" y="1004"/>
      <point x="731" y="1038"/>
      <point x="768" y="1038" type="qcurve" smooth="yes"/>
      <point x="794" y="1038" type="line" smooth="yes"/>
      <point x="831" y="1038"/>
      <point x="867" y="1004"/>
    </contour>
    <contour>
      <point x="12" y="335" type="line" smooth="yes"/>
      <point x="-6" y="234"/>
      <point x="36" y="98"/>
      <point x="136" y="16"/>
      <point x="286" y="-18"/>
      <point x="376" y="-18" type="qcurve" smooth="yes"/>
      <point x="817" y="-18" type="line" smooth="yes"/>
      <point x="1000" y="-18"/>
      <point x="1270" y="134"/>
      <point x="1305" y="336" type="qcurve" smooth="yes"/>
      <point x="1315" y="396" type="line" smooth="yes"/>
      <point x="1345" y="566"/>
      <point x="1244" y="696"/>
      <point x="1174" y="712" type="qcurve"/>
      <point x="1245" y="729"/>
      <point x="1367" y="868"/>
      <point x="1387" y="977" type="qcurve" smooth="yes"/>
      <point x="1404" y="1080" type="line" smooth="yes"/>
      <point x="1432" y="1236"/>
      <point x="1264" y="1418"/>
      <point x="1062" y="1418" type="qcurve" smooth="yes"/>
      <point x="633" y="1418" type="line" smooth="yes"/>
      <point x="431" y="1418"/>
      <point x="200" y="1236"/>
      <point x="172" y="1079" type="qcurve" smooth="yes"/>
      <point x="155" y="977" type="line" smooth="yes"/>
      <point x="135" y="868"/>
      <point x="207" y="729"/>
      <point x="275" y="712" type="qcurve"/>
      <point x="198" y="695"/>
      <point x="52" y="563"/>
      <point x="22" y="392" type="qcurve" smooth="yes"/>
    </contour>
  </outline>
</glyph>
<glyph name="nine" format="2">
  <advance width="1337"/>
  <unicode hex="0039"/>
  <outline>
    <contour>
      <point x="708" y="1418" type="qcurve" smooth="yes"/>
      <point x="549" y="1418"/>
      <point x="346" y="1404"/>
      <point x="220" y="1335"/>
      <point x="153" y="1188"/>
      <point x="130" y="1054" type="qcurve" smooth="yes"/>
      <point x="102" y="890"/>
      <point x="114" y="659"/>
      <point x="199" y="514"/>
      <point x="363" y="448"/>
      <point x="487" y="448" type="qcurve" smooth="yes"/>
      <point x="555" y="448"/>
      <point x="674" y="472"/>
      <point x="767" y="507"/>
      <point x="832" y="545"/>
      <point x="846" y="558" type="qcurve"/>
      <point x="911" y="926" type="line"/>
      <point x="890" y="911"/>
      <point x="844" y="884"/>
      <point x="793" y="863"/>
      <point x="736" y="850"/>
      <point x="704" y="850" type="qcurve" smooth="yes"/>
      <point x="684" y="850"/>
      <point x="659" y="858"/>
      <point x="646" y="877"/>
      <point x="646" y="909"/>
      <point x="650" y="933" type="qcurve" smooth="yes"/>
      <point x="655" y="959"/>
      <point x="665" y="992"/>
      <point x="681" y="1010"/>
      <point x="706" y="1017"/>
      <point x="725" y="1017" type="qcurve" smooth="yes"/>
      <point x="744" y="1017"/>
      <point x="766" y="1007"/>
      <point x="774" y="982"/>
      <point x="771" y="939"/>
      <point x="765" y="905" type="qcurve" smooth="yes"/>
      <point x="737" y="742"/>
      <point x="665" y="530"/>
      <point x="576" y="406"/>
      <point x="467" y="356"/>
      <point x="401" y="356" type="qcurve" smooth="yes"/>
      <point x="376" y="356"/>
      <point x="331" y="360"/>
      <point x="290" y="368"/>
      <point x="252" y="379"/>
      <point x="234" y="386" type="qcurve"/>
      <point x="297" y="-9" type="line"/>
      <point x="302" y="-11"/>
      <point x="350" y="-18"/>
      <point x="388" y="-18" type="qcurve" smooth="yes"/>
      <point x="571" y="-18"/>
      <point x="862" y="41"/>
      <point x="1082" y="202"/>
      <point x="1231" y="486"/>
      <point x="1270" y="711" type="qcurve" smooth="yes"/>
      <point x="1305" y="909"/>
      <point x="1315" y="1180"/>
      <point x="1206" y="1346"/>
      <point x="945" y="1418"/>
    </contour>
  </outline>
</glyph>
<glyph name="colon" format="2">
  <advance width="677"/>
  <unicode hex="003A"/>
  <outline>
    <contour>
      <point x="-22" y="135" type="line" smooth="yes"/>
      <point x="-31" y="83"/>
      <point x="-37" y="26"/>
      <point x="-14" y="-1"/>
      <point x="42" y="-6"/>
      <point x="94" y="-6" type="qcurve" smooth="yes"/>
      <point x="342" y="-6" type="line" smooth="yes"/>
      <point x="394" y="-6"/>
      <point x="452" y="-1"/>
      <point x="484" y="26"/>
      <point x="499" y="83"/>
      <point x="508" y="135" type="qcurve" smooth="yes"/>
      <point x="539" y="314" type="line" smooth="yes"/>
      <point x="548" y="366"/>
      <point x="552" y="422"/>
      <point x="530" y="449"/>
      <point x="473" y="454"/>
      <point x="421" y="454" type="qcurve" smooth="yes"/>
      <point x="174" y="454" type="line" smooth="yes"/>
      <point x="122" y="454"/>
      <point x="64" y="449"/>
      <point x="33" y="423"/>
      <point x="18" y="367"/>
      <point x="9" y="316" type="qcurve" smooth="yes"/>
    </contour>
    <contour>
      <point x="79" y="715" type="line" smooth="yes"/>
      <point x="70" y="663"/>
      <point x="65" y="606"/>
      <point x="87" y="579"/>
      <point x="143" y="574"/>
      <point x="195" y="574" type="qcurve" smooth="yes"/>
      <point x="443" y="574" type="line" smooth="yes"/>
      <point x="495" y="574"/>
      <point x="553" y="579"/>
      <point x="585" y="606"/>
      <point x="600" y="663"/>
      <point x="609" y="715" type="qcurve" smooth="yes"/>
      <point x="640" y="894" type="line" smooth="yes"/>
      <point x="649" y="946"/>
      <point x="653" y="1002"/>
      <point x="631" y="1029"/>
      <point x="574" y="1034"/>
      <point x="522" y="1034" type="qcurve" smooth="yes"/>
      <point x="275" y="1034" type="line" smooth="yes"/>
      <point x="223" y="1034"/>
      <point x="165" y="1029"/>
      <point x="134" y="1003"/>
      <point x="119" y="947"/>
      <point x="110" y="896" type="qcurve" smooth="yes"/>
    </contour>
  </outline>
</glyph>
<glyph name="less" format="2">
  <advance width="999"/>
  <unicode hex="003C"/>
  <outline>
    <contour>
      <point x="837" y="51" type="line"/>
      <point x="887" y="339" type="line"/>
      <point x="409" y="564" type="line"/>
      <point x="966" y="791" type="line"/>
      <point x="1023" y="1117" type="line"/>
      <point x="59" y="719" type="line"/>
      <point x="12" y="449" type="line"/>
    </contour>
  </outline>
</glyph>
<glyph name="equal" format="2">
  <advance width="999"/>
  <unicode hex="003D"/>
  <outline>
    <contour>
      <point x="47" y="652" type="line"/>
      <point x="941" y="652" type="line"/>
      <point x="991" y="942" type="line"/>
      <point x="97" y="942" type="line"/>
    </contour>
    <contour>
      <point x="-23" y="232" type="line"/>
      <point x="871" y="232" type="line"/>
      <point x="921" y="522" type="line"/>
      <point x="27" y="522" type="line"/>
    </contour>
  </outline>
</glyph>
<glyph name="greater" format="2">
  <advance width="999"/>
  <unicode hex="003E"/>
  <outline>
    <contour>
      <point x="129" y="1117" type="line"/>
      <point x="79" y="829" type="line"/>
      <point x="557" y="604" type="line"/>
      <point x="0" y="377" type="line"/>
      <point x="-57" y="51" type="line"/>
      <point x="907" y="449" type="line"/>
      <point x="954" y="719" type="line"/>
    </contour>
  </outline>
</glyph>
<glyph name="question" format="2">
  <advance width="1097"/>
  <unicode hex="003F"/>
  <outline>
    <contour>
      <point x="244" y="462" type="line"/>
      <point x="278" y="658" type="line" smooth="yes"/>
      <point x="286" y="702"/>
      <point x="329" y="785"/>
      <point x="400" y="850"/>
      <point x="495" y="890"/>
      <point x="553" y="890" type="qcurve" smooth="yes"/>
      <point x="615" y="890" type="line"/>
      <point x="615" y="890"/>
      <point x="615" y="890"/>
      <point x="615" y="890"/>
      <point x="615" y="890"/>
      <point x="615" y="890" type="qcurve"/>
      <point x="640" y="1032" type="line"/>
      <point x="640" y="1032"/>
      <point x="640" y="1032"/>
      <point x="640" y="1032"/>
      <point x="640" y="1032"/>
      <point x="640" y="1032" type="qcurve"/>
      <point x="555" y="1032" type="line"/>
      <point x="555" y="1032"/>
      <point x="555" y="1032"/>
      <point x="555" y="1032"/>
      <point x="555" y="1032"/>
      <point x="555" y="1032" type="qcurve"/>
      <point x="538" y="935" type="line"/>
      <point x="96" y="1008" type="line"/>
      <point x="116" y="1121" type="line" smooth="yes"/>
      <point x="130" y="1200"/>
      <point x="185" y="1313"/>
      <point x="275" y="1385"/>
      <point x="403" y="1418"/>
      <point x="488" y="1418" type="qcurve" smooth="yes"/>
      <point x="844" y="1418" type="line" smooth="yes"/>
      <point x="930" y="1418"/>
      <point x="1045" y="1385"/>
      <point x="1109" y="1315"/>
      <point x="1125" y="1203"/>
      <point x="1111" y="1123" type="qcurve" smooth="yes"/>
      <point x="1058" y="822" type="line" smooth="yes"/>
      <point x="1048" y="763"/>
      <point x="1004" y="655"/>
      <point x="934" y="573"/>
      <point x="838" y="524"/>
      <point x="775" y="524" type="qcurve" smooth="yes"/>
      <point x="709" y="524" type="line"/>
      <point x="709" y="524"/>
      <point x="709" y="524"/>
      <point x="709" y="524"/>
      <point x="709" y="524"/>
      <point x="709" y="524" type="qcurve"/>
      <point x="699" y="462" type="line"/>
    </contour>
    <contour>
      <point x="149" y="135" type="line"/>
      <point x="164" y="226" type="line" smooth="yes"/>
      <point x="172" y="270"/>
      <point x="192" y="324"/>
      <point x="228" y="354"/>
      <point x="285" y="364"/>
      <point x="330" y="364" type="qcurve" smooth="yes"/>
      <point x="577" y="364" type="line" smooth="yes"/>
      <point x="622" y="364"/>
      <point x="676" y="354"/>
      <point x="701" y="324"/>
      <point x="702" y="269"/>
      <point x="694" y="224" type="qcurve" smooth="yes"/>
      <point x="679" y="135" type="line" smooth="yes"/>
      <point x="671" y="90"/>
      <point x="651" y="35"/>
      <point x="615" y="4"/>
      <point x="558" y="-6"/>
      <point x="513" y="-6" type="qcurve" smooth="yes"/>
      <point x="265" y="-6" type="line" smooth="yes"/>
      <point x="220" y="-6"/>
      <point x="167" y="4"/>
      <point x="142" y="35"/>
      <point x="141" y="90"/>
      <point x="149" y="135" type="qcurve"/>
    </contour>
  </outline>
</glyph>
<glyph name="at" format="2">
  <advance width="1781"/>
  <unicode hex="0040"/>
  <outline>
    <contour>
      <point x="-40" y="81" type="line" smooth="yes"/>
      <point x="-71.5" y="-99.75"/>
      <point x="95.75" y="-213"/>
      <point x="260" y="-213" type="qcurve" smooth="yes"/>
      <point x="1273" y="-213" type="line"/>
      <point x="1318" y="49" type="line"/>
      <point x="411" y="49" type="line" smooth="yes"/>
      <point x="318.939" y="49"/>
      <point x="274.945" y="111.933"/>
      <point x="284" y="164" type="qcurve" smooth="yes"/>
      <point x="410" y="886" type="line" smooth="yes"/>
      <point x="421.319" y="950.896"/>
      <point x="508.595" y="990"/>
      <point x="575" y="990" type="qcurve" smooth="yes"/>
      <point x="1303" y="990" type="line" smooth="yes"/>
      <point x="1396.57" y="990"/>
      <point x="1451.55" y="932.031"/>
      <point x="1444" y="886" type="qcurve" smooth="yes"/>
      <point x="1376" y="501" type="line" smooth="yes"/>
      <point x="1368.45" y="457.988"/>
      <point x="1343.2" y="417"/>
      <point x="1310" y="417" type="qcurve" smooth="yes"/>
      <point x="1296" y="417" type="line" smooth="yes"/>
      <point x="1269.75" y="417"/>
      <point x="1251.25" y="440.5"/>
      <point x="1255" y="463" type="qcurve" smooth="yes"/>
      <point x="1327" y="878" type="line"/>
      <point x="960" y="878" type="line"/>
      <point x="948" y="808" type="line"/>
      <point x="931.399" y="847.994"/>
      <point x="845.46" y="886"/>
      <point x="770" y="886" type="qcurve" smooth="yes"/>
      <point x="739" y="886" type="line" smooth="yes"/>
      <point x="627.319" y="886"/>
      <point x="509.847" y="800.061"/>
      <point x="494" y="708" type="qcurve" smooth="yes"/>
      <point x="429" y="337" type="line" smooth="yes"/>
      <point x="411.644" y="240.411"/>
      <point x="498.565" y="153"/>
      <point x="611" y="153" type="qcurve" smooth="yes"/>
      <point x="651" y="153" type="line" smooth="yes"/>
      <point x="724.951" y="153"/>
      <point x="823.571" y="198.859"/>
      <point x="853" y="263" type="qcurve"/>
      <point x="849.227" y="226.779"/>
      <point x="942.092" y="154"/>
      <point x="1050" y="154" type="qcurve" smooth="yes"/>
      <point x="1336" y="154" type="line" smooth="yes"/>
      <point x="1474.85" y="154"/>
      <point x="1643.33" y="260.743"/>
      <point x="1672" y="426" type="qcurve" smooth="yes"/>
      <point x="1768" y="972" type="line" smooth="yes"/>
      <point x="1783" y="1059.75"/>
      <point x="1749.97" y="1169.5"/>
      <point x="1667.28" y="1231"/>
      <point x="1541.62" y="1253"/>
      <point x="1464" y="1253" type="qcurve" smooth="yes"/>
      <point x="516" y="1253" type="line" smooth="yes"/>
      <point x="360" y="1253"/>
      <point x="146" y="1147.5"/>
      <point x="116" y="972" type="qcurve" smooth="yes"/>
    </contour>
    <contour>
      <point x="815" y="448" type="qcurve"/>
      <point x="840" y="591" type="line"/>
      <point x="840" y="591"/>
      <point x="840" y="591"/>
      <point x="840" y="591" type="qcurve"/>
      <point x="910" y="591" type="line"/>
      <point x="885" y="448" type="line"/>
      <point x="885" y="448"/>
      <point x="885" y="448"/>
      <point x="885" y="448" type="qcurve"/>
      <point x="815" y="448" type="line"/>
      <point x="815" y="448"/>
      <point x="815" y="448"/>
    </contour>
  </outline>
  <guideline angle="0" x="0" y="551"/>
</glyph>
<glyph name="B" format="2">
  <advance width="1384"/>
  <unicode hex="0042"/>
  <anchor x="692" y="1550" name="top"/>
  <anchor x="692" y="-150" name="bottom"/>
  <outline>
    <contour>
      <point x="-37" y="0" type="line"/>
      <point x="846" y="0" type="line" smooth="yes"/>
      <point x="941" y="0"/>
      <point x="1096" y="46"/>
      <point x="1214" y="137"/>
      <point x="1292" y="275"/>
      <point x="1308" y="366" type="qcurve" smooth="yes"/>
      <point x="1318" y="422" type="line" smooth="yes"/>
      <point x="1333" y="510"/>
      <point x="1278" y="656"/>
      <point x="1208" y="706" type="qcurve"/>
      <point x="1288" y="756"/>
      <point x="1384" y="895"/>
      <point x="1399" y="978" type="qcurve"/>
      <point x="1408" y="1034" type="line" smooth="yes"/>
      <point x="1424" y="1126"/>
      <point x="1395" y="1263"/>
      <point x="1309" y="1354"/>
      <point x="1169" y="1400"/>
      <point x="1074" y="1400" type="qcurve" smooth="yes"/>
      <point x="207" y="1400" type="line"/>
    </contour>
    <contour>
      <point x="601" y="376" type="line"/>
      <point x="629" y="536" type="line"/>
      <point x="704" y="536" type="line" smooth="yes"/>
      <point x="738" y="536"/>
      <point x="759" y="503"/>
      <point x="754" y="476" type="qcurve" smooth="yes"/>
      <point x="747" y="436" type="line" smooth="yes"/>
      <point x="742" y="409"/>
      <point x="710" y="376"/>
      <point x="676" y="376" type="qcurve" smooth="yes"/>
    </contour>
    <contour>
      <point x="686" y="868" type="line"/>
      <point x="714" y="1028" type="line"/>
      <point x="789" y="1028" type="line" smooth="yes"/>
      <point x="823" y="1028"/>
      <point x="845" y="995"/>
      <point x="840" y="968" type="qcurve" smooth="yes"/>
      <point x="833" y="928" type="line" smooth="yes"/>
      <point x="828" y="901"/>
      <point x="795" y="868"/>
      <point x="761" y="868" type="qcurve" smooth="yes"/>
    </contour>
  </outline>
</glyph>
<glyph name="C" format="2">
  <advance width="1325"/>
  <unicode hex="0043"/>
  <anchor x="812" y="1550" name="top"/>
  <anchor x="565" y="-150" name="bottom"/>
  <outline>
    <contour>
      <point x="136" y="1084" type="qcurve" smooth="yes"/>
      <point x="4" y="328" type="line" smooth="yes"/>
      <point x="-32.2208" y="121.24"/>
      <point x="156.786" y="-18"/>
      <point x="356" y="-18" type="qcurve" smooth="yes"/>
      <point x="774" y="-18" type="line" smooth="yes"/>
      <point x="973.214" y="-18"/>
      <point x="1211.78" y="119.73"/>
      <point x="1248" y="328" type="qcurve" smooth="yes"/>
      <point x="1284" y="530" type="line"/>
      <point x="731" y="640" type="line"/>
      <point x="700" y="466" type="line"/>
      <point x="700" y="466"/>
      <point x="700" y="466"/>
      <point x="700" y="466" type="qcurve"/>
      <point x="600" y="466" type="line"/>
      <point x="600" y="466"/>
      <point x="600" y="466"/>
      <point x="600" y="466" type="qcurve"/>
      <point x="682" y="934" type="line"/>
      <point x="682" y="934"/>
      <point x="682" y="934"/>
      <point x="682" y="934" type="qcurve"/>
      <point x="776" y="934" type="line"/>
      <point x="776" y="934"/>
      <point x="776" y="934"/>
      <point x="776" y="934" type="qcurve"/>
      <point x="750" y="786" type="line"/>
      <point x="1340" y="890" type="line"/>
      <point x="1374" y="1084" type="line" smooth="yes"/>
      <point x="1409.25" y="1285"/>
      <point x="1207" y="1418"/>
      <point x="1018" y="1418" type="qcurve" smooth="yes"/>
      <point x="606" y="1418" type="line" smooth="yes"/>
      <point x="417" y="1418"/>
      <point x="171.25" y="1285"/>
    </contour>
  </outline>
</glyph>
<glyph name="D" format="2">
  <advance width="1358"/>
  <unicode hex="0044"/>
  <anchor x="777" y="1550" name="top"/>
  <anchor x="478" y="-150" name="bottom"/>
  <outline>
    <contour>
      <point x="612" y="444" type="line"/>
      <point x="702" y="956" type="line"/>
      <point x="712" y="956" type="line" smooth="yes"/>
      <point x="737" y="956"/>
      <point x="773" y="930"/>
      <point x="791" y="870"/>
      <point x="789" y="775"/>
      <point x="777" y="706" type="qcurve" smooth="yes"/>
      <point x="765" y="636"/>
      <point x="733" y="536"/>
      <point x="694" y="473"/>
      <point x="649" y="444"/>
      <point x="622" y="444" type="qcurve" smooth="yes"/>
    </contour>
    <contour>
      <point x="-37" y="0" type="line"/>
      <point x="550" y="0" type="line" smooth="yes"/>
      <point x="700" y="0"/>
      <point x="956" y="57"/>
      <point x="1157" y="201"/>
      <point x="1296" y="447"/>
      <point x="1329" y="635" type="qcurve" smooth="yes"/>
      <point x="1360" y="812"/>
      <point x="1325" y="1095"/>
      <point x="1192" y="1294"/>
      <point x="960" y="1400"/>
      <point x="794" y="1400" type="qcurve" smooth="yes"/>
      <point x="207" y="1400" type="line"/>
    </contour>
  </outline>
  <guideline angle="90" x="131410" y="0"/>
  <guideline angle="0" x="0" y="1549"/>
  <guideline angle="0" x="0" y="1325"/>
  <guideline angle="0" x="0" y="73"/>
</glyph>
<glyph name="E" format="2">
  <advance width="1156.16"/>
  <unicode hex="0045"/>
  <anchor x="736" y="1550" name="top"/>
  <anchor x="439" y="-150" name="bottom"/>
  <anchor x="781" y="0" name="ogonek"/>
  <outline>
    <contour>
      <point x="-40" y="0" type="line"/>
      <point x="204" y="1400" type="line"/>
      <point x="1200" y="1400" type="line"/>
      <point x="1126" y="976" type="line"/>
      <point x="702" y="976" type="line"/>
      <point x="687" y="890" type="line"/>
      <point x="1071" y="890" type="line"/>
      <point x="1007" y="520" type="line"/>
      <point x="623" y="520" type="line"/>
      <point x="606" y="424" type="line"/>
      <point x="1044" y="424" type="line"/>
      <point x="970" y="0" type="line"/>
    </contour>
  </outline>
  <guideline angle="90" x="-186" y="0"/>
</glyph>
<glyph name="F" format="2">
  <advance width="1106"/>
  <unicode hex="0046"/>
  <outline>
    <contour>
      <point x="-37" y="0" type="line"/>
      <point x="535" y="0" type="line"/>
      <point x="603" y="390" type="line"/>
      <point x="883" y="390" type="line"/>
      <point x="961" y="834" type="line"/>
      <point x="681" y="834" type="line"/>
      <point x="702" y="956" type="line"/>
      <point x="1102" y="956" type="line"/>
      <point x="1179" y="1400" type="line"/>
      <point x="207" y="1400" type="line"/>
    </contour>
  </outline>
</glyph>
<glyph name="G" format="2">
  <advance width="1362.45" height="1448"/>
  <unicode hex="0047"/>
  <anchor x="842" y="1568" name="top"/>
  <anchor x="539" y="-168" name="bottom"/>
  <outline>
    <contour>
      <point x="132.281" y="1084" type="line"/>
      <point x="0.281" y="328" type="line" smooth="yes"/>
      <point x="-17.719" y="225"/>
      <point x="13.281" y="91"/>
      <point x="105.281" y="13"/>
      <point x="253.281" y="-18"/>
      <point x="352.281" y="-18" type="qcurve" smooth="yes"/>
      <point x="772.281" y="-18" type="line" smooth="yes"/>
      <point x="871.281" y="-18"/>
      <point x="1030.28" y="13"/>
      <point x="1150.28" y="91"/>
      <point x="1228.28" y="225"/>
      <point x="1246.28" y="328" type="qcurve" smooth="yes"/>
      <point x="1340.28" y="864" type="line"/>
      <point x="728.281" y="864" type="line"/>
      <point x="663.281" y="494" type="line"/>
      <point x="703.281" y="494" type="line"/>
      <point x="688.281" y="406" type="line"/>
      <point x="688.281" y="406"/>
      <point x="688.281" y="406"/>
      <point x="688.281" y="406"/>
      <point x="688.281" y="406"/>
      <point x="688.281" y="406" type="qcurve"/>
      <point x="586.281" y="406" type="line"/>
      <point x="586.281" y="406"/>
      <point x="586.281" y="406"/>
      <point x="586.281" y="406"/>
      <point x="586.281" y="406"/>
      <point x="586.281" y="406" type="qcurve"/>
      <point x="688.281" y="994" type="line"/>
      <point x="688.281" y="994"/>
      <point x="688.281" y="994"/>
      <point x="688.281" y="994"/>
      <point x="688.281" y="994"/>
      <point x="688.281" y="994" type="qcurve"/>
      <point x="784.281" y="994" type="line"/>
      <point x="784.281" y="994"/>
      <point x="784.281" y="994"/>
      <point x="784.281" y="994"/>
      <point x="784.281" y="994"/>
      <point x="784.281" y="994" type="qcurve"/>
      <point x="769.281" y="906" type="line"/>
      <point x="1359.28" y="1010" type="line"/>
      <point x="1372.28" y="1084" type="line" smooth="yes"/>
      <point x="1390.28" y="1185"/>
      <point x="1354.28" y="1314"/>
      <point x="1259.28" y="1389"/>
      <point x="1111.28" y="1418"/>
      <point x="1016.28" y="1418" type="qcurve" smooth="yes"/>
      <point x="602.281" y="1418" type="line" smooth="yes"/>
      <point x="508.281" y="1418"/>
      <point x="350.281" y="1389"/>
      <point x="230.281" y="1314"/>
      <point x="150.281" y="1185"/>
      <point x="132.281" y="1084" type="qcurve"/>
    </contour>
  </outline>
  <guideline angle="0" x="0" y="574"/>
  <guideline angle="0" x="0" y="1036"/>
  <guideline angle="0" x="0" y="980"/>
  <guideline angle="0" x="0" y="806"/>
  <guideline angle="0" x="0" y="700"/>
  <guideline angle="0" x="0" y="906"/>
  <guideline angle="0" x="0" y="494"/>
</glyph>
<glyph name="I" format="2">
  <advance width="735"/>
  <unicode hex="0049"/>
  <anchor x="520" y="1550" name="top"/>
  <anchor x="223" y="-150" name="bottom"/>
  <anchor x="-37" y="0" name="ogonek"/>
  <outline>
    <contour>
      <point x="-37" y="0" type="line"/>
      <point x="535" y="0" type="line"/>
      <point x="779" y="1400" type="line"/>
      <point x="207" y="1400" type="line"/>
    </contour>
  </outline>
</glyph>
<glyph name="K" format="2">
  <advance width="1525"/>
  <unicode hex="004B"/>
  <anchor x="907" y="1550" name="top"/>
  <anchor x="663" y="-150" name="bottom"/>
  <outline>
    <contour>
      <point x="1606" y="1400" type="line"/>
      <point x="1007" y="1400" type="line"/>
      <point x="627" y="723" type="line"/>
      <point x="668" y="723" type="line"/>
      <point x="779" y="1400" type="line"/>
      <point x="207" y="1400" type="line"/>
      <point x="-37" y="0" type="line"/>
      <point x="535" y="0" type="line"/>
      <point x="647" y="706" type="line"/>
      <point x="622" y="706" type="line"/>
      <point x="763" y="0" type="line"/>
      <point x="1415" y="0" type="line"/>
      <point x="1181" y="839" type="line"/>
      <point x="1181" y="714" type="line"/>
    </contour>
  </outline>
</glyph>
<glyph name="M" format="2">
  <advance width="1687"/>
  <unicode hex="004D"/>
  <anchor x="953" y="1550" name="top"/>
  <anchor x="661" y="-150" name="bottom"/>
  <outline>
    <contour>
      <point x="-37" y="0" type="line"/>
      <point x="447" y="0" type="line"/>
      <point x="543" y="548" type="line"/>
      <point x="727" y="186" type="line"/>
      <point x="1012" y="553" type="line"/>
      <point x="915" y="0" type="line"/>
      <point x="1487" y="0" type="line"/>
      <point x="1731" y="1400" type="line"/>
      <point x="1224" y="1400" type="line"/>
      <point x="850" y="935" type="line"/>
      <point x="601" y="1400" type="line"/>
      <point x="207" y="1400" type="line"/>
    </contour>
  </outline>
</glyph>
<glyph name="N" format="2">
  <advance width="1470"/>
  <unicode hex="004E"/>
  <anchor x="886" y="1550" name="top"/>
  <anchor x="589" y="-150" name="bottom"/>
  <outline>
    <contour>
      <point x="-40" y="0" type="line"/>
      <point x="492" y="0" type="line"/>
      <point x="570" y="446" type="line"/>
      <point x="886" y="0" type="line"/>
      <point x="1270" y="0" type="line"/>
      <point x="1514" y="1400" type="line"/>
      <point x="982" y="1400" type="line"/>
      <point x="904" y="951" type="line"/>
      <point x="586" y="1400" type="line"/>
      <point x="204" y="1400" type="line"/>
    </contour>
  </outline>
</glyph>
<glyph name="R" format="2">
  <advance width="1496"/>
  <unicode hex="0052"/>
  <anchor x="660" y="-150" name="bottom"/>
  <anchor x="803" y="1550" name="top"/>
  <outline>
    <contour>
      <point x="-37" y="0" type="line"/>
      <point x="535" y="0" type="line"/>
      <point x="612" y="444" type="line"/>
      <point x="612" y="444" type="line"/>
      <point x="738" y="0" type="line"/>
      <point x="1356" y="0" type="line"/>
      <point x="1149" y="533" type="line"/>
      <point x="1149" y="533" type="line"/>
      <point x="1231" y="567"/>
      <point x="1337" y="711"/>
      <point x="1358" y="828" type="qcurve" smooth="yes"/>
      <point x="1399" y="1066" type="line" smooth="yes"/>
      <point x="1434" y="1267"/>
      <point x="1232" y="1400"/>
      <point x="1043" y="1400" type="qcurve" smooth="yes"/>
      <point x="207" y="1400" type="line"/>
    </contour>
    <contour>
      <point x="678" y="820" type="line"/>
      <point x="703" y="960" type="line"/>
      <point x="758" y="960" type="line" smooth="yes"/>
      <point x="792" y="960"/>
      <point x="813" y="927"/>
      <point x="808" y="900" type="qcurve" smooth="yes"/>
      <point x="805" y="880" type="line"/>
      <point x="800" y="853"/>
      <point x="767" y="820"/>
      <point x="733" y="820" type="qcurve" smooth="yes"/>
    </contour>
  </outline>
  <guideline angle="90" color="0.4,0.4,0.4,1" name="halfwidth" x="748" y="0"/>
</glyph>
<glyph name="T" format="2">
  <advance width="1176"/>
  <unicode hex="0054"/>
  <anchor x="741" y="1550" name="top"/>
  <anchor x="444" y="-150" name="bottom"/>
  <outline>
    <contour>
      <point x="184" y="0" type="line"/>
      <point x="756" y="0" type="line"/>
      <point x="916" y="916" type="line"/>
      <point x="1192" y="916" type="line"/>
      <point x="1276" y="1400" type="line"/>
      <point x="152" y="1400" type="line"/>
      <point x="68" y="916" type="line"/>
      <point x="344" y="916" type="line"/>
    </contour>
  </outline>
</glyph>
<glyph name="Z" format="2">
  <advance width="1330"/>
  <unicode hex="005A"/>
  <anchor x="838" y="1550" name="top"/>
  <anchor x="538" y="-150" name="bottom"/>
  <outline>
    <contour>
      <point x="-44" y="0" type="line"/>
      <point x="1120" y="0" type="line"/>
      <point x="1201" y="464" type="line"/>
      <point x="751" y="464" type="line"/>
      <point x="755" y="455" type="line"/>
      <point x="1307" y="1128" type="line"/>
      <point x="1354" y="1400" type="line"/>
      <point x="270" y="1400" type="line"/>
      <point x="189" y="936" type="line"/>
      <point x="559" y="936" type="line"/>
      <point x="555" y="945" type="line"/>
      <point x="3" y="272" type="line"/>
    </contour>
  </outline>
</glyph>
<glyph name="bracketleft" format="2">
  <advance width="771"/>
  <unicode hex="005B"/>
  <outline>
    <contour>
      <point x="-82" y="-256" type="line"/>
      <point x="580" y="-256" type="line"/>
      <point x="641" y="94" type="line"/>
      <point x="419" y="94" type="line"/>
      <point x="595" y="1098" type="line"/>
      <point x="817" y="1098" type="line"/>
      <point x="878" y="1448" type="line"/>
      <point x="216" y="1448" type="line"/>
    </contour>
  </outline>
</glyph>
<glyph name="backslash" format="2">
  <advance width="748"/>
  <unicode hex="005C"/>
  <outline>
    <contour>
      <point x="565" y="1430" type="line"/>
      <point x="169" y="1430" type="line"/>
      <point x="178" y="-100" type="line"/>
      <point x="574" y="-100" type="line"/>
    </contour>
  </outline>
</glyph>
<glyph name="bracketright" format="2">
  <advance width="771"/>
  <unicode hex="005D"/>
  <outline>
    <contour>
      <point x="878" y="1448" type="line"/>
      <point x="216" y="1448" type="line"/>
      <point x="155" y="1098" type="line"/>
      <point x="377" y="1098" type="line"/>
      <point x="201" y="94" type="line"/>
      <point x="-21" y="94" type="line"/>
      <point x="-82" y="-256" type="line"/>
      <point x="580" y="-256" type="line"/>
    </contour>
  </outline>
</glyph>
<glyph name="asciicircum" format="2">
  <advance width="1011"/>
  <unicode hex="005E"/>
  <outline>
    <contour>
      <point x="30" y="850" type="line"/>
      <point x="396" y="850" type="line"/>
      <point x="605" y="1190" type="line"/>
      <point x="695" y="850" type="line"/>
      <point x="1040" y="850" type="line"/>
      <point x="787" y="1400" type="line"/>
      <point x="475" y="1400" type="line"/>
    </contour>
  </outline>
  <guideline angle="0" x="0" y="850"/>
</glyph>
<glyph name="underscore" format="2">
  <advance width="725"/>
  <unicode hex="005F"/>
  <outline>
    <contour>
      <point x="-194" y="-425" type="line"/>
      <point x="529" y="-425" type="line"/>
      <point x="588" y="-93" type="line"/>
      <point x="-135" y="-93" type="line"/>
    </contour>
  </outline>
  <guideline angle="0" x="0" y="-695"/>
  <guideline angle="0" x="0" y="-695"/>
</glyph>
<glyph name="b" format="2">
  <advance width="1277"/>
  <unicode hex="0062"/>
  <anchor x="804" y="1598" name="top"/>
  <anchor x="497" y="-162" name="bottom"/>
  <outline>
    <contour>
      <point x="-49" y="0" type="line"/>
      <point x="475" y="0" type="line"/>
      <point x="492" y="100" type="line"/>
      <point x="515.393" y="42.6504"/>
      <point x="637.583" y="-12"/>
      <point x="747" y="-12" type="qcurve" smooth="yes"/>
      <point x="791" y="-12" type="line" smooth="yes"/>
      <point x="936.638" y="-12"/>
      <point x="1116.59" y="100.325"/>
      <point x="1143" y="252" type="qcurve" smooth="yes"/>
      <point x="1235" y="782" type="line" smooth="yes"/>
      <point x="1262.92" y="933.675"/>
      <point x="1109.07" y="1036"/>
      <point x="974" y="1036" type="qcurve" smooth="yes"/>
      <point x="930" y="1036" type="line" smooth="yes"/>
      <point x="822.092" y="1036"/>
      <point x="679.012" y="981.35"/>
      <point x="636" y="924" type="qcurve"/>
      <point x="732" y="1472" type="line"/>
      <point x="208" y="1472" type="line"/>
    </contour>
    <contour>
      <point x="547" y="410" type="line"/>
      <point x="582" y="614" type="line"/>
      <point x="682" y="614" type="line"/>
      <point x="682" y="614"/>
      <point x="682" y="614"/>
      <point x="682" y="614" type="qcurve"/>
      <point x="647" y="410" type="line"/>
      <point x="647" y="410"/>
      <point x="647" y="410"/>
      <point x="647" y="410" type="qcurve"/>
    </contour>
  </outline>
  <guideline angle="0" x="0" y="988"/>
  <guideline angle="0" x="0" y="42"/>
</glyph>
<glyph name="e" format="2">
  <advance width="1262" height="1448"/>
  <unicode hex="0065"/>
  <anchor x="716" y="1174" name="top"/>
  <anchor x="485" y="-150" name="bottom"/>
  <anchor x="802" y="-4" name="ogonek"/>
  <outline>
    <contour>
      <point x="-12" y="296" type="line"/>
      <point x="65" y="738" type="line" smooth="yes"/>
      <point x="79" y="816"/>
      <point x="142" y="929"/>
      <point x="250" y="1003"/>
      <point x="408" y="1038"/>
      <point x="515" y="1038" type="qcurve" smooth="yes"/>
      <point x="847" y="1038" type="line" smooth="yes"/>
      <point x="955" y="1038"/>
      <point x="1107" y="1003"/>
      <point x="1197" y="930"/>
      <point x="1227" y="817"/>
      <point x="1213" y="738" type="qcurve" smooth="yes"/>
      <point x="1155" y="404" type="line"/>
      <point x="531" y="404" type="line"/>
      <point x="510" y="288" type="line"/>
      <point x="510" y="288"/>
      <point x="510" y="288"/>
      <point x="510" y="288" type="qcurve"/>
      <point x="610" y="288" type="line"/>
      <point x="610" y="288"/>
      <point x="610" y="288"/>
      <point x="610" y="288" type="qcurve"/>
      <point x="624" y="368" type="line"/>
      <point x="1133" y="280" type="line"/>
      <point x="1130" y="262" type="line" smooth="yes"/>
      <point x="1117" y="187"/>
      <point x="1049" y="82"/>
      <point x="935" y="16"/>
      <point x="772" y="-14"/>
      <point x="664" y="-14" type="qcurve" smooth="yes"/>
      <point x="332" y="-14" type="line" smooth="yes"/>
      <point x="224" y="-14"/>
      <point x="79" y="22"/>
      <point x="-3" y="98"/>
      <point x="-26" y="215"/>
      <point x="-12" y="296" type="qcurve"/>
    </contour>
    <contour>
      <point x="570" y="628" type="line"/>
      <point x="670" y="628" type="line"/>
      <point x="688" y="736" type="line"/>
      <point x="688" y="736"/>
      <point x="688" y="736"/>
      <point x="688" y="736" type="qcurve"/>
      <point x="588" y="736" type="line"/>
      <point x="588" y="736"/>
      <point x="588" y="736"/>
      <point x="588" y="736" type="qcurve"/>
    </contour>
  </outline>
  <guideline angle="0" color="1,0,0,1" x="0" y="-1038"/>
</glyph>
<glyph name="f" format="2">
  <advance width="870"/>
  <unicode hex="0066"/>
  <outline>
    <contour>
      <point x="9" y="0" type="line"/>
      <point x="533" y="0" type="line"/>
      <point x="659" y="722" type="line"/>
      <point x="831" y="722" type="line"/>
      <point x="884" y="1024" type="line"/>
      <point x="712" y="1024" type="line"/>
      <point x="737" y="1170" type="line"/>
      <point x="737" y="1170"/>
      <point x="737" y="1170"/>
      <point x="737" y="1170" type="qcurve"/>
      <point x="914" y="1170" type="line"/>
      <point x="1017" y="1472" type="line"/>
      <point x="580" y="1472" type="line" smooth="yes"/>
      <point x="425" y="1472"/>
      <point x="242" y="1333"/>
      <point x="214" y="1176" type="qcurve" smooth="yes"/>
      <point x="188" y="1024" type="line"/>
      <point x="100" y="1024" type="line"/>
      <point x="47" y="722" type="line"/>
      <point x="135" y="722" type="line"/>
    </contour>
  </outline>
</glyph>
<glyph name="h" format="2">
  <advance width="1282"/>
  <unicode hex="0068"/>
  <anchor x="496" y="1622" name="top"/>
  <anchor x="499" y="-150" name="bottom"/>
  <outline>
    <contour>
      <point x="-49" y="0" type="line"/>
      <point x="475" y="0" type="line"/>
      <point x="575" y="574" type="line"/>
      <point x="675" y="574" type="line"/>
      <point x="675" y="574"/>
      <point x="675" y="574"/>
      <point x="675" y="574" type="qcurve"/>
      <point x="575" y="0" type="line"/>
      <point x="1099" y="0" type="line"/>
      <point x="1227" y="736" type="line" smooth="yes"/>
      <point x="1254.75" y="892"/>
      <point x="1164" y="1036"/>
      <point x="972" y="1036" type="qcurve" smooth="yes"/>
      <point x="942" y="1036" type="line" smooth="yes"/>
      <point x="824.282" y="1036"/>
      <point x="678.748" y="986.331"/>
      <point x="638" y="932" type="qcurve"/>
      <point x="732" y="1472" type="line"/>
      <point x="208" y="1472" type="line"/>
    </contour>
  </outline>
  <guideline angle="0" x="0" y="988"/>
  <guideline angle="0" x="0" y="870"/>
</glyph>
<glyph name="j" format="2">
  <advance width="660"/>
  <unicode hex="006A"/>
  <anchor x="403" y="1174" name="top"/>
  <outline>
    <contour>
      <point x="-408" y="-80" type="line"/>
      <point x="-397" y="-428" type="line"/>
      <point x="148" y="-428" type="line" smooth="yes"/>
      <point x="207" y="-428"/>
      <point x="311" y="-381"/>
      <point x="394" y="-296"/>
      <point x="452" y="-176"/>
      <point x="465" y="-102" type="qcurve" smooth="yes"/>
      <point x="662" y="1024" type="line"/>
      <point x="138" y="1024" type="line"/>
      <point x="-55" y="-80" type="line"/>
      <point x="-55" y="-80"/>
      <point x="-55" y="-80"/>
      <point x="-55" y="-80" type="qcurve"/>
    </contour>
    <contour>
      <point x="160" y="1232" type="line" smooth="yes"/>
      <point x="146" y="1151"/>
      <point x="170" y="1122"/>
      <point x="251" y="1122" type="qcurve" smooth="yes"/>
      <point x="583" y="1122" type="line" smooth="yes"/>
      <point x="664" y="1122"/>
      <point x="698" y="1151"/>
      <point x="712" y="1232" type="qcurve" smooth="yes"/>
      <point x="735" y="1364" type="line" smooth="yes"/>
      <point x="749" y="1444"/>
      <point x="725" y="1472"/>
      <point x="644" y="1472" type="qcurve" smooth="yes"/>
      <point x="312" y="1472" type="line" smooth="yes"/>
      <point x="231" y="1472"/>
      <point x="197" y="1444"/>
      <point x="183" y="1364" type="qcurve" smooth="yes"/>
    </contour>
  </outline>
  <guideline angle="260.084" x="400.476" y="1024"/>
  <guideline angle="80.0762" x="465" y="-102"/>
</glyph>
<glyph name="l" format="2">
  <advance width="663"/>
  <unicode hex="006C"/>
  <anchor x="492" y="1598" name="top"/>
  <anchor x="187" y="-150" name="bottom"/>
  <anchor x="732" y="1472" name="right"/>
  <anchor x="665" y="700" name="eldot"/>
  <outline>
    <contour>
      <point x="-49" y="0" type="line"/>
      <point x="475" y="0" type="line"/>
      <point x="732" y="1472" type="line"/>
      <point x="208" y="1472" type="line"/>
    </contour>
  </outline>
</glyph>
<glyph name="m" format="2">
  <advance width="1882" height="1448"/>
  <unicode hex="006D"/>
  <anchor x="941" y="1186" name="top"/>
  <anchor x="941" y="-150" name="bottom"/>
  <anchor x="-65" y="518" name="left"/>
  <outline>
    <contour>
      <point x="-53" y="0" type="line"/>
      <point x="471" y="0" type="line"/>
      <point x="571" y="574" type="line"/>
      <point x="661" y="574" type="line"/>
      <point x="561" y="0" type="line"/>
      <point x="1085" y="0" type="line"/>
      <point x="1185" y="574" type="line"/>
      <point x="1275" y="574" type="line"/>
      <point x="1275" y="574"/>
      <point x="1275" y="574"/>
      <point x="1275" y="574" type="qcurve"/>
      <point x="1175" y="0" type="line"/>
      <point x="1699" y="0" type="line"/>
      <point x="1828" y="738" type="line" smooth="yes"/>
      <point x="1841" y="816"/>
      <point x="1837" y="929"/>
      <point x="1782" y="1003"/>
      <point x="1668" y="1038"/>
      <point x="1572" y="1038" type="qcurve" smooth="yes"/>
      <point x="1552" y="1038" type="line" smooth="yes"/>
      <point x="1483" y="1038"/>
      <point x="1377" y="1021"/>
      <point x="1297" y="986"/>
      <point x="1241" y="931"/>
      <point x="1223" y="893" type="qcurve"/>
      <point x="1216" y="942"/>
      <point x="1166" y="999"/>
      <point x="1093" y="1029"/>
      <point x="1004" y="1038"/>
      <point x="958" y="1038" type="qcurve" smooth="yes"/>
      <point x="938" y="1038" type="line" smooth="yes"/>
      <point x="820" y="1038"/>
      <point x="675" y="988"/>
      <point x="634" y="934" type="qcurve"/>
      <point x="650" y="1024" type="line"/>
      <point x="126" y="1024" type="line"/>
    </contour>
  </outline>
</glyph>
<glyph name="p" format="2">
  <advance width="1276"/>
  <unicode hex="0070"/>
  <outline>
    <contour>
      <point x="-125" y="-428" type="line"/>
      <point x="399" y="-428" type="line"/>
      <point x="491" y="100" type="line"/>
      <point x="514" y="43"/>
      <point x="639" y="-12"/>
      <point x="746" y="-12" type="qcurve" smooth="yes"/>
      <point x="790" y="-12" type="line" smooth="yes"/>
      <point x="950" y="-12"/>
      <point x="1117" y="111"/>
      <point x="1140" y="242" type="qcurve" smooth="yes"/>
      <point x="1233" y="772" type="line" smooth="yes"/>
      <point x="1257" y="911"/>
      <point x="1134" y="1036"/>
      <point x="973" y="1036" type="qcurve" smooth="yes"/>
      <point x="929" y="1036" type="line" smooth="yes"/>
      <point x="820" y="1036"/>
      <point x="677" y="981"/>
      <point x="635" y="924" type="qcurve"/>
      <point x="653" y="1024" type="line"/>
      <point x="129" y="1024" type="line"/>
    </contour>
    <contour>
      <point x="546" y="410" type="line"/>
      <point x="581" y="614" type="line"/>
      <point x="681" y="614" type="line"/>
      <point x="681" y="614"/>
      <point x="681" y="614"/>
      <point x="681" y="614" type="qcurve"/>
      <point x="646" y="410" type="line"/>
      <point x="646" y="410"/>
      <point x="646" y="410"/>
      <point x="646" y="410" type="qcurve"/>
    </contour>
  </outline>
</glyph>
<glyph name="q" format="2">
  <advance width="1277"/>
  <unicode hex="0071"/>
  <anchor x="793" y="1598" name="top"/>
  <anchor x="486" y="-162" name="bottom"/>
  <outline>
    <contour>
      <point x="-16" y="252" type="line" smooth="yes"/>
      <point x="-40" y="113"/>
      <point x="83" y="-12"/>
      <point x="244" y="-12" type="qcurve" smooth="yes"/>
      <point x="288" y="-12" type="line" smooth="yes"/>
      <point x="397" y="-12"/>
      <point x="539" y="43"/>
      <point x="581" y="100" type="qcurve"/>
      <point x="489" y="-428" type="line"/>
      <point x="1013" y="-428" type="line"/>
      <point x="1267" y="1024" type="line"/>
      <point x="743" y="1024" type="line"/>
      <point x="725" y="924" type="line"/>
      <point x="702" y="981"/>
      <point x="578" y="1036"/>
      <point x="471" y="1036" type="qcurve" smooth="yes"/>
      <point x="427" y="1036" type="line" smooth="yes"/>
      <point x="267" y="1036"/>
      <point x="99" y="913"/>
      <point x="76" y="782" type="qcurve" smooth="yes"/>
    </contour>
    <contour>
      <point x="536" y="410" type="qcurve"/>
      <point x="571" y="614" type="line"/>
      <point x="571" y="614"/>
      <point x="571" y="614"/>
      <point x="571" y="614" type="qcurve"/>
      <point x="671" y="614" type="line"/>
      <point x="636" y="410" type="line"/>
      <point x="536" y="410" type="line"/>
      <point x="536" y="410"/>
      <point x="536" y="410"/>
    </contour>
  </outline>
</glyph>
<glyph name="t" format="2">
  <advance width="830"/>
  <unicode hex="0074"/>
  <anchor x="519" y="1394" name="top"/>
  <anchor x="247" y="-164" name="bottom"/>
  <anchor x="764" y="1400" name="right"/>
  <outline>
    <contour>
      <point x="301" y="-14" type="qcurve" smooth="yes"/>
      <point x="628" y="-14" type="line"/>
      <point x="730" y="288" type="line"/>
      <point x="571" y="288" type="line"/>
      <point x="571" y="288"/>
      <point x="571" y="288"/>
      <point x="571" y="288" type="qcurve"/>
      <point x="647" y="722" type="line"/>
      <point x="811" y="722" type="line"/>
      <point x="864" y="1024" type="line"/>
      <point x="700" y="1024" type="line"/>
      <point x="738" y="1244" type="line"/>
      <point x="214" y="1244" type="line"/>
      <point x="176" y="1024" type="line"/>
      <point x="88" y="1024" type="line"/>
      <point x="35" y="722" type="line"/>
      <point x="123" y="722" type="line"/>
      <point x="39" y="242" type="line" smooth="yes"/>
      <point x="14.8528" y="103.154"/>
      <point x="134.988" y="-14"/>
    </contour>
  </outline>
</glyph>
<glyph name="z" format="2">
  <advance width="1095"/>
  <unicode hex="007A"/>
  <anchor x="632" y="1174" name="top"/>
  <anchor x="401" y="-150" name="bottom"/>
  <outline>
    <contour>
      <point x="-90" y="0" type="line"/>
      <point x="946" y="0" type="line"/>
      <point x="1002" y="322" type="line"/>
      <point x="611" y="322" type="line"/>
      <point x="615" y="313" type="line"/>
      <point x="1075" y="797" type="line"/>
      <point x="1115" y="1024" type="line"/>
      <point x="135" y="1024" type="line"/>
      <point x="79" y="702" type="line"/>
      <point x="418" y="702" type="line"/>
      <point x="414" y="711" type="line"/>
      <point x="-50" y="227" type="line"/>
    </contour>
  </outline>
</glyph>
<glyph name="braceleft" format="2">
  <advance width="893"/>
  <unicode hex="007B"/>
  <outline>
    <contour>
      <point x="118" y="18" type="line" smooth="yes"/>
      <point x="96" y="-110"/>
      <point x="233" y="-256"/>
      <point x="369" y="-256" type="qcurve" smooth="yes"/>
      <point x="702" y="-256" type="line"/>
      <point x="763" y="94" type="line"/>
      <point x="694" y="94" type="line" smooth="yes"/>
      <point x="628" y="94"/>
      <point x="581" y="148"/>
      <point x="591" y="206" type="qcurve" smooth="yes"/>
      <point x="611" y="317" type="line" smooth="yes"/>
      <point x="631" y="429"/>
      <point x="551" y="570"/>
      <point x="460" y="597" type="qcurve"/>
      <point x="561" y="624"/>
      <point x="689" y="765"/>
      <point x="708" y="877" type="qcurve" smooth="yes"/>
      <point x="727" y="986" type="line" smooth="yes"/>
      <point x="738" y="1044"/>
      <point x="803" y="1098"/>
      <point x="869" y="1098" type="qcurve" smooth="yes"/>
      <point x="938" y="1098" type="line"/>
      <point x="999" y="1448" type="line"/>
      <point x="666" y="1448" type="line" smooth="yes"/>
      <point x="530" y="1448"/>
      <point x="342" y="1300"/>
      <point x="319" y="1164" type="qcurve" smooth="yes"/>
      <point x="279" y="937" type="line" smooth="yes"/>
      <point x="265" y="856"/>
      <point x="165" y="759"/>
      <point x="58" y="759" type="qcurve"/>
      <point x="1" y="435" type="line"/>
      <point x="108" y="435"/>
      <point x="174" y="339"/>
      <point x="160" y="257" type="qcurve" smooth="yes"/>
    </contour>
  </outline>
</glyph>
<glyph name="braceright" format="2">
  <advance width="893"/>
  <unicode hex="007D"/>
  <outline>
    <contour>
      <point x="882" y="1174" type="line" smooth="yes"/>
      <point x="903.883" y="1302.28"/>
      <point x="766.828" y="1448"/>
      <point x="631" y="1448" type="qcurve" smooth="yes"/>
      <point x="298" y="1448" type="line"/>
      <point x="237" y="1098" type="line"/>
      <point x="306" y="1098" type="line" smooth="yes"/>
      <point x="371.65" y="1098"/>
      <point x="418.81" y="1044.1"/>
      <point x="409" y="986" type="qcurve" smooth="yes"/>
      <point x="389" y="875" type="line" smooth="yes"/>
      <point x="369.38" y="763.319"/>
      <point x="448.693" y="622.166"/>
      <point x="540" y="595" type="qcurve"/>
      <point x="438.884" y="567.834"/>
      <point x="310.865" y="426.681"/>
      <point x="292" y="315" type="qcurve" smooth="yes"/>
      <point x="273" y="206" type="line" smooth="yes"/>
      <point x="262.436" y="147.896"/>
      <point x="196.65" y="94"/>
      <point x="131" y="94" type="qcurve" smooth="yes"/>
      <point x="62" y="94" type="line"/>
      <point x="1" y="-256" type="line"/>
      <point x="334" y="-256" type="line" smooth="yes"/>
      <point x="469.828" y="-256"/>
      <point x="657.607" y="-107.828"/>
      <point x="681" y="28" type="qcurve" smooth="yes"/>
      <point x="721" y="255" type="line" smooth="yes"/>
      <point x="735.337" y="336.497"/>
      <point x="834.847" y="433"/>
      <point x="942" y="433" type="qcurve"/>
      <point x="999" y="757" type="line"/>
      <point x="891.847" y="757"/>
      <point x="825.663" y="852.749"/>
      <point x="840" y="935" type="qcurve" smooth="yes"/>
    </contour>
  </outline>
</glyph>
<glyph name="asciitilde" format="2">
  <advance width="999"/>
  <unicode hex="007E"/>
  <outline>
    <contour>
      <point x="12" y="445" type="qcurve"/>
      <point x="290" y="397" type="line"/>
      <point x="293" y="407"/>
      <point x="306" y="428"/>
      <point x="326" y="446"/>
      <point x="352" y="458"/>
      <point x="369" y="458" type="qcurve" smooth="yes"/>
      <point x="402" y="458"/>
      <point x="457" y="442"/>
      <point x="514" y="423"/>
      <point x="582" y="407"/>
      <point x="630" y="407" type="qcurve" smooth="yes"/>
      <point x="689" y="407"/>
      <point x="789" y="454"/>
      <point x="870" y="539"/>
      <point x="933" y="658"/>
      <point x="955" y="730" type="qcurve"/>
      <point x="677" y="778" type="line"/>
      <point x="674" y="768"/>
      <point x="661" y="747"/>
      <point x="641" y="729"/>
      <point x="615" y="717"/>
      <point x="598" y="717" type="qcurve" smooth="yes"/>
      <point x="564" y="717"/>
      <point x="511" y="733"/>
      <point x="455" y="752"/>
      <point x="387" y="768"/>
      <point x="337" y="768" type="qcurve" smooth="yes"/>
      <point x="279" y="768"/>
      <point x="180" y="726"/>
      <point x="98" y="644"/>
      <point x="35" y="523"/>
    </contour>
  </outline>
</glyph>
<glyph name="exclamdown" format="2">
  <advance width="718"/>
  <unicode hex="00A1"/>
  <outline>
    <contour>
      <point x="828" y="883" type="line" smooth="yes"/>
      <point x="843.847" y="973.552"/>
      <point x="802.552" y="1024"/>
      <point x="712" y="1024" type="qcurve" smooth="yes"/>
      <point x="424" y="1024" type="line" smooth="yes"/>
      <point x="334" y="1024"/>
      <point x="273.75" y="973"/>
      <point x="258" y="883" type="qcurve" smooth="yes"/>
      <point x="243" y="794" type="line" smooth="yes"/>
      <point x="227.153" y="704.203"/>
      <point x="269.448" y="654"/>
      <point x="360" y="654" type="qcurve" smooth="yes"/>
      <point x="647" y="654" type="line" smooth="yes"/>
      <point x="737" y="654"/>
      <point x="797.25" y="704.25"/>
      <point x="813" y="792" type="qcurve" smooth="yes"/>
    </contour>
    <contour>
      <point x="724" y="556" type="line"/>
      <point x="248" y="556" type="line"/>
      <point x="38" y="-382" type="line"/>
      <point x="608" y="-382" type="line"/>
    </contour>
  </outline>
</glyph>
<glyph name="cent" format="2">
  <advance width="1371"/>
  <unicode hex="00A2"/>
  <outline>
    <contour>
      <point x="527" y="-100" type="line"/>
      <point x="589" y="-100" type="line"/>
      <point x="630" y="136" type="line"/>
      <point x="908" y="136" type="line" smooth="yes"/>
      <point x="1086.09" y="136"/>
      <point x="1253.34" y="259.608"/>
      <point x="1279" y="406" type="qcurve" smooth="yes"/>
      <point x="1298" y="516" type="line"/>
      <point x="793" y="624" type="line"/>
      <point x="774" y="518" type="line"/>
      <point x="774" y="518"/>
      <point x="774" y="518"/>
      <point x="774" y="518" type="qcurve"/>
      <point x="696" y="518" type="line"/>
      <point x="747" y="806" type="line"/>
      <point x="821" y="806" type="line"/>
      <point x="821" y="806"/>
      <point x="821" y="806"/>
      <point x="821" y="806" type="qcurve"/>
      <point x="803" y="702" type="line"/>
      <point x="1344" y="800" type="line"/>
      <point x="1367" y="932" type="line" smooth="yes"/>
      <point x="1391.15" y="1070.85"/>
      <point x="1264.07" y="1188"/>
      <point x="1089" y="1188" type="qcurve" smooth="yes"/>
      <point x="813" y="1188" type="line"/>
      <point x="850" y="1400" type="line"/>
      <point x="788" y="1400" type="line"/>
      <point x="751" y="1188" type="line"/>
      <point x="473" y="1188" type="line" smooth="yes"/>
      <point x="297.933" y="1188"/>
      <point x="126.147" y="1068.36"/>
      <point x="102" y="928" type="qcurve" smooth="yes"/>
      <point x="11" y="406" type="line" smooth="yes"/>
      <point x="-14.6564" y="259.608"/>
      <point x="109.914" y="136"/>
      <point x="288" y="136" type="qcurve" smooth="yes"/>
      <point x="568" y="136" type="line"/>
    </contour>
    <contour>
      <point x="685" y="806" type="line"/>
      <point x="634" y="518" type="line"/>
      <point x="554" y="518" type="line"/>
      <point x="554" y="518"/>
      <point x="554" y="518"/>
      <point x="554" y="518" type="qcurve"/>
      <point x="605" y="806" type="line"/>
      <point x="605" y="806"/>
      <point x="605" y="806"/>
      <point x="605" y="806" type="qcurve"/>
    </contour>
  </outline>
</glyph>
<glyph name="sterling" format="2">
  <advance width="1391"/>
  <unicode hex="00A3"/>
  <outline>
    <contour>
      <point x="-78" y="0" type="line"/>
      <point x="854" y="0" type="line" smooth="yes"/>
      <point x="1053.21" y="0"/>
      <point x="1292.8" y="142.822"/>
      <point x="1326" y="336" type="qcurve" smooth="yes"/>
      <point x="1335" y="388" type="line"/>
      <point x="776" y="468" type="line"/>
      <point x="766" y="404" type="line" smooth="yes"/>
      <point x="762.982" y="382.871"/>
      <point x="740.129" y="364"/>
      <point x="719" y="364" type="qcurve" smooth="yes"/>
      <point x="625" y="364" type="line"/>
      <point x="646.883" y="397.957"/>
      <point x="677.436" y="481.933"/>
      <point x="688" y="534" type="qcurve" smooth="yes"/>
      <point x="694" y="563" type="line"/>
      <point x="835" y="563" type="line"/>
      <point x="925" y="805" type="line"/>
      <point x="735" y="805" type="line"/>
      <point x="771" y="1013" type="line" smooth="yes"/>
      <point x="774.773" y="1035.64"/>
      <point x="795.362" y="1054"/>
      <point x="818" y="1054" type="qcurve" smooth="yes"/>
      <point x="832" y="1054" type="line" smooth="yes"/>
      <point x="853.883" y="1054"/>
      <point x="868.773" y="1035.88"/>
      <point x="865" y="1014" type="qcurve" smooth="yes"/>
      <point x="847" y="906" type="line"/>
      <point x="1431" y="980" type="line"/>
      <point x="1449" y="1084" type="line" smooth="yes"/>
      <point x="1484.25" y="1285"/>
      <point x="1281" y="1418"/>
      <point x="1092" y="1418" type="qcurve" smooth="yes"/>
      <point x="680" y="1418" type="line" smooth="yes"/>
      <point x="491" y="1418"/>
      <point x="245.5" y="1285"/>
      <point x="211" y="1084" type="qcurve" smooth="yes"/>
      <point x="163" y="805" type="line"/>
      <point x="113" y="805" type="line"/>
      <point x="72" y="563" type="line"/>
      <point x="121" y="563" type="line"/>
      <point x="95" y="414" type="line" smooth="yes"/>
      <point x="90.4724" y="388.344"/>
      <point x="62.6564" y="364"/>
      <point x="37" y="364" type="qcurve" smooth="yes"/>
      <point x="-15" y="364" type="line"/>
    </contour>
  </outline>
  <guideline angle="0" x="0" y="986"/>
  <guideline angle="90" x="661" y="0"/>
</glyph>
<glyph name="currency" format="2">
  <advance width="1428"/>
  <unicode hex="00A4"/>
  <outline>
    <contour>
      <point x="5" y="-42" type="line"/>
      <point x="278" y="191" type="line"/>
      <point x="296" y="189"/>
      <point x="336" y="186"/>
      <point x="359" y="186" type="qcurve" smooth="yes"/>
      <point x="895" y="186" type="line" smooth="yes"/>
      <point x="918" y="186"/>
      <point x="959" y="189"/>
      <point x="979" y="191" type="qcurve"/>
      <point x="1171" y="-42" type="line"/>
      <point x="1372" y="129" type="line"/>
      <point x="1208" y="328" type="line"/>
      <point x="1222" y="354"/>
      <point x="1241" y="415"/>
      <point x="1248" y="450" type="qcurve" smooth="yes"/>
      <point x="1341" y="984" type="line" smooth="yes"/>
      <point x="1347" y="1017"/>
      <point x="1348" y="1073"/>
      <point x="1343" y="1097" type="qcurve"/>
      <point x="1575" y="1295" type="line"/>
      <point x="1434" y="1466" type="line"/>
      <point x="1160" y="1233" type="line"/>
      <point x="1142" y="1235"/>
      <point x="1102" y="1238"/>
      <point x="1079" y="1238" type="qcurve" smooth="yes"/>
      <point x="543" y="1238" type="line" smooth="yes"/>
      <point x="520" y="1238"/>
      <point x="480" y="1235"/>
      <point x="460" y="1233" type="qcurve"/>
      <point x="268" y="1466" type="line"/>
      <point x="67" y="1295" type="line"/>
      <point x="230" y="1097" type="line"/>
      <point x="217" y="1073"/>
      <point x="199" y="1016"/>
      <point x="193" y="984" type="qcurve" smooth="yes"/>
      <point x="100" y="450" type="line" smooth="yes"/>
      <point x="94" y="414"/>
      <point x="92" y="354"/>
      <point x="97" y="328" type="qcurve"/>
      <point x="-136" y="129" type="line"/>
    </contour>
    <contour>
      <point x="644" y="568" type="line"/>
      <point x="644" y="568"/>
      <point x="644" y="568"/>
      <point x="644" y="568" type="qcurve"/>
      <point x="694" y="856" type="line"/>
      <point x="694" y="856"/>
      <point x="694" y="856"/>
      <point x="694" y="856" type="qcurve"/>
      <point x="794" y="856" type="line"/>
      <point x="794" y="856"/>
      <point x="794" y="856"/>
      <point x="794" y="856" type="qcurve"/>
      <point x="744" y="568" type="line"/>
      <point x="744" y="568"/>
      <point x="744" y="568"/>
      <point x="744" y="568" type="qcurve"/>
    </contour>
  </outline>
</glyph>
<glyph name="yen" format="2">
  <advance width="1389"/>
  <unicode hex="00A5"/>
  <outline>
    <contour>
      <point x="291" y="0" type="line"/>
      <point x="863" y="0" type="line"/>
      <point x="916" y="305" type="line"/>
      <point x="1192" y="305" type="line"/>
      <point x="1220" y="465" type="line"/>
      <point x="944" y="465" type="line"/>
      <point x="956" y="535" type="line"/>
      <point x="1232" y="535" type="line"/>
      <point x="1260" y="695" type="line"/>
      <point x="1061" y="695" type="line"/>
      <point x="1525" y="1400" type="line"/>
      <point x="990" y="1400" type="line"/>
      <point x="762" y="953" type="line"/>
      <point x="690" y="1400" type="line"/>
      <point x="117" y="1400" type="line"/>
      <point x="337" y="695" type="line"/>
      <point x="136" y="695" type="line"/>
      <point x="108" y="535" type="line"/>
      <point x="384" y="535" type="line"/>
      <point x="384" y="535" type="line"/>
      <point x="372" y="465" type="line"/>
      <point x="96" y="465" type="line"/>
      <point x="68" y="305" type="line"/>
      <point x="344" y="305" type="line"/>
    </contour>
  </outline>
</glyph>
<glyph name="brokenbar" format="2">
  <advance width="565"/>
  <unicode hex="00A6"/>
  <outline>
    <contour>
      <point x="229" y="1520" type="line"/>
      <point x="90" y="720" type="line"/>
      <point x="490" y="720" type="line"/>
      <point x="629" y="1520" type="line"/>
    </contour>
    <contour>
      <point x="20" y="320" type="line"/>
      <point x="-120" y="-480" type="line"/>
      <point x="280" y="-480" type="line"/>
      <point x="420" y="320" type="line"/>
    </contour>
  </outline>
</glyph>
<glyph name="section" format="2">
  <advance width="1407"/>
  <unicode hex="00A7"/>
  <outline>
    <contour>
      <point x="242" y="-150" type="qcurve" smooth="yes"/>
      <point x="856" y="-150" type="line" smooth="yes"/>
      <point x="987" y="-150"/>
      <point x="1149" y="-63"/>
      <point x="1174" y="82" type="qcurve" smooth="yes"/>
      <point x="1212" y="298" type="line" smooth="yes"/>
      <point x="1214" y="308"/>
      <point x="1215" y="326"/>
      <point x="1216" y="335" type="qcurve"/>
      <point x="1239" y="350"/>
      <point x="1276" y="390"/>
      <point x="1306" y="441"/>
      <point x="1328" y="504"/>
      <point x="1335" y="542" type="qcurve" smooth="yes"/>
      <point x="1368" y="734" type="line" smooth="yes"/>
      <point x="1393" y="876"/>
      <point x="1260" y="992"/>
      <point x="1135" y="992" type="qcurve" smooth="yes"/>
      <point x="711" y="992" type="line"/>
      <point x="711" y="992"/>
      <point x="711" y="992"/>
      <point x="711" y="992" type="qcurve"/>
      <point x="735" y="1128" type="line"/>
      <point x="735" y="1128"/>
      <point x="735" y="1128"/>
      <point x="735" y="1128" type="qcurve"/>
      <point x="815" y="1128" type="line"/>
      <point x="815" y="1128"/>
      <point x="815" y="1128"/>
      <point x="815" y="1128" type="qcurve"/>
      <point x="803" y="1058" type="line"/>
      <point x="1345" y="1140" type="line"/>
      <point x="1352" y="1178" type="line" smooth="yes"/>
      <point x="1376" y="1317"/>
      <point x="1237" y="1400"/>
      <point x="1112" y="1400" type="qcurve" smooth="yes"/>
      <point x="540" y="1400" type="line" smooth="yes"/>
      <point x="415" y="1400"/>
      <point x="243" y="1314"/>
      <point x="219" y="1174" type="qcurve" smooth="yes"/>
      <point x="185" y="978" type="line" smooth="yes"/>
      <point x="183" y="967"/>
      <point x="181" y="946"/>
      <point x="179" y="935" type="qcurve"/>
      <point x="157" y="920"/>
      <point x="120" y="880"/>
      <point x="90" y="830"/>
      <point x="68" y="770"/>
      <point x="62" y="734" type="qcurve" smooth="yes"/>
      <point x="29" y="542" type="line" smooth="yes"/>
      <point x="3" y="399"/>
      <point x="130" y="284"/>
      <point x="260" y="284" type="qcurve" smooth="yes"/>
      <point x="666" y="284" type="line"/>
      <point x="666" y="284"/>
      <point x="666" y="284"/>
      <point x="666" y="284" type="qcurve"/>
      <point x="637" y="122" type="line"/>
      <point x="637" y="122"/>
      <point x="637" y="122"/>
      <point x="637" y="122" type="qcurve"/>
      <point x="557" y="122" type="line"/>
      <point x="557" y="122"/>
      <point x="557" y="122"/>
      <point x="557" y="122" type="qcurve"/>
      <point x="571" y="200" type="line"/>
      <point x="12" y="116" type="line"/>
      <point x="6" y="82" type="line" smooth="yes"/>
      <point x="-19" y="-63"/>
      <point x="112" y="-150"/>
    </contour>
    <contour>
      <point x="555" y="556" type="line"/>
      <point x="555" y="556"/>
      <point x="555" y="556"/>
      <point x="555" y="556" type="qcurve"/>
      <point x="584" y="720" type="line"/>
      <point x="584" y="720"/>
      <point x="584" y="720"/>
      <point x="584" y="720" type="qcurve"/>
      <point x="822" y="720" type="line"/>
      <point x="822" y="720"/>
      <point x="822" y="720"/>
      <point x="822" y="720" type="qcurve"/>
      <point x="793" y="556" type="line"/>
      <point x="793" y="556"/>
      <point x="793" y="556"/>
      <point x="793" y="556" type="qcurve"/>
    </contour>
  </outline>
</glyph>
<glyph name="dieresis" format="2">
  <advance width="904"/>
  <unicode hex="00A8"/>
  <outline>
    <contour>
      <point x="212" y="1110" type="qcurve" smooth="yes"/>
      <point x="344" y="1110" type="line" smooth="yes"/>
      <point x="425" y="1110"/>
      <point x="459" y="1139"/>
      <point x="473" y="1220" type="qcurve" smooth="yes"/>
      <point x="495" y="1342" type="line" smooth="yes"/>
      <point x="509" y="1422"/>
      <point x="485" y="1450"/>
      <point x="404" y="1450" type="qcurve" smooth="yes"/>
      <point x="272" y="1450" type="line" smooth="yes"/>
      <point x="191" y="1450"/>
      <point x="157" y="1422"/>
      <point x="143" y="1342" type="qcurve" smooth="yes"/>
      <point x="121" y="1220" type="line" smooth="yes"/>
      <point x="107" y="1139"/>
      <point x="131" y="1110"/>
    </contour>
    <contour>
      <point x="712" y="1110" type="qcurve" smooth="yes"/>
      <point x="844" y="1110" type="line" smooth="yes"/>
      <point x="925" y="1110"/>
      <point x="959" y="1139"/>
      <point x="973" y="1220" type="qcurve" smooth="yes"/>
      <point x="995" y="1342" type="line" smooth="yes"/>
      <point x="1009" y="1422"/>
      <point x="985" y="1450"/>
      <point x="904" y="1450" type="qcurve" smooth="yes"/>
      <point x="772" y="1450" type="line" smooth="yes"/>
      <point x="691" y="1450"/>
      <point x="657" y="1422"/>
      <point x="643" y="1342" type="qcurve" smooth="yes"/>
      <point x="621" y="1220" type="line" smooth="yes"/>
      <point x="607" y="1139"/>
      <point x="631" y="1110"/>
    </contour>
  </outline>
</glyph>
<glyph name="copyright" format="2">
  <advance width="1639"/>
  <unicode hex="00A9"/>
  <outline>
    <contour>
      <point x="327" y="548" type="line" smooth="yes"/>
      <point x="301" y="402"/>
      <point x="426" y="278"/>
      <point x="604" y="278" type="qcurve" smooth="yes"/>
      <point x="890" y="278" type="line" smooth="yes"/>
      <point x="1068" y="278"/>
      <point x="1235" y="402"/>
      <point x="1261" y="548" type="qcurve"/>
      <point x="1265" y="575" type="line"/>
      <point x="857" y="662" type="line"/>
      <point x="847" y="610" type="line"/>
      <point x="847" y="610"/>
      <point x="847" y="610"/>
      <point x="847" y="610" type="qcurve"/>
      <point x="771" y="610" type="line"/>
      <point x="771" y="610"/>
      <point x="771" y="610"/>
      <point x="771" y="610" type="qcurve"/>
      <point x="803" y="790" type="line"/>
      <point x="803" y="790"/>
      <point x="803" y="790"/>
      <point x="803" y="790" type="qcurve"/>
      <point x="875" y="790" type="line"/>
      <point x="875" y="790"/>
      <point x="875" y="790"/>
      <point x="875" y="790" type="qcurve"/>
      <point x="867" y="745" type="line"/>
      <point x="1306" y="832" type="line"/>
      <point x="1312" y="866" type="line" smooth="yes"/>
      <point x="1336" y="1005"/>
      <point x="1210" y="1122"/>
      <point x="1035" y="1122" type="qcurve" smooth="yes"/>
      <point x="753" y="1122" type="line" smooth="yes"/>
      <point x="578" y="1122"/>
      <point x="406" y="1002"/>
      <point x="381" y="862" type="qcurve" smooth="yes"/>
    </contour>
    <contour>
      <point x="129" y="1044" type="qcurve" smooth="yes"/>
      <point x="11" y="368" type="line" smooth="yes"/>
      <point x="-25" y="160"/>
      <point x="165" y="22"/>
      <point x="363" y="22" type="qcurve" smooth="yes"/>
      <point x="1039" y="22" type="line" smooth="yes"/>
      <point x="1238" y="22"/>
      <point x="1477" y="160"/>
      <point x="1513" y="368" type="qcurve" smooth="yes"/>
      <point x="1631" y="1044" type="line" smooth="yes"/>
      <point x="1667" y="1251"/>
      <point x="1474" y="1378"/>
      <point x="1276" y="1378" type="qcurve" smooth="yes"/>
      <point x="600" y="1378" type="line" smooth="yes"/>
      <point x="403" y="1378"/>
      <point x="164" y="1244"/>
    </contour>
    <contour>
      <point x="324" y="1050" type="line" smooth="yes"/>
      <point x="341" y="1146"/>
      <point x="465" y="1208"/>
      <point x="570" y="1208" type="qcurve" smooth="yes"/>
      <point x="1246" y="1208" type="line" smooth="yes"/>
      <point x="1352" y="1208"/>
      <point x="1455" y="1146"/>
      <point x="1438" y="1051" type="qcurve" smooth="yes"/>
      <point x="1319" y="366" type="line" smooth="yes"/>
      <point x="1300" y="260"/>
      <point x="1175" y="192"/>
      <point x="1069" y="192" type="qcurve" smooth="yes"/>
      <point x="393" y="192" type="line" smooth="yes"/>
      <point x="287" y="192"/>
      <point x="187" y="261"/>
      <point x="205" y="367" type="qcurve" smooth="yes"/>
    </contour>
  </outline>
</glyph>
<glyph name="ordfeminine" format="2">
  <advance width="842"/>
  <unicode hex="00AA"/>
  <outline>
    <contour>
      <point x="248" y="784" type="qcurve" smooth="yes"/>
      <point x="300" y="784" type="line" smooth="yes"/>
      <point x="369" y="784"/>
      <point x="463" y="829"/>
      <point x="491" y="889" type="qcurve"/>
      <point x="474" y="793" type="line"/>
      <point x="814" y="793" type="line"/>
      <point x="901" y="1292" type="line" smooth="yes"/>
      <point x="920" y="1402"/>
      <point x="826" y="1472"/>
      <point x="739" y="1472" type="qcurve" smooth="yes"/>
      <point x="391" y="1472" type="line" smooth="yes"/>
      <point x="304" y="1472"/>
      <point x="186" y="1401"/>
      <point x="167" y="1294" type="qcurve" smooth="yes"/>
      <point x="164" y="1276" type="line"/>
      <point x="493" y="1215" type="line"/>
      <point x="502" y="1264" type="line"/>
      <point x="502" y="1264"/>
      <point x="502" y="1264"/>
      <point x="502" y="1264" type="qcurve"/>
      <point x="556" y="1264" type="line"/>
      <point x="556" y="1264"/>
      <point x="556" y="1264"/>
      <point x="556" y="1264" type="qcurve"/>
      <point x="543" y="1187" type="line"/>
      <point x="319" y="1187" type="line" smooth="yes"/>
      <point x="238" y="1187"/>
      <point x="115" y="1124"/>
      <point x="98" y="1028" type="qcurve" smooth="yes"/>
      <point x="84" y="950" type="line" smooth="yes"/>
      <point x="67" y="853"/>
      <point x="167" y="784"/>
    </contour>
    <contour>
      <point x="427" y="964" type="qcurve"/>
      <point x="439" y="1035" type="line"/>
      <point x="439" y="1035"/>
      <point x="439" y="1035"/>
      <point x="439" y="1035" type="qcurve"/>
      <point x="516" y="1035" type="line"/>
      <point x="504" y="964" type="line"/>
      <point x="427" y="964" type="line"/>
      <point x="427" y="964"/>
      <point x="427" y="964"/>
    </contour>
  </outline>
  <guideline angle="0" x="0" y="36"/>
  <guideline angle="0" x="0" y="36"/>
</glyph>
<glyph name="guillemotleft" format="2">
  <advance width="914"/>
  <unicode hex="00AB"/>
  <outline>
    <contour>
      <point x="57" y="130" type="line"/>
      <point x="346" y="130" type="line"/>
      <point x="287" y="512" type="line"/>
      <point x="479" y="894" type="line"/>
      <point x="190" y="894" type="line"/>
      <point x="-2" y="512" type="line"/>
    </contour>
    <contour>
      <point x="501" y="130" type="line"/>
      <point x="790" y="130" type="line"/>
      <point x="731" y="512" type="line"/>
      <point x="923" y="894" type="line"/>
      <point x="634" y="894" type="line"/>
      <point x="442" y="512" type="line"/>
    </contour>
  </outline>
</glyph>
<glyph name="logicalnot" format="2">
  <advance width="999"/>
  <unicode hex="00AC"/>
  <outline>
    <contour>
      <point x="869" y="232" type="line"/>
      <point x="993" y="942" type="line"/>
      <point x="99" y="942" type="line"/>
      <point x="49" y="652" type="line"/>
      <point x="621" y="652" type="line"/>
      <point x="547" y="232" type="line"/>
    </contour>
  </outline>
</glyph>
<glyph name="registered" format="2">
  <advance width="684"/>
  <unicode hex="00AE"/>
  <outline>
    <contour>
      <point x="97" y="1058" type="line" smooth="yes"/>
      <point x="85" y="989"/>
      <point x="147" y="915"/>
      <point x="216" y="915" type="qcurve" smooth="yes"/>
      <point x="551" y="915" type="line" smooth="yes"/>
      <point x="620" y="915"/>
      <point x="709" y="989"/>
      <point x="721" y="1058" type="qcurve" smooth="yes"/>
      <point x="782" y="1408" type="line" smooth="yes"/>
      <point x="794" y="1477"/>
      <point x="731" y="1550"/>
      <point x="662" y="1550" type="qcurve" smooth="yes"/>
      <point x="327" y="1550" type="line" smooth="yes"/>
      <point x="258" y="1550"/>
      <point x="170" y="1477"/>
      <point x="158" y="1408" type="qcurve" smooth="yes"/>
    </contour>
    <contour>
      <point x="242" y="1393" type="line" smooth="yes"/>
      <point x="249" y="1433"/>
      <point x="294" y="1474"/>
      <point x="333" y="1474" type="qcurve" smooth="yes"/>
      <point x="628" y="1474" type="line" smooth="yes"/>
      <point x="668" y="1474"/>
      <point x="699" y="1433"/>
      <point x="692" y="1393" type="qcurve" smooth="yes"/>
      <point x="636" y="1073" type="line" smooth="yes"/>
      <point x="629" y="1033"/>
      <point x="598" y="991"/>
      <point x="558" y="991" type="qcurve" smooth="yes"/>
      <point x="249" y="991" type="line" smooth="yes"/>
      <point x="210" y="991"/>
      <point x="179" y="1033"/>
      <point x="186" y="1073" type="qcurve" smooth="yes"/>
    </contour>
    <contour>
      <point x="323" y="1400" type="line"/>
      <point x="264" y="1060" type="line"/>
      <point x="391" y="1060" type="line"/>
      <point x="410" y="1169" type="line"/>
      <point x="417" y="1169" type="line"/>
      <point x="452" y="1060" type="line"/>
      <point x="594" y="1060" type="line"/>
      <point x="541" y="1188" type="line"/>
      <point x="541" y="1188" type="line"/>
      <point x="562" y="1196"/>
      <point x="591" y="1229"/>
      <point x="596" y="1259" type="qcurve" smooth="yes"/>
      <point x="607" y="1321" type="line" smooth="yes"/>
      <point x="615" y="1369"/>
      <point x="567" y="1400"/>
      <point x="522" y="1400" type="qcurve" smooth="yes"/>
    </contour>
    <contour>
      <point x="425" y="1257" type="line"/>
      <point x="433" y="1301" type="line"/>
      <point x="463" y="1301" type="line" smooth="yes"/>
      <point x="471" y="1301"/>
      <point x="477" y="1293"/>
      <point x="475" y="1286" type="qcurve"/>
      <point x="473" y="1272" type="line"/>
      <point x="471" y="1264"/>
      <point x="463" y="1257"/>
      <point x="455" y="1257" type="qcurve" smooth="yes"/>
    </contour>
  </outline>
</glyph>
<glyph name="macron" format="2">
  <advance width="814"/>
  <unicode hex="00AF"/>
  <outline>
    <contour>
      <point x="106" y="1136" type="line"/>
      <point x="869" y="1136" type="line"/>
      <point x="917" y="1408" type="line"/>
      <point x="154" y="1408" type="line"/>
    </contour>
  </outline>
  <guideline angle="0" x="0" y="628"/>
</glyph>
<glyph name="degree" format="2">
  <advance width="599"/>
  <unicode hex="00B0"/>
  <outline>
    <contour>
      <point x="116" y="1169" type="line" smooth="yes"/>
      <point x="100.153" y="1078.45"/>
      <point x="179.356" y="996"/>
      <point x="285" y="996" type="qcurve" smooth="yes"/>
      <point x="426" y="996" type="line" smooth="yes"/>
      <point x="533.153" y="996"/>
      <point x="640.153" y="1078.45"/>
      <point x="656" y="1169" type="qcurve" smooth="yes"/>
      <point x="690" y="1364" type="line" smooth="yes"/>
      <point x="705.092" y="1450.02"/>
      <point x="623.889" y="1530"/>
      <point x="519" y="1530" type="qcurve" smooth="yes"/>
      <point x="378" y="1530" type="line" smooth="yes"/>
      <point x="273.865" y="1530"/>
      <point x="165.092" y="1450.02"/>
      <point x="150" y="1364" type="qcurve" smooth="yes"/>
    </contour>
    <contour>
      <point x="348" y="1210" type="qcurve"/>
      <point x="367" y="1316" type="line"/>
      <point x="367" y="1316"/>
      <point x="367" y="1316"/>
      <point x="367" y="1316" type="qcurve"/>
      <point x="457" y="1316" type="line"/>
      <point x="457" y="1316"/>
      <point x="457" y="1316"/>
      <point x="457" y="1316" type="qcurve"/>
      <point x="438" y="1210" type="line"/>
      <point x="438" y="1210"/>
      <point x="438" y="1210"/>
      <point x="438" y="1210" type="qcurve"/>
      <point x="348" y="1210" type="line"/>
      <point x="348" y="1210"/>
      <point x="348" y="1210"/>
    </contour>
  </outline>
</glyph>
<glyph name="uni00B5" format="2">
  <advance width="1279"/>
  <unicode hex="00B5"/>
  <outline>
    <contour>
      <point x="-125" y="-428" type="line"/>
      <point x="304" y="-378" type="line"/>
      <point x="375" y="29" type="line"/>
      <point x="382" y="5"/>
      <point x="425" y="-14"/>
      <point x="449" y="-14" type="qcurve" smooth="yes"/>
      <point x="451" y="-14" type="line" smooth="yes"/>
      <point x="496" y="-14"/>
      <point x="569" y="58"/>
      <point x="603" y="150" type="qcurve"/>
      <point x="577" y="0" type="line"/>
      <point x="1091" y="0" type="line"/>
      <point x="1270" y="1024" type="line"/>
      <point x="756" y="1024" type="line"/>
      <point x="640" y="362" type="line"/>
      <point x="640" y="362"/>
      <point x="640" y="362"/>
      <point x="640" y="362" type="qcurve"/>
      <point x="527" y="362" type="line"/>
      <point x="527" y="362"/>
      <point x="527" y="362"/>
      <point x="527" y="362" type="qcurve"/>
      <point x="643" y="1024" type="line"/>
      <point x="129" y="1024" type="line"/>
    </contour>
  </outline>
</glyph>
<glyph name="paragraph" format="2">
  <advance width="1009"/>
  <unicode hex="00B6"/>
  <outline>
    <contour>
      <point x="809" y="0" type="line"/>
      <point x="1053" y="1400" type="line"/>
      <point x="556" y="1400" type="line" smooth="yes"/>
      <point x="367" y="1400"/>
      <point x="119.25" y="1267"/>
      <point x="84" y="1066" type="qcurve" smooth="yes"/>
      <point x="18" y="686" type="line" smooth="yes"/>
      <point x="0.375" y="585.5"/>
      <point x="36.6562" y="458.5"/>
      <point x="132.094" y="386.5"/>
      <point x="280.5" y="360"/>
      <point x="375" y="360" type="qcurve" smooth="yes"/>
      <point x="400" y="360" type="line"/>
      <point x="337" y="0" type="line"/>
      <point x="529" y="0" type="line"/>
      <point x="745" y="1238" type="line"/>
      <point x="833" y="1238" type="line"/>
      <point x="617" y="0" type="line"/>
    </contour>
  </outline>
  <guideline angle="90" color="0.4,0.4,0.4,1" name="halfwidth" x="504.5" y="0"/>
</glyph>
<glyph name="periodcentered" format="2">
  <advance width="634"/>
  <unicode hex="00B7"/>
  <outline>
    <contour>
      <point x="43" y="523" type="line" smooth="yes"/>
      <point x="27" y="432"/>
      <point x="69" y="382"/>
      <point x="160" y="382" type="qcurve" smooth="yes"/>
      <point x="368" y="382" type="line" smooth="yes"/>
      <point x="458" y="382"/>
      <point x="517" y="433"/>
      <point x="533" y="523" type="qcurve" smooth="yes"/>
      <point x="563" y="692" type="line" smooth="yes"/>
      <point x="579" y="782"/>
      <point x="536" y="832"/>
      <point x="445" y="832" type="qcurve" smooth="yes"/>
      <point x="238" y="832" type="line" smooth="yes"/>
      <point x="148" y="832"/>
      <point x="89" y="782"/>
      <point x="73" y="694" type="qcurve" smooth="yes"/>
    </contour>
  </outline>
</glyph>
<glyph name="cedilla" format="2">
  <advance width="428"/>
  <unicode hex="00B8"/>
  <outline>
    <contour>
      <point x="-30" y="-438" type="qcurve" smooth="yes"/>
      <point x="18" y="-438"/>
      <point x="106" y="-420"/>
      <point x="178" y="-379"/>
      <point x="227" y="-313"/>
      <point x="236" y="-265" type="qcurve" smooth="yes"/>
      <point x="242" y="-228"/>
      <point x="236" y="-163"/>
      <point x="205" y="-113"/>
      <point x="146" y="-81"/>
      <point x="101" y="-78" type="qcurve"/>
      <point x="143" y="0" type="line"/>
      <point x="21" y="0" type="line"/>
      <point x="-81" y="-218" type="line"/>
      <point x="-64" y="-210"/>
      <point x="-42" y="-202"/>
      <point x="-24" y="-202" type="qcurve" smooth="yes"/>
      <point x="-9" y="-202"/>
      <point x="15" y="-229"/>
      <point x="10" y="-256" type="qcurve" smooth="yes"/>
      <point x="5" y="-283"/>
      <point x="-30" y="-315"/>
      <point x="-49" y="-315" type="qcurve" smooth="yes"/>
      <point x="-75" y="-315"/>
      <point x="-93" y="-305"/>
      <point x="-103" y="-297" type="qcurve"/>
      <point x="-163" y="-388" type="line"/>
      <point x="-128" y="-413"/>
      <point x="-83" y="-438"/>
    </contour>
  </outline>
</glyph>
<glyph name="ordmasculine" format="2">
  <advance width="843"/>
  <unicode hex="00BA"/>
  <outline>
    <contour>
      <point x="94" y="956" type="line" smooth="yes"/>
      <point x="78.1534" y="865.448"/>
      <point x="158.356" y="784"/>
      <point x="264" y="784" type="qcurve" smooth="yes"/>
      <point x="618" y="784" type="line" smooth="yes"/>
      <point x="724.399" y="784"/>
      <point x="832.153" y="865.448"/>
      <point x="848" y="956" type="qcurve" smooth="yes"/>
      <point x="909" y="1307" type="line" smooth="yes"/>
      <point x="924.092" y="1392.27"/>
      <point x="842.889" y="1472"/>
      <point x="738" y="1472" type="qcurve" smooth="yes"/>
      <point x="384" y="1472" type="line" smooth="yes"/>
      <point x="279.111" y="1472"/>
      <point x="170.092" y="1392.27"/>
      <point x="155" y="1307" type="qcurve" smooth="yes"/>
    </contour>
    <contour>
      <point x="447" y="1032" type="qcurve"/>
      <point x="481" y="1224" type="line"/>
      <point x="481" y="1224"/>
      <point x="481" y="1224"/>
      <point x="481" y="1224" type="qcurve"/>
      <point x="555" y="1224" type="line"/>
      <point x="555" y="1224"/>
      <point x="555" y="1224"/>
      <point x="555" y="1224" type="qcurve"/>
      <point x="521" y="1032" type="line"/>
      <point x="521" y="1032"/>
      <point x="521" y="1032"/>
      <point x="521" y="1032" type="qcurve"/>
      <point x="447" y="1032" type="line"/>
      <point x="447" y="1032"/>
      <point x="447" y="1032"/>
    </contour>
  </outline>
</glyph>
<glyph name="guillemotright" format="2">
  <advance width="887"/>
  <unicode hex="00BB"/>
  <outline>
    <contour>
      <point x="838" y="894" type="line"/>
      <point x="549" y="894" type="line"/>
      <point x="608" y="512" type="line"/>
      <point x="416" y="130" type="line"/>
      <point x="705" y="130" type="line"/>
      <point x="897" y="512" type="line"/>
    </contour>
    <contour>
      <point x="394" y="894" type="line"/>
      <point x="105" y="894" type="line"/>
      <point x="164" y="512" type="line"/>
      <point x="-28" y="130" type="line"/>
      <point x="261" y="130" type="line"/>
      <point x="453" y="512" type="line"/>
    </contour>
  </outline>
</glyph>
<glyph name="onequarter" format="2">
  <advance width="1604"/>
  <unicode hex="00BC"/>
  <outline>
    <contour>
      <point x="129" y="614" type="line"/>
      <point x="423" y="614" type="line"/>
      <point x="562" y="1412" type="line"/>
      <point x="150" y="1349" type="line"/>
      <point x="116" y="1150" type="line"/>
      <point x="224" y="1157" type="line"/>
    </contour>
    <contour>
      <point x="-15" y="0" type="line"/>
      <point x="288" y="0" type="line"/>
      <point x="1380" y="1400" type="line"/>
      <point x="1077" y="1400" type="line"/>
    </contour>
    <contour>
      <point x="778" y="121" type="line"/>
      <point x="1115" y="121" type="line"/>
      <point x="1094" y="0" type="line"/>
      <point x="1383" y="0" type="line"/>
      <point x="1404" y="121" type="line"/>
      <point x="1464" y="121" type="line"/>
      <point x="1501" y="329" type="line"/>
      <point x="1441" y="329" type="line"/>
      <point x="1520" y="784" type="line"/>
      <point x="1159" y="784" type="line"/>
      <point x="811" y="308" type="line"/>
    </contour>
    <contour>
      <point x="1074" y="320" type="line"/>
      <point x="1176" y="460" type="line"/>
      <point x="1150" y="320" type="line"/>
    </contour>
  </outline>
  <guideline angle="90" color="0.4,0.4,0.4,1" name="halfwidth" x="802" y="0"/>
</glyph>
<glyph name="onehalf" format="2">
  <advance width="1614"/>
  <unicode hex="00BD"/>
  <outline>
    <contour>
      <point x="129" y="614" type="line"/>
      <point x="423" y="614" type="line"/>
      <point x="562" y="1412" type="line"/>
      <point x="150" y="1349" type="line"/>
      <point x="116" y="1150" type="line"/>
      <point x="224" y="1157" type="line"/>
    </contour>
    <contour>
      <point x="-13" y="0" type="line"/>
      <point x="290" y="0" type="line"/>
      <point x="1382" y="1400" type="line"/>
      <point x="1079" y="1400" type="line"/>
    </contour>
    <contour>
      <point x="801" y="0" type="line"/>
      <point x="1223" y="0" type="line" smooth="yes"/>
      <point x="1323.36" y="0"/>
      <point x="1455.38" y="68.81"/>
      <point x="1475" y="182" type="qcurve" smooth="yes"/>
      <point x="1483" y="229" type="line"/>
      <point x="1216" y="259" type="line"/>
      <point x="1206" y="200" type="line"/>
      <point x="1206" y="200"/>
      <point x="1206" y="200"/>
      <point x="1206" y="200" type="qcurve"/>
      <point x="1108" y="200" type="line"/>
      <point x="1109" y="207" type="line"/>
      <point x="1111.26" y="218.319"/>
      <point x="1127.87" y="249.945"/>
      <point x="1149" y="259" type="qcurve" smooth="yes"/>
      <point x="1281" y="318" type="line" smooth="yes"/>
      <point x="1406.26" y="373.84"/>
      <point x="1506.15" y="457.221"/>
      <point x="1522" y="544" type="qcurve" smooth="yes"/>
      <point x="1535" y="615" type="line" smooth="yes"/>
      <point x="1554.62" y="722.908"/>
      <point x="1439.61" y="792"/>
      <point x="1340" y="792" type="qcurve" smooth="yes"/>
      <point x="1166" y="792" type="line" smooth="yes"/>
      <point x="1065.64" y="792"/>
      <point x="931.11" y="722.153"/>
      <point x="913" y="615" type="qcurve" smooth="yes"/>
      <point x="902" y="554" type="line"/>
      <point x="1170" y="523" type="line"/>
      <point x="1183" y="592" type="line"/>
      <point x="1183" y="592"/>
      <point x="1183" y="592"/>
      <point x="1183" y="592" type="qcurve"/>
      <point x="1258" y="592" type="line"/>
      <point x="1258" y="592"/>
      <point x="1258" y="592"/>
      <point x="1258" y="592" type="qcurve"/>
      <point x="1249" y="544" type="line" smooth="yes"/>
      <point x="1247.49" y="535.699"/>
      <point x="1237.32" y="518.528"/>
      <point x="1226" y="514" type="qcurve" smooth="yes"/>
      <point x="1025" y="432" type="line" smooth="yes"/>
      <point x="953.313" y="402.571"/>
      <point x="852.847" y="290.534"/>
      <point x="837" y="203" type="qcurve" smooth="yes"/>
    </contour>
  </outline>
  <guideline angle="90" color="0.4,0.4,0.4,1" name="halfwidth" x="807" y="0"/>
</glyph>
<glyph name="threequarters" format="2">
  <advance width="1872"/>
  <unicode hex="00BE"/>
  <outline>
    <contour>
      <point x="93" y="842" type="line"/>
      <point x="83" y="786" type="line" smooth="yes"/>
      <point x="65" y="683"/>
      <point x="177" y="614"/>
      <point x="269" y="614" type="qcurve" smooth="yes"/>
      <point x="469" y="614" type="line" smooth="yes"/>
      <point x="572" y="614"/>
      <point x="707" y="670"/>
      <point x="728" y="793" type="qcurve" smooth="yes"/>
      <point x="740" y="858" type="line" smooth="yes"/>
      <point x="756" y="947"/>
      <point x="690" y="1022"/>
      <point x="623" y="1027" type="qcurve"/>
      <point x="711" y="1042"/>
      <point x="772" y="1117"/>
      <point x="784" y="1186" type="qcurve" smooth="yes"/>
      <point x="795" y="1246" type="line" smooth="yes"/>
      <point x="809" y="1326"/>
      <point x="726" y="1418"/>
      <point x="608" y="1418" type="qcurve" smooth="yes"/>
      <point x="412" y="1418" type="line" smooth="yes"/>
      <point x="364" y="1418"/>
      <point x="282" y="1409"/>
      <point x="219" y="1376"/>
      <point x="176" y="1309"/>
      <point x="166" y="1252" type="qcurve" smooth="yes"/>
      <point x="157" y="1200" type="line"/>
      <point x="424" y="1153" type="line"/>
      <point x="434" y="1211" type="line"/>
      <point x="434" y="1211"/>
      <point x="434" y="1211"/>
      <point x="434" y="1211" type="qcurve"/>
      <point x="463" y="1211" type="line" smooth="yes"/>
      <point x="483" y="1211"/>
      <point x="509" y="1193"/>
      <point x="506" y="1175" type="qcurve" smooth="yes"/>
      <point x="501" y="1146" type="line" smooth="yes"/>
      <point x="498" y="1129"/>
      <point x="472" y="1108"/>
      <point x="455" y="1108" type="qcurve" smooth="yes"/>
      <point x="418" y="1108" type="line"/>
      <point x="388" y="934" type="line"/>
      <point x="429" y="934" type="line" smooth="yes"/>
      <point x="449" y="934"/>
      <point x="473" y="913"/>
      <point x="470" y="895" type="qcurve" smooth="yes"/>
      <point x="464" y="861" type="line" smooth="yes"/>
      <point x="461" y="841"/>
      <point x="425" y="821"/>
      <point x="403" y="821" type="qcurve" smooth="yes"/>
      <point x="365" y="821" type="line"/>
      <point x="365" y="821"/>
      <point x="365" y="821"/>
      <point x="365" y="821" type="qcurve"/>
      <point x="377" y="890" type="line"/>
    </contour>
    <contour>
      <point x="1345" y="1400" type="line"/>
      <point x="253" y="0" type="line"/>
      <point x="556" y="0" type="line"/>
      <point x="1648" y="1400" type="line"/>
    </contour>
    <contour>
      <point x="1046" y="121" type="line"/>
      <point x="1383" y="121" type="line"/>
      <point x="1362" y="0" type="line"/>
      <point x="1651" y="0" type="line"/>
      <point x="1672" y="121" type="line"/>
      <point x="1732" y="121" type="line"/>
      <point x="1769" y="329" type="line"/>
      <point x="1709" y="329" type="line"/>
      <point x="1788" y="784" type="line"/>
      <point x="1427" y="784" type="line"/>
      <point x="1079" y="308" type="line"/>
    </contour>
    <contour>
      <point x="1342" y="320" type="line"/>
      <point x="1444" y="460" type="line"/>
      <point x="1418" y="320" type="line"/>
    </contour>
  </outline>
</glyph>
<glyph name="questiondown" format="2">
  <advance width="1100"/>
  <unicode hex="00BF"/>
  <outline>
    <contour>
      <point x="1040" y="574" type="line"/>
      <point x="585" y="574" type="line"/>
      <point x="575" y="512" type="line"/>
      <point x="575" y="512"/>
      <point x="575" y="512"/>
      <point x="575" y="512" type="qcurve"/>
      <point x="509" y="512" type="line" smooth="yes"/>
      <point x="383" y="512"/>
      <point x="246" y="332"/>
      <point x="226" y="214" type="qcurve" smooth="yes"/>
      <point x="173" y="-87" type="line" smooth="yes"/>
      <point x="145" y="-247"/>
      <point x="268" y="-382"/>
      <point x="440" y="-382" type="qcurve" smooth="yes"/>
      <point x="796" y="-382" type="line" smooth="yes"/>
      <point x="968" y="-382"/>
      <point x="1141" y="-244"/>
      <point x="1168" y="-85" type="qcurve" smooth="yes"/>
      <point x="1188" y="28" type="line"/>
      <point x="746" y="101" type="line"/>
      <point x="729" y="4" type="line"/>
      <point x="729" y="4"/>
      <point x="729" y="4"/>
      <point x="729" y="4" type="qcurve"/>
      <point x="644" y="4" type="line"/>
      <point x="644" y="4"/>
      <point x="644" y="4"/>
      <point x="644" y="4" type="qcurve"/>
      <point x="669" y="146" type="line"/>
      <point x="669" y="146"/>
      <point x="669" y="146"/>
      <point x="669" y="146" type="qcurve"/>
      <point x="731" y="146" type="line" smooth="yes"/>
      <point x="849" y="146"/>
      <point x="991" y="290"/>
      <point x="1006" y="378" type="qcurve" smooth="yes"/>
    </contour>
    <contour>
      <point x="1135" y="901" type="line" smooth="yes"/>
      <point x="1151" y="992"/>
      <point x="1110" y="1042"/>
      <point x="1019" y="1042" type="qcurve" smooth="yes"/>
      <point x="771" y="1042" type="line" smooth="yes"/>
      <point x="681" y="1042"/>
      <point x="621" y="991"/>
      <point x="605" y="901" type="qcurve" smooth="yes"/>
      <point x="590" y="812" type="line" smooth="yes"/>
      <point x="574" y="722"/>
      <point x="616" y="672"/>
      <point x="707" y="672" type="qcurve" smooth="yes"/>
      <point x="954" y="672" type="line" smooth="yes"/>
      <point x="1044" y="672"/>
      <point x="1104" y="722"/>
      <point x="1120" y="810" type="qcurve" smooth="yes"/>
    </contour>
  </outline>
</glyph>
<glyph name="Atilde" format="2">
  <advance width="1451"/>
  <unicode hex="00C3"/>
  <anchor x="952" y="1983" name="top"/>
  <anchor x="579" y="-150" name="bottom"/>
  <anchor x="763" y="0" name="ogonek_in"/>
  <outline>
    <contour>
      <point x="-130" y="0" type="line"/>
      <point x="445" y="0" type="line"/>
      <point x="479" y="84" type="line"/>
      <point x="759" y="84" type="line"/>
      <point x="763" y="0" type="line"/>
      <point x="1341" y="0" type="line"/>
      <point x="1144" y="1400" type="line"/>
      <point x="554" y="1400" type="line"/>
    </contour>
    <contour>
      <point x="624" y="444" type="line"/>
      <point x="727" y="699" type="line"/>
      <point x="740" y="444" type="line"/>
    </contour>
    <contour>
      <point x="392" y="1528" type="qcurve"/>
      <point x="690" y="1477" type="line"/>
      <point x="697.546" y="1497.37"/>
      <point x="736.779" y="1528"/>
      <point x="773" y="1528" type="qcurve" smooth="yes"/>
      <point x="810.125" y="1528"/>
      <point x="871.219" y="1512.06"/>
      <point x="932.531" y="1492.94"/>
      <point x="1000.75" y="1477"/>
      <point x="1045" y="1477" type="qcurve" smooth="yes"/>
      <point x="1111.75" y="1477"/>
      <point x="1224.38" y="1533.66"/>
      <point x="1315.12" y="1630.59"/>
      <point x="1383.5" y="1759.62"/>
      <point x="1406" y="1832" type="qcurve"/>
      <point x="1108" y="1883" type="line"/>
      <point x="1100.45" y="1862.63"/>
      <point x="1061.22" y="1832"/>
      <point x="1025" y="1832" type="qcurve" smooth="yes"/>
      <point x="987.875" y="1832"/>
      <point x="926.781" y="1847.94"/>
      <point x="865.469" y="1867.06"/>
      <point x="797.25" y="1883"/>
      <point x="753" y="1883" type="qcurve" smooth="yes"/>
      <point x="686.25" y="1883"/>
      <point x="574.469" y="1830.84"/>
      <point x="484.281" y="1736.91"/>
      <point x="415.625" y="1606.38"/>
    </contour>
  </outline>
</glyph>
<glyph name="Aring" format="2">
  <advance width="1451"/>
  <unicode hex="00C5"/>
  <anchor x="962" y="2037" name="top"/>
  <anchor x="579" y="-150" name="bottom"/>
  <anchor x="763" y="0" name="ogonek_in"/>
  <outline>
    <contour>
      <point x="-130" y="0" type="line"/>
      <point x="445" y="0" type="line"/>
      <point x="479" y="84" type="line"/>
      <point x="759" y="84" type="line"/>
      <point x="763" y="0" type="line"/>
      <point x="1341" y="0" type="line"/>
      <point x="1144" y="1400" type="line"/>
      <point x="554" y="1400" type="line"/>
    </contour>
    <contour>
      <point x="624" y="444" type="line"/>
      <point x="727" y="699" type="line"/>
      <point x="740" y="444" type="line"/>
    </contour>
    <contour>
      <point x="861" y="1463" type="qcurve" smooth="yes"/>
      <point x="953" y="1463"/>
      <point x="1069" y="1481"/>
      <point x="1140" y="1531"/>
      <point x="1178" y="1622"/>
      <point x="1191" y="1695" type="qcurve" smooth="yes"/>
      <point x="1204" y="1768"/>
      <point x="1198" y="1859"/>
      <point x="1144" y="1909"/>
      <point x="1035" y="1927"/>
      <point x="943" y="1927" type="qcurve" smooth="yes"/>
      <point x="852" y="1927"/>
      <point x="735" y="1909"/>
      <point x="663" y="1859"/>
      <point x="626" y="1768"/>
      <point x="613" y="1695" type="qcurve" smooth="yes"/>
      <point x="600" y="1622"/>
      <point x="605" y="1531"/>
      <point x="659" y="1481"/>
      <point x="770" y="1463"/>
    </contour>
    <contour>
      <point x="891" y="1634" type="qcurve" smooth="yes"/>
      <point x="865" y="1634"/>
      <point x="844" y="1655"/>
      <point x="852" y="1695" type="qcurve"/>
      <point x="859" y="1736"/>
      <point x="888" y="1756"/>
      <point x="913" y="1756" type="qcurve" smooth="yes"/>
      <point x="939" y="1756"/>
      <point x="959" y="1736"/>
      <point x="952" y="1695" type="qcurve"/>
      <point x="944" y="1655"/>
      <point x="917" y="1634"/>
    </contour>
  </outline>
</glyph>
<glyph name="Ccedilla" format="2">
  <advance width="1325"/>
  <unicode hex="00C7"/>
  <anchor x="835" y="1550" name="top"/>
  <anchor x="565" y="-150" name="bottom"/>
  <anchor x="565" y="0" name="ogrev"/>
  <outline>
    <contour>
      <point x="136" y="1084" type="qcurve" smooth="yes"/>
      <point x="4" y="328" type="line" smooth="yes"/>
      <point x="-32.2208" y="121.24"/>
      <point x="156.786" y="-18"/>
      <point x="356" y="-18" type="qcurve" smooth="yes"/>
      <point x="774" y="-18" type="line" smooth="yes"/>
      <point x="973.214" y="-18"/>
      <point x="1211.78" y="119.73"/>
      <point x="1248" y="328" type="qcurve" smooth="yes"/>
      <point x="1284" y="530" type="line"/>
      <point x="731" y="640" type="line"/>
      <point x="700" y="466" type="line"/>
      <point x="700" y="466"/>
      <point x="700" y="466"/>
      <point x="700" y="466" type="qcurve"/>
      <point x="600" y="466" type="line"/>
      <point x="600" y="466"/>
      <point x="600" y="466"/>
      <point x="600" y="466" type="qcurve"/>
      <point x="682" y="934" type="line"/>
      <point x="682" y="934"/>
      <point x="682" y="934"/>
      <point x="682" y="934" type="qcurve"/>
      <point x="776" y="934" type="line"/>
      <point x="776" y="934"/>
      <point x="776" y="934"/>
      <point x="776" y="934" type="qcurve"/>
      <point x="750" y="786" type="line"/>
      <point x="1340" y="890" type="line"/>
      <point x="1374" y="1084" type="line" smooth="yes"/>
      <point x="1409.25" y="1285"/>
      <point x="1207" y="1418"/>
      <point x="1018" y="1418" type="qcurve" smooth="yes"/>
      <point x="606" y="1418" type="line" smooth="yes"/>
      <point x="417" y="1418"/>
      <point x="171.25" y="1285"/>
    </contour>
    <contour>
      <point x="542" y="-436" type="qcurve" smooth="yes"/>
      <point x="634.816" y="-436"/>
      <point x="749" y="-324.797"/>
      <point x="749" y="-235" type="qcurve" smooth="yes"/>
      <point x="749" y="-168.595"/>
      <point x="678.687" y="-92.319"/>
      <point x="607" y="-81" type="qcurve"/>
      <point x="655" y="15" type="line"/>
      <point x="534" y="15" type="line"/>
      <point x="431" y="-196" type="line"/>
      <point x="440.055" y="-194.491"/>
      <point x="461.699" y="-193.245"/>
      <point x="470" y="-194" type="qcurve" smooth="yes"/>
      <point x="493.393" y="-196.264"/>
      <point x="517" y="-221.362"/>
      <point x="517" y="-244" type="qcurve" smooth="yes"/>
      <point x="517" y="-271.166"/>
      <point x="485.656" y="-306"/>
      <point x="460" y="-306" type="qcurve" smooth="yes"/>
      <point x="445.663" y="-306"/>
      <point x="416.828" y="-294.319"/>
      <point x="404" y="-283" type="qcurve"/>
      <point x="344" y="-369" type="line"/>
      <point x="381.73" y="-399.184"/>
      <point x="489.178" y="-436"/>
    </contour>
  </outline>
  <guideline angle="0" x="0" y="25"/>
</glyph>
<glyph name="Egrave" format="2">
  <advance width="1159"/>
  <unicode hex="00C8"/>
  <anchor x="739" y="1550" name="top"/>
  <anchor x="442" y="-150" name="bottom"/>
  <anchor x="624" y="0" name="ogonek"/>
  <anchor x="973" y="0" name="ogonek_out"/>
  <anchor x="953" y="1476" name="topright"/>
  <outline>
    <contour>
      <point x="-37" y="0" type="line"/>
      <point x="973" y="0" type="line"/>
      <point x="1047" y="424" type="line"/>
      <point x="609" y="424" type="line"/>
      <point x="626" y="520" type="line"/>
      <point x="1010" y="520" type="line"/>
      <point x="1074" y="890" type="line"/>
      <point x="690" y="890" type="line"/>
      <point x="705" y="976" type="line"/>
      <point x="1129" y="976" type="line"/>
      <point x="1203" y="1400" type="line"/>
      <point x="207" y="1400" type="line"/>
    </contour>
    <contour>
      <point x="533" y="1476" type="line"/>
      <point x="953" y="1476" type="line"/>
      <point x="788" y="1776" type="line"/>
      <point x="185" y="1776" type="line"/>
    </contour>
  </outline>
  <guideline angle="90" x="-183" y="0"/>
  <guideline angle="0" x="0" y="1004"/>
</glyph>
<glyph name="Edieresis" format="2">
  <advance width="1159"/>
  <unicode hex="00CB"/>
  <anchor x="807" y="1938" name="top"/>
  <anchor x="442" y="-150" name="bottom"/>
  <anchor x="624" y="0" name="ogonek"/>
  <anchor x="973" y="0" name="ogonek_out"/>
  <outline>
    <contour>
      <point x="-37" y="0" type="line"/>
      <point x="973" y="0" type="line"/>
      <point x="1047" y="424" type="line"/>
      <point x="609" y="424" type="line"/>
      <point x="626" y="520" type="line"/>
      <point x="1010" y="520" type="line"/>
      <point x="1074" y="890" type="line"/>
      <point x="690" y="890" type="line"/>
      <point x="705" y="976" type="line"/>
      <point x="1129" y="976" type="line"/>
      <point x="1203" y="1400" type="line"/>
      <point x="207" y="1400" type="line"/>
    </contour>
    <contour>
      <point x="400" y="1478" type="qcurve" smooth="yes"/>
      <point x="542" y="1478" type="line" smooth="yes"/>
      <point x="623" y="1478"/>
      <point x="658" y="1507"/>
      <point x="672" y="1588" type="qcurve" smooth="yes"/>
      <point x="697" y="1730" type="line" smooth="yes"/>
      <point x="711" y="1810"/>
      <point x="687" y="1838"/>
      <point x="606" y="1838" type="qcurve" smooth="yes"/>
      <point x="464" y="1838" type="line" smooth="yes"/>
      <point x="383" y="1838"/>
      <point x="349" y="1810"/>
      <point x="335" y="1730" type="qcurve" smooth="yes"/>
      <point x="310" y="1588" type="line" smooth="yes"/>
      <point x="296" y="1507"/>
      <point x="319" y="1478"/>
    </contour>
    <contour>
      <point x="910" y="1478" type="qcurve" smooth="yes"/>
      <point x="1052" y="1478" type="line" smooth="yes"/>
      <point x="1133" y="1478"/>
      <point x="1168" y="1507"/>
      <point x="1182" y="1588" type="qcurve" smooth="yes"/>
      <point x="1207" y="1730" type="line" smooth="yes"/>
      <point x="1221" y="1810"/>
      <point x="1197" y="1838"/>
      <point x="1116" y="1838" type="qcurve" smooth="yes"/>
      <point x="974" y="1838" type="line" smooth="yes"/>
      <point x="893" y="1838"/>
      <point x="859" y="1810"/>
      <point x="845" y="1730" type="qcurve" smooth="yes"/>
      <point x="820" y="1588" type="line" smooth="yes"/>
      <point x="806" y="1507"/>
      <point x="829" y="1478"/>
    </contour>
  </outline>
  <guideline angle="90" x="-183" y="0"/>
</glyph>
<glyph name="Igrave" format="2">
  <advance width="735"/>
  <unicode hex="00CC"/>
  <anchor x="520" y="1550" name="top"/>
  <anchor x="223" y="-150" name="bottom"/>
  <anchor x="-37" y="0" name="ogonek"/>
  <anchor x="734" y="1476" name="topright"/>
  <outline>
    <contour>
      <point x="-37" y="0" type="line"/>
      <point x="535" y="0" type="line"/>
      <point x="779" y="1400" type="line"/>
      <point x="207" y="1400" type="line"/>
    </contour>
    <contour>
      <point x="314" y="1476" type="line"/>
      <point x="734" y="1476" type="line"/>
      <point x="569" y="1776" type="line"/>
      <point x="-34" y="1776" type="line"/>
    </contour>
  </outline>
  <guideline angle="0" x="0" y="1004"/>
</glyph>
<glyph name="Idieresis" format="2">
  <advance width="732"/>
  <unicode hex="00CF"/>
  <anchor x="585" y="1938" name="top"/>
  <anchor x="220" y="-150" name="bottom"/>
  <anchor x="273" y="0" name="ogonek"/>
  <outline>
    <contour>
      <point x="-37" y="0" type="line"/>
      <point x="535" y="0" type="line"/>
      <point x="779" y="1400" type="line"/>
      <point x="207" y="1400" type="line"/>
    </contour>
    <contour>
      <point x="88" y="1588" type="line" smooth="yes"/>
      <point x="73.6626" y="1506.5"/>
      <point x="96.5032" y="1478"/>
      <point x="178" y="1478" type="qcurve" smooth="yes"/>
      <point x="320" y="1478" type="line" smooth="yes"/>
      <point x="401.497" y="1478"/>
      <point x="435.663" y="1506.5"/>
      <point x="450" y="1588" type="qcurve" smooth="yes"/>
      <point x="475" y="1730" type="line" smooth="yes"/>
      <point x="488.583" y="1809.99"/>
      <point x="465.497" y="1838"/>
      <point x="384" y="1838" type="qcurve" smooth="yes"/>
      <point x="242" y="1838" type="line" smooth="yes"/>
      <point x="160.503" y="1838"/>
      <point x="126.583" y="1809.99"/>
      <point x="113" y="1730" type="qcurve" smooth="yes"/>
    </contour>
    <contour>
      <point x="598" y="1588" type="line" smooth="yes"/>
      <point x="583.663" y="1506.5"/>
      <point x="606.503" y="1478"/>
      <point x="688" y="1478" type="qcurve" smooth="yes"/>
      <point x="830" y="1478" type="line" smooth="yes"/>
      <point x="911.497" y="1478"/>
      <point x="945.663" y="1506.5"/>
      <point x="960" y="1588" type="qcurve" smooth="yes"/>
      <point x="985" y="1730" type="line" smooth="yes"/>
      <point x="998.583" y="1809.99"/>
      <point x="975.497" y="1838"/>
      <point x="894" y="1838" type="qcurve" smooth="yes"/>
      <point x="752" y="1838" type="line" smooth="yes"/>
      <point x="670.503" y="1838"/>
      <point x="636.583" y="1809.99"/>
      <point x="623" y="1730" type="qcurve" smooth="yes"/>
    </contour>
  </outline>
</glyph>
<glyph name="Eth" format="2">
  <advance width="1358"/>
  <unicode hex="00D0"/>
  <anchor x="611.1" y="1550" name="top"/>
  <anchor x="611.1" y="-150" name="bottom"/>
  <outline>
    <contour>
      <point x="-37" y="0" type="line"/>
      <point x="550" y="0" type="line" smooth="yes"/>
      <point x="700" y="0"/>
      <point x="956" y="57"/>
      <point x="1157" y="201"/>
      <point x="1296" y="447"/>
      <point x="1329" y="635" type="qcurve" smooth="yes"/>
      <point x="1360" y="812"/>
      <point x="1325" y="1095"/>
      <point x="1192" y="1294"/>
      <point x="960" y="1400"/>
      <point x="794" y="1400" type="qcurve" smooth="yes"/>
      <point x="207" y="1400" type="line"/>
      <point x="113" y="862" type="line"/>
      <point x="55" y="862" type="line"/>
      <point x="1" y="550" type="line"/>
      <point x="59" y="550" type="line"/>
    </contour>
    <contour>
      <point x="612" y="444" type="line"/>
      <point x="631" y="550" type="line"/>
      <point x="670" y="550" type="line"/>
      <point x="724" y="862" type="line"/>
      <point x="685" y="862" type="line"/>
      <point x="702" y="956" type="line"/>
      <point x="712" y="956" type="line" smooth="yes"/>
      <point x="737" y="956"/>
      <point x="773" y="930"/>
      <point x="791" y="870"/>
      <point x="789" y="775"/>
      <point x="777" y="706" type="qcurve" smooth="yes"/>
      <point x="765" y="636"/>
      <point x="733" y="536"/>
      <point x="694" y="473"/>
      <point x="649" y="444"/>
      <point x="622" y="444" type="qcurve" smooth="yes"/>
    </contour>
  </outline>
</glyph>
<glyph name="Ntilde" format="2">
  <advance width="1473"/>
  <unicode hex="00D1"/>
  <anchor x="965" y="1983" name="top"/>
  <anchor x="592" y="-150" name="bottom"/>
  <outline>
    <contour>
      <point x="-37" y="0" type="line"/>
      <point x="495" y="0" type="line"/>
      <point x="573" y="446" type="line"/>
      <point x="889" y="0" type="line"/>
      <point x="1273" y="0" type="line"/>
      <point x="1517" y="1400" type="line"/>
      <point x="985" y="1400" type="line"/>
      <point x="907" y="951" type="line"/>
      <point x="589" y="1400" type="line"/>
      <point x="207" y="1400" type="line"/>
    </contour>
    <contour>
      <point x="405" y="1528" type="qcurve"/>
      <point x="703" y="1477" type="line"/>
      <point x="710.546" y="1497.37"/>
      <point x="749.779" y="1528"/>
      <point x="786" y="1528" type="qcurve" smooth="yes"/>
      <point x="823.125" y="1528"/>
      <point x="884.219" y="1512.06"/>
      <point x="945.531" y="1492.94"/>
      <point x="1013.75" y="1477"/>
      <point x="1058" y="1477" type="qcurve" smooth="yes"/>
      <point x="1124.75" y="1477"/>
      <point x="1237.38" y="1533.66"/>
      <point x="1328.12" y="1630.59"/>
      <point x="1396.5" y="1759.62"/>
      <point x="1419" y="1832" type="qcurve"/>
      <point x="1121" y="1883" type="line"/>
      <point x="1113.45" y="1862.63"/>
      <point x="1074.22" y="1832"/>
      <point x="1038" y="1832" type="qcurve" smooth="yes"/>
      <point x="1000.88" y="1832"/>
      <point x="939.781" y="1847.94"/>
      <point x="878.469" y="1867.06"/>
      <point x="810.25" y="1883"/>
      <point x="766" y="1883" type="qcurve" smooth="yes"/>
      <point x="699.25" y="1883"/>
      <point x="587.469" y="1830.84"/>
      <point x="497.281" y="1736.91"/>
      <point x="428.625" y="1606.38"/>
    </contour>
  </outline>
</glyph>
<glyph name="Ograve" format="2">
  <advance width="1375"/>
  <unicode hex="00D2"/>
  <anchor x="841" y="1568" name="top"/>
  <anchor x="565" y="-168" name="bottom"/>
  <anchor x="1304" y="1341" name="horn"/>
  <anchor x="565" y="0" name="ogonek"/>
  <anchor x="1055" y="1518" name="topright"/>
  <outline>
    <contour>
      <point x="136" y="1084" type="qcurve" smooth="yes"/>
      <point x="4" y="328" type="line" smooth="yes"/>
      <point x="-32" y="121"/>
      <point x="157" y="-18"/>
      <point x="356" y="-18" type="qcurve" smooth="yes"/>
      <point x="774" y="-18" type="line" smooth="yes"/>
      <point x="973" y="-18"/>
      <point x="1212" y="120"/>
      <point x="1248" y="328" type="qcurve" smooth="yes"/>
      <point x="1380" y="1084" type="line" smooth="yes"/>
      <point x="1415" y="1285"/>
      <point x="1213" y="1418"/>
      <point x="1024" y="1418" type="qcurve" smooth="yes"/>
      <point x="606" y="1418" type="line" smooth="yes"/>
      <point x="417" y="1418"/>
      <point x="171" y="1285"/>
    </contour>
    <contour>
      <point x="679" y="916" type="line"/>
      <point x="679" y="916"/>
      <point x="679" y="916"/>
      <point x="679" y="916" type="qcurve"/>
      <point x="779" y="916" type="line"/>
      <point x="779" y="916"/>
      <point x="779" y="916"/>
      <point x="779" y="916" type="qcurve"/>
      <point x="703" y="484" type="line"/>
      <point x="703" y="484"/>
      <point x="703" y="484"/>
      <point x="703" y="484" type="qcurve"/>
      <point x="603" y="484" type="line"/>
      <point x="603" y="484"/>
      <point x="603" y="484"/>
      <point x="603" y="484" type="qcurve"/>
    </contour>
    <contour>
      <point x="635" y="1518" type="line"/>
      <point x="1055" y="1518" type="line"/>
      <point x="890" y="1818" type="line"/>
      <point x="287" y="1818" type="line"/>
    </contour>
  </outline>
  <guideline angle="0" x="0" y="1046"/>
</glyph>
<glyph name="Oacute" format="2">
  <advance width="1375"/>
  <unicode hex="00D3"/>
  <anchor x="841" y="1568" name="top"/>
  <anchor x="565" y="-168" name="bottom"/>
  <anchor x="1304" y="1341" name="horn"/>
  <anchor x="565" y="0" name="ogonek"/>
  <anchor x="600" y="1494" name="topright"/>
  <outline>
    <contour>
      <point x="136" y="1084" type="qcurve" smooth="yes"/>
      <point x="4" y="328" type="line" smooth="yes"/>
      <point x="-32" y="121"/>
      <point x="157" y="-18"/>
      <point x="356" y="-18" type="qcurve" smooth="yes"/>
      <point x="774" y="-18" type="line" smooth="yes"/>
      <point x="973" y="-18"/>
      <point x="1212" y="120"/>
      <point x="1248" y="328" type="qcurve" smooth="yes"/>
      <point x="1380" y="1084" type="line" smooth="yes"/>
      <point x="1415" y="1285"/>
      <point x="1213" y="1418"/>
      <point x="1024" y="1418" type="qcurve" smooth="yes"/>
      <point x="606" y="1418" type="line" smooth="yes"/>
      <point x="417" y="1418"/>
      <point x="171" y="1285"/>
    </contour>
    <contour>
      <point x="679" y="916" type="line"/>
      <point x="679" y="916"/>
      <point x="679" y="916"/>
      <point x="679" y="916" type="qcurve"/>
      <point x="779" y="916" type="line"/>
      <point x="779" y="916"/>
      <point x="779" y="916"/>
      <point x="779" y="916" type="qcurve"/>
      <point x="703" y="484" type="line"/>
      <point x="703" y="484"/>
      <point x="703" y="484"/>
      <point x="703" y="484" type="qcurve"/>
      <point x="603" y="484" type="line"/>
      <point x="603" y="484"/>
      <point x="603" y="484"/>
      <point x="603" y="484" type="qcurve"/>
    </contour>
    <contour>
      <point x="520" y="1494" type="line"/>
      <point x="1040" y="1494" type="line"/>
      <point x="1494" y="1794" type="line"/>
      <point x="791" y="1794" type="line"/>
    </contour>
  </outline>
  <guideline angle="0" x="0" y="1022"/>
</glyph>
<glyph name="Ocircumflex" format="2">
  <advance width="1375"/>
  <unicode hex="00D4"/>
  <anchor x="895" y="1874" name="top"/>
  <anchor x="565" y="-168" name="bottom"/>
  <anchor x="1304" y="1341" name="horn"/>
  <anchor x="565" y="0" name="ogonek"/>
  <anchor x="1357" y="1594" name="topright"/>
  <outline>
    <contour>
      <point x="136" y="1084" type="qcurve" smooth="yes"/>
      <point x="4" y="328" type="line" smooth="yes"/>
      <point x="-32.2208" y="121.24"/>
      <point x="156.786" y="-18"/>
      <point x="356" y="-18" type="qcurve" smooth="yes"/>
      <point x="774" y="-18" type="line" smooth="yes"/>
      <point x="973.214" y="-18"/>
      <point x="1211.78" y="119.73"/>
      <point x="1248" y="328" type="qcurve" smooth="yes"/>
      <point x="1380" y="1084" type="line" smooth="yes"/>
      <point x="1415.25" y="1285"/>
      <point x="1213" y="1418"/>
      <point x="1024" y="1418" type="qcurve" smooth="yes"/>
      <point x="606" y="1418" type="line" smooth="yes"/>
      <point x="417" y="1418"/>
      <point x="171.25" y="1285"/>
    </contour>
    <contour>
      <point x="679" y="916" type="line"/>
      <point x="679" y="916"/>
      <point x="679" y="916"/>
      <point x="679" y="916" type="qcurve"/>
      <point x="779" y="916" type="line"/>
      <point x="779" y="916"/>
      <point x="779" y="916"/>
      <point x="779" y="916" type="qcurve"/>
      <point x="703" y="484" type="line"/>
      <point x="703" y="484"/>
      <point x="703" y="484"/>
      <point x="703" y="484" type="qcurve"/>
      <point x="603" y="484" type="line"/>
      <point x="603" y="484"/>
      <point x="603" y="484"/>
      <point x="603" y="484" type="qcurve"/>
    </contour>
    <contour>
      <point x="328" y="1494" type="line"/>
      <point x="802" y="1494" type="line"/>
      <point x="851" y="1592" type="line"/>
      <point x="886" y="1494" type="line"/>
      <point x="1340" y="1494" type="line"/>
      <point x="1149" y="1794" type="line"/>
      <point x="623" y="1794" type="line"/>
    </contour>
  </outline>
</glyph>
<glyph name="Otilde" format="2">
  <advance width="1375"/>
  <unicode hex="00D5"/>
  <anchor x="917" y="2001" name="top"/>
  <anchor x="565" y="-168" name="bottom"/>
  <anchor x="1304" y="1341" name="horn"/>
  <anchor x="565" y="0" name="ogonek"/>
  <outline>
    <contour>
      <point x="136" y="1084" type="qcurve" smooth="yes"/>
      <point x="4" y="328" type="line" smooth="yes"/>
      <point x="-32.2208" y="121.24"/>
      <point x="156.786" y="-18"/>
      <point x="356" y="-18" type="qcurve" smooth="yes"/>
      <point x="774" y="-18" type="line" smooth="yes"/>
      <point x="973.214" y="-18"/>
      <point x="1211.78" y="119.73"/>
      <point x="1248" y="328" type="qcurve" smooth="yes"/>
      <point x="1380" y="1084" type="line" smooth="yes"/>
      <point x="1415.25" y="1285"/>
      <point x="1213" y="1418"/>
      <point x="1024" y="1418" type="qcurve" smooth="yes"/>
      <point x="606" y="1418" type="line" smooth="yes"/>
      <point x="417" y="1418"/>
      <point x="171.25" y="1285"/>
    </contour>
    <contour>
      <point x="679" y="916" type="line"/>
      <point x="679" y="916"/>
      <point x="679" y="916"/>
      <point x="679" y="916" type="qcurve"/>
      <point x="779" y="916" type="line"/>
      <point x="779" y="916"/>
      <point x="779" y="916"/>
      <point x="779" y="916" type="qcurve"/>
      <point x="703" y="484" type="line"/>
      <point x="703" y="484"/>
      <point x="703" y="484"/>
      <point x="703" y="484" type="qcurve"/>
      <point x="603" y="484" type="line"/>
      <point x="603" y="484"/>
      <point x="603" y="484"/>
      <point x="603" y="484" type="qcurve"/>
    </contour>
    <contour>
      <point x="357" y="1546" type="qcurve"/>
      <point x="655" y="1495" type="line"/>
      <point x="662.546" y="1515.37"/>
      <point x="701.779" y="1546"/>
      <point x="738" y="1546" type="qcurve" smooth="yes"/>
      <point x="775.125" y="1546"/>
      <point x="836.219" y="1530.06"/>
      <point x="897.531" y="1510.94"/>
      <point x="965.75" y="1495"/>
      <point x="1010" y="1495" type="qcurve" smooth="yes"/>
      <point x="1076.75" y="1495"/>
      <point x="1189.38" y="1551.66"/>
      <point x="1280.12" y="1648.59"/>
      <point x="1348.5" y="1777.62"/>
      <point x="1371" y="1850" type="qcurve"/>
      <point x="1073" y="1901" type="line"/>
      <point x="1065.45" y="1880.63"/>
      <point x="1026.22" y="1850"/>
      <point x="990" y="1850" type="qcurve" smooth="yes"/>
      <point x="952.875" y="1850"/>
      <point x="891.781" y="1865.94"/>
      <point x="830.469" y="1885.06"/>
      <point x="762.25" y="1901"/>
      <point x="718" y="1901" type="qcurve" smooth="yes"/>
      <point x="651.25" y="1901"/>
      <point x="539.469" y="1848.84"/>
      <point x="449.281" y="1754.91"/>
      <point x="380.625" y="1624.38"/>
    </contour>
  </outline>
</glyph>
<glyph name="Odieresis" format="2">
  <advance width="1375"/>
  <unicode hex="00D6"/>
  <anchor x="909" y="1956" name="top"/>
  <anchor x="565" y="-168" name="bottom"/>
  <anchor x="1380" y="1084" name="horn"/>
  <anchor x="736" y="0" name="ogonek"/>
  <outline>
    <contour>
      <point x="136" y="1084" type="qcurve" smooth="yes"/>
      <point x="4" y="328" type="line" smooth="yes"/>
      <point x="-32.2208" y="121.24"/>
      <point x="156.786" y="-18"/>
      <point x="356" y="-18" type="qcurve" smooth="yes"/>
      <point x="774" y="-18" type="line" smooth="yes"/>
      <point x="973.214" y="-18"/>
      <point x="1211.78" y="119.73"/>
      <point x="1248" y="328" type="qcurve" smooth="yes"/>
      <point x="1380" y="1084" type="line" smooth="yes"/>
      <point x="1415.25" y="1285"/>
      <point x="1213" y="1418"/>
      <point x="1024" y="1418" type="qcurve" smooth="yes"/>
      <point x="606" y="1418" type="line" smooth="yes"/>
      <point x="417" y="1418"/>
      <point x="171.25" y="1285"/>
    </contour>
    <contour>
      <point x="679" y="916" type="line"/>
      <point x="679" y="916"/>
      <point x="679" y="916"/>
      <point x="679" y="916" type="qcurve"/>
      <point x="779" y="916" type="line"/>
      <point x="779" y="916"/>
      <point x="779" y="916"/>
      <point x="779" y="916" type="qcurve"/>
      <point x="703" y="484" type="line"/>
      <point x="703" y="484"/>
      <point x="703" y="484"/>
      <point x="703" y="484" type="qcurve"/>
      <point x="603" y="484" type="line"/>
      <point x="603" y="484"/>
      <point x="603" y="484"/>
      <point x="603" y="484" type="qcurve"/>
    </contour>
    <contour>
      <point x="502" y="1496" type="qcurve" smooth="yes"/>
      <point x="644" y="1496" type="line" smooth="yes"/>
      <point x="725.497" y="1496"/>
      <point x="759.663" y="1524.5"/>
      <point x="774" y="1606" type="qcurve" smooth="yes"/>
      <point x="799" y="1748" type="line" smooth="yes"/>
      <point x="812.583" y="1827.99"/>
      <point x="789.497" y="1856"/>
      <point x="708" y="1856" type="qcurve" smooth="yes"/>
      <point x="566" y="1856" type="line" smooth="yes"/>
      <point x="484.503" y="1856"/>
      <point x="450.583" y="1827.99"/>
      <point x="437" y="1748" type="qcurve" smooth="yes"/>
      <point x="412" y="1606" type="line" smooth="yes"/>
      <point x="397.663" y="1524.5"/>
      <point x="420.503" y="1496"/>
    </contour>
    <contour>
      <point x="1012" y="1496" type="qcurve" smooth="yes"/>
      <point x="1154" y="1496" type="line" smooth="yes"/>
      <point x="1235.5" y="1496"/>
      <point x="1269.66" y="1524.5"/>
      <point x="1284" y="1606" type="qcurve" smooth="yes"/>
      <point x="1309" y="1748" type="line" smooth="yes"/>
      <point x="1322.58" y="1827.99"/>
      <point x="1299.5" y="1856"/>
      <point x="1218" y="1856" type="qcurve" smooth="yes"/>
      <point x="1076" y="1856" type="line" smooth="yes"/>
      <point x="994.503" y="1856"/>
      <point x="960.583" y="1827.99"/>
      <point x="947" y="1748" type="qcurve" smooth="yes"/>
      <point x="922" y="1606" type="line" smooth="yes"/>
      <point x="907.663" y="1524.5"/>
      <point x="930.503" y="1496"/>
    </contour>
  </outline>
</glyph>
<glyph name="Oslash" format="2">
  <advance width="1484"/>
  <unicode hex="00D8"/>
  <anchor x="904" y="1610" name="top"/>
  <outline>
    <contour>
      <point x="190" y="1084" type="qcurve" smooth="yes"/>
      <point x="58" y="328" type="line" smooth="yes"/>
      <point x="22" y="121"/>
      <point x="211" y="-18"/>
      <point x="410" y="-18" type="qcurve" smooth="yes"/>
      <point x="828" y="-18" type="line" smooth="yes"/>
      <point x="1027" y="-18"/>
      <point x="1266" y="120"/>
      <point x="1302" y="328" type="qcurve" smooth="yes"/>
      <point x="1434" y="1084" type="line" smooth="yes"/>
      <point x="1469" y="1285"/>
      <point x="1267" y="1418"/>
      <point x="1078" y="1418" type="qcurve" smooth="yes"/>
      <point x="660" y="1418" type="line" smooth="yes"/>
      <point x="471" y="1418"/>
      <point x="225" y="1285"/>
    </contour>
    <contour>
      <point x="718" y="946" type="line"/>
      <point x="718" y="946"/>
      <point x="718" y="946"/>
      <point x="718" y="946" type="qcurve"/>
      <point x="858" y="946" type="line"/>
      <point x="858" y="946"/>
      <point x="858" y="946"/>
      <point x="858" y="946" type="qcurve"/>
      <point x="772" y="454" type="line"/>
      <point x="772" y="454"/>
      <point x="772" y="454"/>
      <point x="772" y="454" type="qcurve"/>
      <point x="632" y="454" type="line"/>
      <point x="632" y="454"/>
      <point x="632" y="454"/>
      <point x="632" y="454" type="qcurve"/>
    </contour>
    <contour>
      <point x="84" y="-60" type="line"/>
      <point x="1535" y="1334" type="line"/>
      <point x="1407" y="1460" type="line"/>
      <point x="-44" y="66" type="line"/>
    </contour>
  </outline>
  <guideline angle="0" x="0" y="-60"/>
  <guideline angle="0" x="0" y="-60"/>
  <guideline angle="0" x="0" y="1460"/>
</glyph>
<glyph name="Ucircumflex" format="2">
  <advance width="1381"/>
  <unicode hex="00DB"/>
  <anchor x="896" y="1880" name="top"/>
  <anchor x="568" y="-150" name="bottom"/>
  <anchor x="568" y="0" name="ogonek"/>
  <anchor x="1147" y="1400" name="horn"/>
  <anchor x="1358" y="1600" name="topright"/>
  <outline>
    <contour>
      <point x="199" y="1400" type="line"/>
      <point x="12" y="325" type="line" smooth="yes"/>
      <point x="-7" y="219"/>
      <point x="27" y="85"/>
      <point x="120" y="10"/>
      <point x="267" y="-18"/>
      <point x="362" y="-18" type="qcurve" smooth="yes"/>
      <point x="774" y="-18" type="line" smooth="yes"/>
      <point x="967" y="-18"/>
      <point x="1209" y="113"/>
      <point x="1246" y="325" type="qcurve" smooth="yes"/>
      <point x="1433" y="1400" type="line"/>
      <point x="861" y="1400" type="line"/>
      <point x="698" y="466" type="line"/>
      <point x="698" y="466"/>
      <point x="698" y="466"/>
      <point x="698" y="466" type="qcurve"/>
      <point x="608" y="466" type="line"/>
      <point x="608" y="466"/>
      <point x="608" y="466"/>
      <point x="608" y="466" type="qcurve"/>
      <point x="771" y="1400" type="line"/>
    </contour>
    <contour>
      <point x="329" y="1500" type="line"/>
      <point x="803" y="1500" type="line"/>
      <point x="852" y="1598" type="line"/>
      <point x="887" y="1500" type="line"/>
      <point x="1341" y="1500" type="line"/>
      <point x="1150" y="1800" type="line"/>
      <point x="624" y="1800" type="line"/>
    </contour>
  </outline>
</glyph>
<glyph name="Udieresis" format="2">
  <advance width="1381"/>
  <unicode hex="00DC"/>
  <anchor x="909" y="1938" name="top"/>
  <anchor x="543" y="-150" name="bottom"/>
  <anchor x="729" y="0" name="ogonek"/>
  <anchor x="1433" y="1400" name="horn"/>
  <outline>
    <contour>
      <point x="199" y="1400" type="line"/>
      <point x="12" y="325" type="line" smooth="yes"/>
      <point x="-6.75" y="218.875"/>
      <point x="26.5" y="85.1562"/>
      <point x="119.5" y="9.59375"/>
      <point x="266.75" y="-18"/>
      <point x="362" y="-18" type="qcurve" smooth="yes"/>
      <point x="774" y="-18" type="line" smooth="yes"/>
      <point x="966.75" y="-18"/>
      <point x="1208.5" y="112.75"/>
      <point x="1246" y="325" type="qcurve" smooth="yes"/>
      <point x="1433" y="1400" type="line"/>
      <point x="861" y="1400" type="line"/>
      <point x="698" y="466" type="line"/>
      <point x="698" y="466"/>
      <point x="698" y="466"/>
      <point x="698" y="466" type="qcurve"/>
      <point x="608" y="466" type="line"/>
      <point x="608" y="466"/>
      <point x="608" y="466"/>
      <point x="608" y="466" type="qcurve"/>
      <point x="771" y="1400" type="line"/>
    </contour>
    <contour>
      <point x="502" y="1478" type="qcurve" smooth="yes"/>
      <point x="644" y="1478" type="line" smooth="yes"/>
      <point x="725.497" y="1478"/>
      <point x="759.663" y="1506.5"/>
      <point x="774" y="1588" type="qcurve" smooth="yes"/>
      <point x="799" y="1730" type="line" smooth="yes"/>
      <point x="812.583" y="1809.99"/>
      <point x="789.497" y="1838"/>
      <point x="708" y="1838" type="qcurve" smooth="yes"/>
      <point x="566" y="1838" type="line" smooth="yes"/>
      <point x="484.503" y="1838"/>
      <point x="450.583" y="1809.99"/>
      <point x="437" y="1730" type="qcurve" smooth="yes"/>
      <point x="412" y="1588" type="line" smooth="yes"/>
      <point x="397.663" y="1506.5"/>
      <point x="420.503" y="1478"/>
    </contour>
    <contour>
      <point x="1012" y="1478" type="qcurve" smooth="yes"/>
      <point x="1154" y="1478" type="line" smooth="yes"/>
      <point x="1235.5" y="1478"/>
      <point x="1269.66" y="1506.5"/>
      <point x="1284" y="1588" type="qcurve" smooth="yes"/>
      <point x="1309" y="1730" type="line" smooth="yes"/>
      <point x="1322.58" y="1809.99"/>
      <point x="1299.5" y="1838"/>
      <point x="1218" y="1838" type="qcurve" smooth="yes"/>
      <point x="1076" y="1838" type="line" smooth="yes"/>
      <point x="994.503" y="1838"/>
      <point x="960.583" y="1809.99"/>
      <point x="947" y="1730" type="qcurve" smooth="yes"/>
      <point x="922" y="1588" type="line" smooth="yes"/>
      <point x="907.663" y="1506.5"/>
      <point x="930.503" y="1478"/>
    </contour>
  </outline>
</glyph>
<glyph name="Thorn" format="2">
  <advance width="1365"/>
  <unicode hex="00DE"/>
  <outline>
    <contour>
      <point x="-49" y="0" type="line"/>
      <point x="523" y="0" type="line"/>
      <point x="553" y="170" type="line"/>
      <point x="803" y="170" type="line" smooth="yes"/>
      <point x="992" y="170"/>
      <point x="1239" y="295"/>
      <point x="1274" y="496" type="qcurve" smooth="yes"/>
      <point x="1348" y="922" type="line" smooth="yes"/>
      <point x="1383" y="1123"/>
      <point x="1181" y="1256"/>
      <point x="992" y="1256" type="qcurve" smooth="yes"/>
      <point x="742" y="1256" type="line"/>
      <point x="767" y="1400" type="line"/>
      <point x="195" y="1400" type="line"/>
    </contour>
    <contour>
      <point x="633" y="630" type="line"/>
      <point x="657" y="770" type="line"/>
      <point x="712" y="770" type="line" smooth="yes"/>
      <point x="746" y="770"/>
      <point x="768" y="737"/>
      <point x="763" y="710" type="qcurve"/>
      <point x="759" y="690" type="line"/>
      <point x="754" y="663"/>
      <point x="722" y="630"/>
      <point x="688" y="630" type="qcurve" smooth="yes"/>
    </contour>
  </outline>
  <guideline angle="90" color="0.4,0.4,0.4,1" name="halfwidth" x="682.5" y="0"/>
</glyph>
<glyph name="germandbls" format="2">
  <advance width="1261"/>
  <unicode hex="00DF"/>
  <outline>
    <contour>
      <point x="-55" y="0" type="line"/>
      <point x="470" y="0" type="line"/>
      <point x="675" y="1180" type="line"/>
      <point x="675" y="1180"/>
      <point x="675" y="1180"/>
      <point x="675" y="1180" type="qcurve"/>
      <point x="775" y="1180" type="line"/>
      <point x="775" y="1180"/>
      <point x="775" y="1180"/>
      <point x="775" y="1180" type="qcurve"/>
      <point x="748" y="1024" type="line"/>
      <point x="748" y="1024"/>
      <point x="748" y="1024"/>
      <point x="748" y="1024" type="qcurve"/>
      <point x="698" y="1024" type="line"/>
      <point x="632" y="642" type="line"/>
      <point x="682" y="642" type="line"/>
      <point x="682" y="642"/>
      <point x="682" y="642"/>
      <point x="682" y="642" type="qcurve"/>
      <point x="634" y="372" type="line"/>
      <point x="634" y="372"/>
      <point x="634" y="372"/>
      <point x="634" y="372" type="qcurve"/>
      <point x="574" y="372" type="line"/>
      <point x="508" y="-10" type="line"/>
      <point x="814" y="-10" type="line" smooth="yes"/>
      <point x="945.3" y="-10"/>
      <point x="1106.34" y="77.1168"/>
      <point x="1132" y="222" type="qcurve" smooth="yes"/>
      <point x="1225" y="752" type="line" smooth="yes"/>
      <point x="1240.09" y="838.779"/>
      <point x="1196.56" y="931.626"/>
      <point x="1146" y="952" type="qcurve"/>
      <point x="1210.14" y="982.184"/>
      <point x="1283.15" y="1093.98"/>
      <point x="1299" y="1180" type="qcurve" smooth="yes"/>
      <point x="1308" y="1228" type="line" smooth="yes"/>
      <point x="1332.9" y="1359.3"/>
      <point x="1205.98" y="1482"/>
      <point x="1046" y="1482" type="qcurve" smooth="yes"/>
      <point x="510" y="1482" type="line" smooth="yes"/>
      <point x="350.025" y="1482"/>
      <point x="182.638" y="1359.3"/>
      <point x="160" y="1228" type="qcurve" smooth="yes"/>
    </contour>
  </outline>
</glyph>
<glyph name="atilde" format="2">
  <advance width="1275"/>
  <unicode hex="00E3"/>
  <anchor x="809" y="1571" name="top"/>
  <anchor x="508" y="-150" name="bottom"/>
  <anchor x="568" y="0" name="ogonek"/>
  <outline>
    <contour>
      <point x="224" y="-14" type="qcurve" smooth="yes"/>
      <point x="304" y="-14" type="line" smooth="yes"/>
      <point x="410" y="-14"/>
      <point x="551" y="54"/>
      <point x="593" y="146" type="qcurve"/>
      <point x="568" y="0" type="line"/>
      <point x="1092" y="0" type="line"/>
      <point x="1225" y="762" type="line" smooth="yes"/>
      <point x="1254" y="931"/>
      <point x="1110" y="1038"/>
      <point x="977" y="1038" type="qcurve" smooth="yes"/>
      <point x="451" y="1038" type="line" smooth="yes"/>
      <point x="318" y="1038"/>
      <point x="136" y="929"/>
      <point x="107" y="764" type="qcurve" smooth="yes"/>
      <point x="102" y="736" type="line"/>
      <point x="610" y="642" type="line"/>
      <point x="623" y="718" type="line"/>
      <point x="623" y="718"/>
      <point x="623" y="718"/>
      <point x="623" y="718" type="qcurve"/>
      <point x="693" y="718" type="line"/>
      <point x="693" y="718"/>
      <point x="693" y="718"/>
      <point x="693" y="718" type="qcurve"/>
      <point x="673" y="602" type="line"/>
      <point x="331" y="602" type="line" smooth="yes"/>
      <point x="208" y="602"/>
      <point x="18" y="504"/>
      <point x="-8" y="358" type="qcurve" smooth="yes"/>
      <point x="-28" y="240" type="line" smooth="yes"/>
      <point x="-54" y="91"/>
      <point x="100" y="-14"/>
    </contour>
    <contour>
      <point x="510" y="262" type="qcurve"/>
      <point x="529" y="370" type="line"/>
      <point x="529" y="370"/>
      <point x="529" y="370"/>
      <point x="529" y="370" type="qcurve"/>
      <point x="633" y="370" type="line"/>
      <point x="614" y="262" type="line"/>
      <point x="510" y="262" type="line"/>
      <point x="510" y="262"/>
      <point x="510" y="262"/>
    </contour>
    <contour>
      <point x="274" y="1149" type="qcurve"/>
      <point x="553" y="1101" type="line"/>
      <point x="561" y="1121"/>
      <point x="602" y="1152"/>
      <point x="646" y="1152" type="qcurve" smooth="yes"/>
      <point x="676" y="1152"/>
      <point x="735" y="1136"/>
      <point x="800" y="1117"/>
      <point x="873" y="1101"/>
      <point x="917" y="1101" type="qcurve" smooth="yes"/>
      <point x="1036" y="1101"/>
      <point x="1197" y="1273"/>
      <point x="1242" y="1418" type="qcurve"/>
      <point x="963" y="1466" type="line"/>
      <point x="955" y="1446"/>
      <point x="914" y="1415"/>
      <point x="870" y="1415" type="qcurve" smooth="yes"/>
      <point x="840" y="1415"/>
      <point x="781" y="1431"/>
      <point x="717" y="1450"/>
      <point x="643" y="1466"/>
      <point x="599" y="1466" type="qcurve" smooth="yes"/>
      <point x="481" y="1466"/>
      <point x="321" y="1306"/>
    </contour>
  </outline>
  <guideline angle="260.1" color="1,0,0,1" x="569" y="0"/>
</glyph>
<glyph name="aring" format="2">
  <advance width="1272"/>
  <unicode hex="00E5"/>
  <anchor x="818" y="1641" name="top"/>
  <anchor x="505" y="-150" name="bottom"/>
  <anchor x="898" y="0" name="ogonek"/>
  <outline>
    <contour>
      <point x="224" y="-14" type="qcurve" smooth="yes"/>
      <point x="304" y="-14" type="line" smooth="yes"/>
      <point x="409.644" y="-14"/>
      <point x="551.497" y="53.9388"/>
      <point x="593" y="146" type="qcurve"/>
      <point x="568" y="0" type="line"/>
      <point x="1092" y="0" type="line"/>
      <point x="1225" y="762" type="line" smooth="yes"/>
      <point x="1254.43" y="931.03"/>
      <point x="1109.81" y="1038"/>
      <point x="977" y="1038" type="qcurve" smooth="yes"/>
      <point x="451" y="1038" type="line" smooth="yes"/>
      <point x="318.19" y="1038"/>
      <point x="135.675" y="928.503"/>
      <point x="107" y="764" type="qcurve" smooth="yes"/>
      <point x="102" y="736" type="line"/>
      <point x="610" y="642" type="line"/>
      <point x="623" y="718" type="line"/>
      <point x="623" y="718"/>
      <point x="623" y="718"/>
      <point x="623" y="718" type="qcurve"/>
      <point x="693" y="718" type="line"/>
      <point x="693" y="718"/>
      <point x="693" y="718"/>
      <point x="693" y="718" type="qcurve"/>
      <point x="673" y="602" type="line"/>
      <point x="331" y="602" type="line" smooth="yes"/>
      <point x="208" y="602"/>
      <point x="17.5" y="503.5"/>
      <point x="-8" y="358" type="qcurve" smooth="yes"/>
      <point x="-28" y="240" type="line" smooth="yes"/>
      <point x="-54.411" y="90.5892"/>
      <point x="100.246" y="-14"/>
    </contour>
    <contour>
      <point x="510" y="262" type="qcurve"/>
      <point x="529" y="370" type="line"/>
      <point x="529" y="370"/>
      <point x="529" y="370"/>
      <point x="529" y="370" type="qcurve"/>
      <point x="633" y="370" type="line"/>
      <point x="614" y="262" type="line"/>
      <point x="510" y="262" type="line"/>
      <point x="510" y="262"/>
      <point x="510" y="262"/>
    </contour>
    <contour>
      <point x="496" y="1309" type="qcurve" smooth="yes"/>
      <point x="483.625" y="1239.62"/>
      <point x="487.844" y="1152.91"/>
      <point x="536.406" y="1104.34"/>
      <point x="637" y="1087"/>
      <point x="721" y="1087" type="qcurve" smooth="yes"/>
      <point x="805" y="1087"/>
      <point x="911.406" y="1104.34"/>
      <point x="976.844" y="1152.91"/>
      <point x="1011.62" y="1239.62"/>
      <point x="1024" y="1309" type="qcurve" smooth="yes"/>
      <point x="1036" y="1378.38"/>
      <point x="1031.69" y="1465.09"/>
      <point x="983.312" y="1513.66"/>
      <point x="883" y="1531"/>
      <point x="799" y="1531" type="qcurve" smooth="yes"/>
      <point x="715" y="1531"/>
      <point x="608.312" y="1513.66"/>
      <point x="542.688" y="1465.09"/>
      <point x="508" y="1378.38"/>
    </contour>
    <contour>
      <point x="710" y="1309" type="qcurve" smooth="yes"/>
      <point x="716.037" y="1342.2"/>
      <point x="743.344" y="1360"/>
      <point x="769" y="1360" type="qcurve" smooth="yes"/>
      <point x="794.656" y="1360"/>
      <point x="816.037" y="1342.2"/>
      <point x="810" y="1309" type="qcurve" smooth="yes"/>
      <point x="803.963" y="1276.55"/>
      <point x="776.656" y="1258"/>
      <point x="751" y="1258" type="qcurve" smooth="yes"/>
      <point x="725.344" y="1258"/>
      <point x="703.963" y="1276.55"/>
    </contour>
  </outline>
  <guideline angle="260.1" color="1,0,0,1" x="569" y="-0"/>
</glyph>
<glyph name="ccedilla" format="2">
  <advance width="1241"/>
  <unicode hex="00E7"/>
  <anchor x="714" y="1174" name="top"/>
  <anchor x="507" y="-150" name="bottom"/>
  <anchor x="507" y="0" name="ogrev"/>
  <outline>
    <contour>
      <point x="-15" y="256" type="line" smooth="yes"/>
      <point x="-40.6564" y="109.608"/>
      <point x="83.9144" y="-14"/>
      <point x="262" y="-14" type="qcurve" smooth="yes"/>
      <point x="752" y="-14" type="line" smooth="yes"/>
      <point x="930.086" y="-14"/>
      <point x="1097.34" y="109.608"/>
      <point x="1123" y="256" type="qcurve" smooth="yes"/>
      <point x="1142" y="366" type="line"/>
      <point x="637" y="474" type="line"/>
      <point x="618" y="368" type="line"/>
      <point x="618" y="368"/>
      <point x="618" y="368"/>
      <point x="618" y="368" type="qcurve"/>
      <point x="528" y="368" type="line"/>
      <point x="528" y="368"/>
      <point x="528" y="368"/>
      <point x="528" y="368" type="qcurve"/>
      <point x="578" y="656" type="line"/>
      <point x="578" y="656"/>
      <point x="578" y="656"/>
      <point x="578" y="656" type="qcurve"/>
      <point x="664" y="656" type="line"/>
      <point x="664" y="656"/>
      <point x="664" y="656"/>
      <point x="664" y="656" type="qcurve"/>
      <point x="646" y="552" type="line"/>
      <point x="1187" y="650" type="line"/>
      <point x="1210" y="782" type="line" smooth="yes"/>
      <point x="1234.9" y="920.846"/>
      <point x="1108.07" y="1038"/>
      <point x="933" y="1038" type="qcurve" smooth="yes"/>
      <point x="447" y="1038" type="line" smooth="yes"/>
      <point x="271.933" y="1038"/>
      <point x="100.147" y="918.356"/>
      <point x="76" y="778" type="qcurve" smooth="yes"/>
    </contour>
    <contour>
      <point x="483.613" y="-436.031" type="qcurve" smooth="yes"/>
      <point x="576.194" y="-436.031"/>
      <point x="690.557" y="-325.045"/>
      <point x="690.557" y="-235.197" type="qcurve" smooth="yes"/>
      <point x="690.557" y="-168.707"/>
      <point x="621.111" y="-92.9619"/>
      <point x="549.455" y="-81.2966" type="qcurve"/>
      <point x="597.083" y="15.4638" type="line"/>
      <point x="536.645" y="15.1154" type="line"/>
      <point x="476.207" y="14.767" type="line"/>
      <point x="372.667" y="-195.793" type="line"/>
      <point x="381.983" y="-194.113"/>
      <point x="403.423" y="-192.994"/>
      <point x="411.975" y="-193.742" type="qcurve" smooth="yes"/>
      <point x="435.237" y="-195.778"/>
      <point x="459.449" y="-221.386"/>
      <point x="459.449" y="-243.954" type="qcurve" smooth="yes"/>
      <point x="459.449" y="-271.169"/>
      <point x="427.013" y="-306.059"/>
      <point x="401.712" y="-306.059" type="qcurve" smooth="yes"/>
      <point x="387.626" y="-306.059"/>
      <point x="359.007" y="-294.391"/>
      <point x="345.96" y="-283.33" type="qcurve"/>
      <point x="286.286" y="-369.457" type="line"/>
      <point x="323.998" y="-399.88"/>
      <point x="431.15" y="-436.031"/>
    </contour>
  </outline>
  <guideline angle="0" x="0" y="25"/>
</glyph>
<glyph name="egrave" format="2">
  <advance width="1266"/>
  <unicode hex="00E8"/>
  <anchor x="709" y="1174" name="top"/>
  <anchor x="502" y="-150" name="bottom"/>
  <anchor x="502" y="0" name="ogonek"/>
  <outline>
    <contour>
      <point x="-8" y="296" type="line" smooth="yes"/>
      <point x="-37" y="133"/>
      <point x="119" y="-14"/>
      <point x="336" y="-14" type="qcurve" smooth="yes"/>
      <point x="668" y="-14" type="line" smooth="yes"/>
      <point x="885" y="-14"/>
      <point x="1108" y="111"/>
      <point x="1134" y="262" type="qcurve" smooth="yes"/>
      <point x="1137" y="280" type="line"/>
      <point x="628" y="368" type="line"/>
      <point x="614" y="288" type="line"/>
      <point x="614" y="288"/>
      <point x="614" y="288"/>
      <point x="614" y="288" type="qcurve"/>
      <point x="514" y="288" type="line"/>
      <point x="514" y="288"/>
      <point x="514" y="288"/>
      <point x="514" y="288" type="qcurve"/>
      <point x="535" y="404" type="line"/>
      <point x="1159" y="404" type="line"/>
      <point x="1217" y="738" type="line" smooth="yes"/>
      <point x="1244" y="896"/>
      <point x="1068" y="1038"/>
      <point x="851" y="1038" type="qcurve" smooth="yes"/>
      <point x="519" y="1038" type="line" smooth="yes"/>
      <point x="303" y="1038"/>
      <point x="96" y="895"/>
      <point x="69" y="738" type="qcurve" smooth="yes"/>
    </contour>
    <contour>
      <point x="574" y="628" type="line"/>
      <point x="592" y="736" type="line"/>
      <point x="592" y="736"/>
      <point x="592" y="736"/>
      <point x="592" y="736" type="qcurve"/>
      <point x="692" y="736" type="line"/>
      <point x="692" y="736"/>
      <point x="692" y="736"/>
      <point x="692" y="736" type="qcurve"/>
      <point x="674" y="628" type="line"/>
    </contour>
    <contour>
      <point x="581" y="1100" type="line"/>
      <point x="1001" y="1100" type="line"/>
      <point x="779" y="1448" type="line"/>
      <point x="260" y="1448" type="line"/>
    </contour>
  </outline>
  <guideline angle="0" color="1,0,0,1" x="0" y="-1038"/>
</glyph>
<glyph name="edieresis" format="2">
  <advance width="1266"/>
  <unicode hex="00EB"/>
  <anchor x="788" y="1562" name="top"/>
  <anchor x="489" y="-150" name="bottom"/>
  <anchor x="806" y="-4" name="ogonek"/>
  <outline>
    <contour>
      <point x="-8" y="296" type="line" smooth="yes"/>
      <point x="-37" y="133"/>
      <point x="119" y="-14"/>
      <point x="336" y="-14" type="qcurve" smooth="yes"/>
      <point x="668" y="-14" type="line" smooth="yes"/>
      <point x="885" y="-14"/>
      <point x="1108" y="111"/>
      <point x="1134" y="262" type="qcurve" smooth="yes"/>
      <point x="1137" y="280" type="line"/>
      <point x="628" y="368" type="line"/>
      <point x="614" y="288" type="line"/>
      <point x="614" y="288"/>
      <point x="614" y="288"/>
      <point x="614" y="288" type="qcurve"/>
      <point x="514" y="288" type="line"/>
      <point x="514" y="288"/>
      <point x="514" y="288"/>
      <point x="514" y="288" type="qcurve"/>
      <point x="535" y="404" type="line"/>
      <point x="1159" y="404" type="line"/>
      <point x="1217" y="738" type="line" smooth="yes"/>
      <point x="1244" y="896"/>
      <point x="1068" y="1038"/>
      <point x="851" y="1038" type="qcurve" smooth="yes"/>
      <point x="519" y="1038" type="line" smooth="yes"/>
      <point x="303" y="1038"/>
      <point x="96" y="895"/>
      <point x="69" y="738" type="qcurve" smooth="yes"/>
    </contour>
    <contour>
      <point x="574" y="628" type="line"/>
      <point x="592" y="736" type="line"/>
      <point x="592" y="736"/>
      <point x="592" y="736"/>
      <point x="592" y="736" type="qcurve"/>
      <point x="692" y="736" type="line"/>
      <point x="692" y="736"/>
      <point x="692" y="736"/>
      <point x="692" y="736" type="qcurve"/>
      <point x="674" y="628" type="line"/>
    </contour>
    <contour>
      <point x="393" y="1112" type="qcurve" smooth="yes"/>
      <point x="525" y="1112" type="line" smooth="yes"/>
      <point x="606" y="1112"/>
      <point x="640" y="1141"/>
      <point x="654" y="1222" type="qcurve" smooth="yes"/>
      <point x="676" y="1344" type="line" smooth="yes"/>
      <point x="690" y="1424"/>
      <point x="666" y="1452"/>
      <point x="585" y="1452" type="qcurve" smooth="yes"/>
      <point x="453" y="1452" type="line" smooth="yes"/>
      <point x="372" y="1452"/>
      <point x="338" y="1424"/>
      <point x="324" y="1344" type="qcurve" smooth="yes"/>
      <point x="302" y="1222" type="line" smooth="yes"/>
      <point x="288" y="1141"/>
      <point x="312" y="1112"/>
    </contour>
    <contour>
      <point x="893" y="1112" type="qcurve" smooth="yes"/>
      <point x="1025" y="1112" type="line" smooth="yes"/>
      <point x="1106" y="1112"/>
      <point x="1140" y="1141"/>
      <point x="1154" y="1222" type="qcurve" smooth="yes"/>
      <point x="1176" y="1344" type="line" smooth="yes"/>
      <point x="1190" y="1424"/>
      <point x="1166" y="1452"/>
      <point x="1085" y="1452" type="qcurve" smooth="yes"/>
      <point x="953" y="1452" type="line" smooth="yes"/>
      <point x="872" y="1452"/>
      <point x="838" y="1424"/>
      <point x="824" y="1344" type="qcurve" smooth="yes"/>
      <point x="802" y="1222" type="line" smooth="yes"/>
      <point x="788" y="1141"/>
      <point x="812" y="1112"/>
    </contour>
  </outline>
  <guideline angle="0" color="1,0,0,1" x="0" y="-1038"/>
</glyph>
<glyph name="igrave" format="2">
  <advance width="662"/>
  <unicode hex="00EC"/>
  <anchor x="186" y="-150" name="bottom"/>
  <anchor x="417" y="1174" name="top"/>
  <anchor x="-50" y="0" name="ogonek"/>
  <outline>
    <contour>
      <point x="-50" y="0" type="line"/>
      <point x="474" y="0" type="line"/>
      <point x="653" y="1024" type="line"/>
      <point x="129" y="1024" type="line"/>
    </contour>
    <contour>
      <point x="289" y="1124" type="line"/>
      <point x="709" y="1124" type="line"/>
      <point x="487" y="1472" type="line"/>
      <point x="-32" y="1472" type="line"/>
    </contour>
  </outline>
</glyph>
<glyph name="iacute" format="2">
  <advance width="662"/>
  <unicode hex="00ED"/>
  <anchor x="186" y="-150" name="bottom"/>
  <anchor x="417" y="1174" name="top"/>
  <anchor x="282" y="0" name="ogonek"/>
  <outline>
    <contour>
      <point x="-50" y="0" type="line"/>
      <point x="474" y="0" type="line"/>
      <point x="653" y="1024" type="line"/>
      <point x="129" y="1024" type="line"/>
    </contour>
    <contour>
      <point x="71" y="1100" type="line"/>
      <point x="571" y="1100" type="line"/>
      <point x="1014" y="1448" type="line"/>
      <point x="415" y="1448" type="line"/>
    </contour>
  </outline>
</glyph>
<glyph name="icircumflex" format="2">
  <advance width="662"/>
  <unicode hex="00EE"/>
  <anchor x="186" y="-150" name="bottom"/>
  <anchor x="483" y="1548" name="top"/>
  <anchor x="282" y="0" name="ogonek"/>
  <anchor x="884" y="1274" name="topright"/>
  <outline>
    <contour>
      <point x="-50" y="0" type="line"/>
      <point x="474" y="0" type="line"/>
      <point x="653" y="1024" type="line"/>
      <point x="129" y="1024" type="line"/>
    </contour>
    <contour>
      <point x="-43" y="1100" type="line"/>
      <point x="379" y="1100" type="line"/>
      <point x="433" y="1223" type="line"/>
      <point x="463" y="1100" type="line"/>
      <point x="853" y="1100" type="line"/>
      <point x="683" y="1448" type="line"/>
      <point x="251" y="1448" type="line"/>
    </contour>
  </outline>
</glyph>
<glyph name="eth" format="2">
  <advance width="1357"/>
  <unicode hex="00F0"/>
  <outline>
    <contour>
      <point x="244" y="-14" type="qcurve" smooth="yes"/>
      <point x="780" y="-14" type="line" smooth="yes"/>
      <point x="943" y="-14"/>
      <point x="1108" y="111"/>
      <point x="1132" y="250" type="qcurve" smooth="yes"/>
      <point x="1177" y="510" type="line" smooth="yes"/>
      <point x="1215" y="729"/>
      <point x="1208" y="1050"/>
      <point x="1165" y="1165" type="qcurve"/>
      <point x="1392" y="1212" type="line"/>
      <point x="1386" y="1375" type="line"/>
      <point x="1079" y="1312" type="line"/>
      <point x="1019" y="1381"/>
      <point x="852" y="1462"/>
      <point x="743" y="1482" type="qcurve"/>
      <point x="363" y="1349" type="line"/>
      <point x="458" y="1329"/>
      <point x="588" y="1263"/>
      <point x="630" y="1220" type="qcurve"/>
      <point x="311" y="1154" type="line"/>
      <point x="317" y="991" type="line"/>
      <point x="712" y="1072" type="line"/>
      <point x="720" y="1040"/>
      <point x="725" y="972"/>
      <point x="723" y="938" type="qcurve"/>
      <point x="410" y="938" type="line" smooth="yes"/>
      <point x="250" y="938"/>
      <point x="82" y="815"/>
      <point x="59" y="684" type="qcurve" smooth="yes"/>
      <point x="-16" y="250" type="line" smooth="yes"/>
      <point x="-40" y="111"/>
      <point x="83" y="-14"/>
    </contour>
    <contour>
      <point x="661" y="556" type="line"/>
      <point x="661" y="556"/>
      <point x="661" y="556"/>
      <point x="661" y="556" type="qcurve"/>
      <point x="628" y="368" type="line"/>
      <point x="628" y="368"/>
      <point x="628" y="368"/>
      <point x="628" y="368" type="qcurve"/>
      <point x="528" y="368" type="line"/>
      <point x="528" y="368"/>
      <point x="528" y="368"/>
      <point x="528" y="368" type="qcurve"/>
      <point x="561" y="556" type="line"/>
      <point x="561" y="556"/>
      <point x="561" y="556"/>
      <point x="561" y="556" type="qcurve"/>
    </contour>
  </outline>
</glyph>
<glyph name="ntilde" format="2">
  <advance width="1281"/>
  <unicode hex="00F1"/>
  <anchor x="801" y="1583" name="top"/>
  <anchor x="498" y="-150" name="bottom"/>
  <outline>
    <contour>
      <point x="-50" y="0" type="line"/>
      <point x="474" y="0" type="line"/>
      <point x="574" y="574" type="line"/>
      <point x="674" y="574" type="line"/>
      <point x="674" y="574"/>
      <point x="674" y="574"/>
      <point x="674" y="574" type="qcurve"/>
      <point x="574" y="0" type="line"/>
      <point x="1098" y="0" type="line"/>
      <point x="1227" y="738" type="line" smooth="yes"/>
      <point x="1254" y="894"/>
      <point x="1163" y="1038"/>
      <point x="971" y="1038" type="qcurve" smooth="yes"/>
      <point x="941" y="1038" type="line" smooth="yes"/>
      <point x="823.282" y="1038"/>
      <point x="678.503" y="988.331"/>
      <point x="637" y="934" type="qcurve"/>
      <point x="653" y="1024" type="line"/>
      <point x="129" y="1024" type="line"/>
    </contour>
    <contour>
      <point x="266" y="1161" type="qcurve"/>
      <point x="545" y="1113" type="line"/>
      <point x="553.301" y="1132.62"/>
      <point x="594.233" y="1164"/>
      <point x="638" y="1164" type="qcurve" smooth="yes"/>
      <point x="667.625" y="1164"/>
      <point x="726.812" y="1148.06"/>
      <point x="791.688" y="1128.94"/>
      <point x="865.125" y="1113"/>
      <point x="909" y="1113" type="qcurve" smooth="yes"/>
      <point x="1027.5" y="1113"/>
      <point x="1189" y="1285.25"/>
      <point x="1234" y="1430" type="qcurve"/>
      <point x="955" y="1478" type="line"/>
      <point x="946.699" y="1458.38"/>
      <point x="905.767" y="1427"/>
      <point x="862" y="1427" type="qcurve" smooth="yes"/>
      <point x="832.375" y="1427"/>
      <point x="773.469" y="1442.94"/>
      <point x="708.781" y="1462.06"/>
      <point x="635.25" y="1478"/>
      <point x="591" y="1478" type="qcurve" smooth="yes"/>
      <point x="472.5" y="1478"/>
      <point x="313.25" y="1317.75"/>
    </contour>
  </outline>
  <guideline angle="0" x="0" y="988"/>
  <guideline angle="0" x="0" y="870"/>
</glyph>
<glyph name="otilde" format="2">
  <advance width="1262"/>
  <unicode hex="00F5"/>
  <anchor x="786" y="1571" name="top"/>
  <anchor x="485" y="-150" name="bottom"/>
  <anchor x="1222" y="784" name="horn"/>
  <anchor x="677" y="0" name="ogonek"/>
  <outline>
    <contour>
      <point x="-16" y="250" type="line" smooth="yes"/>
      <point x="-40.1472" y="111.154"/>
      <point x="82.5156" y="-14"/>
      <point x="244" y="-14" type="qcurve" smooth="yes"/>
      <point x="780" y="-14" type="line" smooth="yes"/>
      <point x="942.994" y="-14"/>
      <point x="1107.85" y="111.154"/>
      <point x="1132" y="250" type="qcurve" smooth="yes"/>
      <point x="1225" y="784" type="line" smooth="yes"/>
      <point x="1247.64" y="915.3"/>
      <point x="1122.98" y="1038"/>
      <point x="963" y="1038" type="qcurve" smooth="yes"/>
      <point x="427" y="1038" type="line" smooth="yes"/>
      <point x="267.025" y="1038"/>
      <point x="99.638" y="915.3"/>
      <point x="77" y="784" type="qcurve" smooth="yes"/>
    </contour>
    <contour>
      <point x="528" y="368" type="qcurve"/>
      <point x="578" y="656" type="line"/>
      <point x="578" y="656"/>
      <point x="578" y="656"/>
      <point x="578" y="656" type="qcurve"/>
      <point x="678" y="656" type="line"/>
      <point x="678" y="656"/>
      <point x="678" y="656"/>
      <point x="678" y="656" type="qcurve"/>
      <point x="628" y="368" type="line"/>
      <point x="628" y="368"/>
      <point x="628" y="368"/>
      <point x="628" y="368" type="qcurve"/>
      <point x="528" y="368" type="line"/>
      <point x="528" y="368"/>
      <point x="528" y="368"/>
    </contour>
    <contour>
      <point x="251" y="1149" type="qcurve"/>
      <point x="530" y="1101" type="line"/>
      <point x="538.301" y="1120.62"/>
      <point x="579.233" y="1152"/>
      <point x="623" y="1152" type="qcurve" smooth="yes"/>
      <point x="652.625" y="1152"/>
      <point x="711.812" y="1136.06"/>
      <point x="776.688" y="1116.94"/>
      <point x="850.125" y="1101"/>
      <point x="894" y="1101" type="qcurve" smooth="yes"/>
      <point x="1012.5" y="1101"/>
      <point x="1174" y="1273.25"/>
      <point x="1219" y="1418" type="qcurve"/>
      <point x="940" y="1466" type="line"/>
      <point x="931.699" y="1446.38"/>
      <point x="890.767" y="1415"/>
      <point x="847" y="1415" type="qcurve" smooth="yes"/>
      <point x="817.375" y="1415"/>
      <point x="758.469" y="1430.94"/>
      <point x="693.781" y="1450.06"/>
      <point x="620.25" y="1466"/>
      <point x="576" y="1466" type="qcurve" smooth="yes"/>
      <point x="457.5" y="1466"/>
      <point x="298.25" y="1305.75"/>
    </contour>
  </outline>
</glyph>
<glyph name="odieresis" format="2">
  <advance width="1266"/>
  <unicode hex="00F6"/>
  <anchor x="787" y="1562" name="top"/>
  <anchor x="512" y="-150" name="bottom"/>
  <anchor x="1180" y="966" name="horn"/>
  <anchor x="681" y="0" name="ogonek"/>
  <outline>
    <contour>
      <point x="-16" y="250" type="line" smooth="yes"/>
      <point x="-40" y="111"/>
      <point x="83" y="-14"/>
      <point x="244" y="-14" type="qcurve" smooth="yes"/>
      <point x="780" y="-14" type="line" smooth="yes"/>
      <point x="943" y="-14"/>
      <point x="1108" y="111"/>
      <point x="1132" y="250" type="qcurve" smooth="yes"/>
      <point x="1225" y="784" type="line" smooth="yes"/>
      <point x="1248" y="915"/>
      <point x="1123" y="1038"/>
      <point x="963" y="1038" type="qcurve" smooth="yes"/>
      <point x="427" y="1038" type="line" smooth="yes"/>
      <point x="267" y="1038"/>
      <point x="100" y="915"/>
      <point x="77" y="784" type="qcurve" smooth="yes"/>
    </contour>
    <contour>
      <point x="528" y="368" type="qcurve"/>
      <point x="578" y="656" type="line"/>
      <point x="578" y="656"/>
      <point x="578" y="656"/>
      <point x="578" y="656" type="qcurve"/>
      <point x="678" y="656" type="line"/>
      <point x="678" y="656"/>
      <point x="678" y="656"/>
      <point x="678" y="656" type="qcurve"/>
      <point x="628" y="368" type="line"/>
      <point x="628" y="368"/>
      <point x="628" y="368"/>
      <point x="628" y="368" type="qcurve"/>
      <point x="528" y="368" type="line"/>
      <point x="528" y="368"/>
      <point x="528" y="368"/>
    </contour>
    <contour>
      <point x="392" y="1112" type="qcurve" smooth="yes"/>
      <point x="524" y="1112" type="line" smooth="yes"/>
      <point x="605" y="1112"/>
      <point x="639" y="1141"/>
      <point x="653" y="1222" type="qcurve" smooth="yes"/>
      <point x="675" y="1344" type="line" smooth="yes"/>
      <point x="689" y="1424"/>
      <point x="665" y="1452"/>
      <point x="584" y="1452" type="qcurve" smooth="yes"/>
      <point x="452" y="1452" type="line" smooth="yes"/>
      <point x="371" y="1452"/>
      <point x="337" y="1424"/>
      <point x="323" y="1344" type="qcurve" smooth="yes"/>
      <point x="301" y="1222" type="line" smooth="yes"/>
      <point x="287" y="1141"/>
      <point x="311" y="1112"/>
    </contour>
    <contour>
      <point x="892" y="1112" type="qcurve" smooth="yes"/>
      <point x="1024" y="1112" type="line" smooth="yes"/>
      <point x="1105" y="1112"/>
      <point x="1139" y="1141"/>
      <point x="1153" y="1222" type="qcurve" smooth="yes"/>
      <point x="1175" y="1344" type="line" smooth="yes"/>
      <point x="1189" y="1424"/>
      <point x="1165" y="1452"/>
      <point x="1084" y="1452" type="qcurve" smooth="yes"/>
      <point x="952" y="1452" type="line" smooth="yes"/>
      <point x="871" y="1452"/>
      <point x="837" y="1424"/>
      <point x="823" y="1344" type="qcurve" smooth="yes"/>
      <point x="801" y="1222" type="line" smooth="yes"/>
      <point x="787" y="1141"/>
      <point x="811" y="1112"/>
    </contour>
  </outline>
</glyph>
<glyph name="divide" format="2">
  <advance width="999"/>
  <unicode hex="00F7"/>
  <outline>
    <contour>
      <point x="354" y="41" type="qcurve" smooth="yes"/>
      <point x="422" y="41" type="line" smooth="yes"/>
      <point x="500" y="41"/>
      <point x="541" y="70"/>
      <point x="552" y="135" type="qcurve" smooth="yes"/>
      <point x="573" y="258" type="line" smooth="yes"/>
      <point x="584" y="322"/>
      <point x="554" y="351"/>
      <point x="476" y="351" type="qcurve" smooth="yes"/>
      <point x="408" y="351" type="line" smooth="yes"/>
      <point x="332" y="351"/>
      <point x="292" y="322"/>
      <point x="281" y="258" type="qcurve" smooth="yes"/>
      <point x="260" y="135" type="line" smooth="yes"/>
      <point x="248" y="69"/>
      <point x="277" y="41"/>
    </contour>
    <contour>
      <point x="11" y="442" type="line"/>
      <point x="905" y="442" type="line"/>
      <point x="956" y="732" type="line"/>
      <point x="62" y="732" type="line"/>
    </contour>
    <contour>
      <point x="490" y="817" type="qcurve" smooth="yes"/>
      <point x="558" y="817" type="line" smooth="yes"/>
      <point x="636" y="817"/>
      <point x="676" y="846"/>
      <point x="687" y="911" type="qcurve" smooth="yes"/>
      <point x="708" y="1034" type="line" smooth="yes"/>
      <point x="719" y="1098"/>
      <point x="690" y="1127"/>
      <point x="612" y="1127" type="qcurve" smooth="yes"/>
      <point x="544" y="1127" type="line" smooth="yes"/>
      <point x="468" y="1127"/>
      <point x="427" y="1098"/>
      <point x="416" y="1034" type="qcurve" smooth="yes"/>
      <point x="395" y="911" type="line" smooth="yes"/>
      <point x="384" y="845"/>
      <point x="413" y="817"/>
    </contour>
  </outline>
</glyph>
<glyph name="oslash" format="2">
  <advance width="1291.62" height="1448"/>
  <unicode hex="00F8"/>
  <anchor x="731" y="1174" name="top"/>
  <outline>
    <contour>
      <point x="-4.4569" y="250" type="line"/>
      <point x="88.5431" y="784" type="line" smooth="yes"/>
      <point x="99.5431" y="849"/>
      <point x="152.543" y="945"/>
      <point x="238.543" y="1008"/>
      <point x="359.543" y="1038"/>
      <point x="438.543" y="1038" type="qcurve" smooth="yes"/>
      <point x="974.543" y="1038" type="line" smooth="yes"/>
      <point x="1133.54" y="1038"/>
      <point x="1259.54" y="915"/>
      <point x="1236.54" y="784" type="qcurve" smooth="yes"/>
      <point x="1143.54" y="250" type="line" smooth="yes"/>
      <point x="1131.54" y="181"/>
      <point x="1079.54" y="81"/>
      <point x="993.543" y="17"/>
      <point x="872.543" y="-14"/>
      <point x="791.543" y="-14" type="qcurve" smooth="yes"/>
      <point x="255.543" y="-14" type="line" smooth="yes"/>
      <point x="175.543" y="-14"/>
      <point x="64.5431" y="17"/>
      <point x="1.5431" y="81"/>
      <point x="-16.4569" y="181"/>
      <point x="-4.4569" y="250" type="qcurve"/>
    </contour>
    <contour>
      <point x="506.543" y="348" type="line"/>
      <point x="506.543" y="348"/>
      <point x="506.543" y="348"/>
      <point x="506.543" y="348" type="qcurve"/>
      <point x="666.543" y="348" type="line"/>
      <point x="666.543" y="348"/>
      <point x="666.543" y="348"/>
      <point x="666.543" y="348" type="qcurve"/>
      <point x="723.543" y="676" type="line"/>
      <point x="723.543" y="676"/>
      <point x="723.543" y="676"/>
      <point x="723.543" y="676" type="qcurve"/>
      <point x="563.543" y="676" type="line"/>
      <point x="563.543" y="676"/>
      <point x="563.543" y="676"/>
      <point x="563.543" y="676" type="qcurve"/>
    </contour>
    <contour>
      <point x="-32.4569" y="-60" type="line"/>
      <point x="-124.457" y="76" type="line"/>
      <point x="153.543" y="274" type="line"/>
      <point x="311.543" y="396" type="line"/>
      <point x="840.543" y="774" type="line"/>
      <point x="990.543" y="870" type="line"/>
      <point x="1257.54" y="1060" type="line"/>
      <point x="1348.54" y="924" type="line"/>
      <point x="1077.54" y="731" type="line"/>
      <point x="928.543" y="636" type="line"/>
      <point x="398.543" y="257" type="line"/>
      <point x="238.543" y="134" type="line"/>
    </contour>
  </outline>
  <guideline angle="0" x="0" y="1060"/>
  <guideline angle="0" x="0" y="-60"/>
</glyph>
<glyph name="ugrave" format="2">
  <advance width="1266"/>
  <unicode hex="00F9"/>
  <anchor x="717" y="1174" name="top"/>
  <anchor x="486" y="-150" name="bottom"/>
  <anchor x="678" y="0" name="ogonek"/>
  <anchor x="1261" y="1024" name="horn"/>
  <outline>
    <contour>
      <point x="-22" y="204" type="line" smooth="yes"/>
      <point x="-44.638" y="77.2272"/>
      <point x="71.3008" y="0"/>
      <point x="186" y="0" type="qcurve" smooth="yes"/>
      <point x="836" y="0" type="line" smooth="yes"/>
      <point x="950.699" y="0"/>
      <point x="1095.36" y="77.2272"/>
      <point x="1118" y="204" type="qcurve" smooth="yes"/>
      <point x="1261" y="1024" type="line"/>
      <point x="737" y="1024" type="line"/>
      <point x="630" y="412" type="line"/>
      <point x="630" y="412"/>
      <point x="630" y="412"/>
      <point x="630" y="412" type="qcurve"/>
      <point x="538" y="412" type="line"/>
      <point x="538" y="412"/>
      <point x="538" y="412"/>
      <point x="538" y="412" type="qcurve"/>
      <point x="645" y="1024" type="line"/>
      <point x="121" y="1024" type="line"/>
    </contour>
    <contour>
      <point x="1009" y="1100" type="line"/>
      <point x="787" y="1448" type="line"/>
      <point x="268" y="1448" type="line"/>
      <point x="589" y="1100" type="line"/>
    </contour>
  </outline>
</glyph>
<glyph name="ucircumflex" format="2">
  <advance width="1269"/>
  <unicode hex="00FB"/>
  <anchor x="786" y="1548" name="top"/>
  <anchor x="489" y="-150" name="bottom"/>
  <anchor x="514" y="0" name="ogonek"/>
  <anchor x="1002" y="1024" name="horn"/>
  <anchor x="1187" y="1274" name="topright"/>
  <outline>
    <contour>
      <point x="-19" y="204" type="line" smooth="yes"/>
      <point x="-42" y="77"/>
      <point x="74" y="0"/>
      <point x="189" y="0" type="qcurve" smooth="yes"/>
      <point x="839" y="0" type="line" smooth="yes"/>
      <point x="954" y="0"/>
      <point x="1098" y="77"/>
      <point x="1121" y="204" type="qcurve" smooth="yes"/>
      <point x="1264" y="1024" type="line"/>
      <point x="740" y="1024" type="line"/>
      <point x="633" y="412" type="line"/>
      <point x="633" y="412"/>
      <point x="633" y="412"/>
      <point x="633" y="412" type="qcurve"/>
      <point x="541" y="412" type="line"/>
      <point x="541" y="412"/>
      <point x="541" y="412"/>
      <point x="541" y="412" type="qcurve"/>
      <point x="648" y="1024" type="line"/>
      <point x="124" y="1024" type="line"/>
    </contour>
    <contour>
      <point x="260" y="1100" type="line"/>
      <point x="682" y="1100" type="line"/>
      <point x="736" y="1223" type="line"/>
      <point x="766" y="1100" type="line"/>
      <point x="1156" y="1100" type="line"/>
      <point x="986" y="1448" type="line"/>
      <point x="554" y="1448" type="line"/>
    </contour>
  </outline>
</glyph>
<glyph name="udieresis" format="2">
  <advance width="1269"/>
  <unicode hex="00FC"/>
  <anchor x="788" y="1562" name="top"/>
  <anchor x="489" y="-150" name="bottom"/>
  <anchor x="681" y="0" name="ogonek"/>
  <anchor x="1264" y="1024" name="horn"/>
  <outline>
    <contour>
      <point x="-19" y="204" type="line" smooth="yes"/>
      <point x="-42" y="77"/>
      <point x="74" y="0"/>
      <point x="189" y="0" type="qcurve" smooth="yes"/>
      <point x="839" y="0" type="line" smooth="yes"/>
      <point x="954" y="0"/>
      <point x="1098" y="77"/>
      <point x="1121" y="204" type="qcurve" smooth="yes"/>
      <point x="1264" y="1024" type="line"/>
      <point x="740" y="1024" type="line"/>
      <point x="633" y="412" type="line"/>
      <point x="633" y="412"/>
      <point x="633" y="412"/>
      <point x="633" y="412" type="qcurve"/>
      <point x="541" y="412" type="line"/>
      <point x="541" y="412"/>
      <point x="541" y="412"/>
      <point x="541" y="412" type="qcurve"/>
      <point x="648" y="1024" type="line"/>
      <point x="124" y="1024" type="line"/>
    </contour>
    <contour>
      <point x="393" y="1112" type="qcurve" smooth="yes"/>
      <point x="525" y="1112" type="line" smooth="yes"/>
      <point x="606" y="1112"/>
      <point x="640" y="1141"/>
      <point x="654" y="1222" type="qcurve" smooth="yes"/>
      <point x="676" y="1344" type="line" smooth="yes"/>
      <point x="690" y="1424"/>
      <point x="666" y="1452"/>
      <point x="585" y="1452" type="qcurve" smooth="yes"/>
      <point x="453" y="1452" type="line" smooth="yes"/>
      <point x="372" y="1452"/>
      <point x="338" y="1424"/>
      <point x="324" y="1344" type="qcurve" smooth="yes"/>
      <point x="302" y="1222" type="line" smooth="yes"/>
      <point x="288" y="1141"/>
      <point x="312" y="1112"/>
    </contour>
    <contour>
      <point x="893" y="1112" type="qcurve" smooth="yes"/>
      <point x="1025" y="1112" type="line" smooth="yes"/>
      <point x="1106" y="1112"/>
      <point x="1140" y="1141"/>
      <point x="1154" y="1222" type="qcurve" smooth="yes"/>
      <point x="1176" y="1344" type="line" smooth="yes"/>
      <point x="1190" y="1424"/>
      <point x="1166" y="1452"/>
      <point x="1085" y="1452" type="qcurve" smooth="yes"/>
      <point x="953" y="1452" type="line" smooth="yes"/>
      <point x="872" y="1452"/>
      <point x="838" y="1424"/>
      <point x="824" y="1344" type="qcurve" smooth="yes"/>
      <point x="802" y="1222" type="line" smooth="yes"/>
      <point x="788" y="1141"/>
      <point x="812" y="1112"/>
    </contour>
  </outline>
</glyph>
